M48
; DRILL file {KiCad 9.0.7} date 2026-03-16T17:29:24+0100
; FORMAT={-:-/ absolute / metric / decimal}
; #@! TF.CreationDate,2026-03-16T17:29:24+01:00
; #@! TF.GenerationSoftware,Kicad,Pcbnew,9.0.7
; #@! TF.FileFunction,Plated,1,4,PTH
FMAT,2
METRIC
; #@! TA.AperFunction,Plated,PTH,ViaDrill
T1C0.400
; #@! TA.AperFunction,Plated,PTH,ComponentDrill
T2C0.950
; #@! TA.AperFunction,Plated,PTH,ComponentDrill
T3C1.000
; #@! TA.AperFunction,Plated,PTH,ComponentDrill
T4C3.200
%
G90
G05
T1
X47.5Y-50.0
X47.5Y-52.5
X47.5Y-55.0
X47.5Y-95.0
X47.5Y-97.5
X47.5Y-100.0
X50.0Y-50.0
X50.0Y-52.5
X50.0Y-55.0
X50.0Y-97.5
X50.0Y-100.0
X52.5Y-50.0
X52.5Y-52.5
X52.5Y-97.5
X52.5Y-100.0
X54.49Y-92.13
X55.0Y-42.5
X55.0Y-45.0
X55.0Y-47.5
X55.0Y-50.0
X55.0Y-55.0
X55.0Y-75.0
X55.0Y-97.5
X55.0Y-100.0
X55.0Y-102.5
X55.0Y-105.0
X55.0Y-107.5
X55.77Y-91.61
X55.78Y-85.03
X57.5Y-42.5
X57.5Y-45.0
X57.5Y-47.5
X57.5Y-52.5
X57.5Y-55.0
X57.5Y-57.5
X57.5Y-60.0
X57.5Y-77.5
X57.5Y-80.0
X57.5Y-82.5
X57.5Y-97.5
X57.5Y-100.0
X57.5Y-102.5
X57.5Y-105.0
X57.5Y-107.5
X59.0Y-68.5
X60.0Y-45.0
X60.0Y-50.0
X60.0Y-52.5
X60.0Y-55.0
X60.0Y-57.5
X60.0Y-60.0
X60.0Y-80.0
X60.0Y-92.5
X60.0Y-95.0
X60.0Y-97.5
X60.0Y-100.0
X60.0Y-102.5
X60.0Y-105.0
X60.0Y-107.5
X61.0Y-64.0
X61.5Y-85.0
X62.5Y-50.0
X62.5Y-72.5
X62.5Y-77.0
X62.5Y-82.5
X62.5Y-95.0
X62.5Y-97.5
X62.5Y-100.0
X62.5Y-102.5
X62.5Y-105.0
X62.5Y-107.5
X62.6Y-90.15
X63.0Y-68.0
X63.23Y-80.7
X65.0Y-42.5
X65.0Y-50.0
X65.0Y-100.0
X65.0Y-102.5
X65.0Y-105.0
X65.0Y-107.5
X67.5Y-50.0
X67.5Y-100.0
X67.5Y-102.5
X67.5Y-105.0
X67.5Y-107.5
X67.8Y-83.35
X68.013Y-84.378
X70.0Y-102.5
X70.0Y-105.0
X70.0Y-107.5
X71.47Y-71.569
X71.5Y-98.5
X71.884Y-51.212
X72.49Y-67.99
X72.5Y-95.0
X72.5Y-97.5
X72.5Y-100.0
X72.5Y-102.5
X72.5Y-105.0
X72.5Y-107.5
X72.6Y-91.494
X72.8Y-80.1
X72.82Y-78.97
X73.6Y-80.8
X74.05Y-70.35
X74.2Y-73.35
X74.2Y-74.35
X74.2Y-75.35
X74.871Y-84.031
X75.0Y-91.15
X75.0Y-95.0
X75.0Y-97.5
X75.0Y-100.0
X75.0Y-102.5
X75.0Y-105.0
X75.0Y-107.5
X75.24Y-80.63
X75.32Y-51.54
X76.077Y-91.931
X76.6Y-63.9
X76.874Y-79.67
X76.9Y-65.2
X77.16Y-82.23
X77.5Y-55.0
X77.5Y-57.5
X77.5Y-87.5
X77.5Y-95.0
X77.5Y-97.5
X77.5Y-100.0
X77.5Y-102.5
X77.5Y-105.0
X77.5Y-107.5
X77.877Y-81.17
X77.967Y-65.401
X78.0Y-76.75
X78.2Y-67.486
X78.22Y-66.424
X78.682Y-64.471
X80.0Y-55.0
X80.0Y-57.5
X80.0Y-95.0
X80.0Y-97.5
X80.0Y-100.0
X80.0Y-102.5
X80.0Y-105.0
X80.0Y-107.5
X80.5Y-67.492
X80.5Y-74.0
X80.6Y-75.7
X81.2Y-51.7
X81.23Y-88.75
X81.5Y-62.5
X81.75Y-78.1
X82.5Y-55.0
X82.5Y-57.5
X82.5Y-82.5
X82.5Y-95.0
X82.5Y-97.5
X82.5Y-100.0
X82.5Y-102.5
X82.5Y-105.0
X82.5Y-107.5
X82.91Y-88.751
X82.93Y-50.81
X83.0Y-93.95
X83.514Y-68.341
X84.198Y-63.2
X84.273Y-62.1
X84.46Y-67.546
X84.53Y-88.751
X84.83Y-83.73
X85.0Y-82.5
X85.0Y-97.5
X85.0Y-100.0
X85.0Y-102.5
X85.0Y-105.0
X85.0Y-107.5
X85.781Y-60.762
X86.25Y-88.751
X86.849Y-62.92
X86.861Y-51.027
X87.5Y-85.0
X87.5Y-95.0
X87.5Y-97.5
X87.5Y-100.0
X87.5Y-102.5
X87.5Y-105.0
X87.5Y-107.5
X87.63Y-63.72
X87.79Y-88.751
X88.0Y-46.0
X88.781Y-48.5
X90.0Y-42.5
X90.0Y-45.0
X90.0Y-47.5
X90.0Y-50.0
X90.0Y-52.5
X90.0Y-60.0
X90.0Y-80.0
X90.0Y-95.0
X90.0Y-97.5
X90.0Y-100.0
X90.0Y-102.5
X90.0Y-105.0
X90.0Y-107.5
X90.7Y-91.75
X92.5Y-50.0
X92.5Y-52.5
X92.5Y-97.5
X92.5Y-100.0
X95.0Y-50.0
X95.0Y-52.5
X95.0Y-97.5
X95.0Y-100.0
X97.5Y-50.0
X97.5Y-52.5
X97.5Y-97.5
X97.5Y-100.0
T2
X50.0Y-60.5
X50.0Y-63.0
X50.0Y-65.5
X50.0Y-72.5
X50.0Y-75.0
X50.0Y-77.5
X50.0Y-84.5
X50.0Y-87.0
X50.0Y-89.5
T3
X52.735Y-95.0
X55.275Y-95.0
X93.725Y-55.95
X93.725Y-58.49
X93.725Y-61.03
X93.725Y-63.57
X93.725Y-66.11
X93.725Y-68.65
X93.725Y-71.19
X93.725Y-73.73
X93.725Y-76.27
X93.725Y-78.81
X93.725Y-81.35
X93.725Y-83.89
X93.725Y-86.43
X93.725Y-88.97
X93.725Y-91.51
X93.725Y-94.05
X96.265Y-55.95
X96.265Y-58.49
X96.265Y-61.03
X96.265Y-63.57
X96.265Y-66.11
X96.265Y-68.65
X96.265Y-71.19
X96.265Y-73.73
X96.265Y-76.27
X96.265Y-78.81
X96.265Y-81.35
X96.265Y-83.89
X96.265Y-86.43
X96.265Y-88.97
X96.265Y-91.51
X96.265Y-94.05
T4
X50.0Y-45.0
X50.0Y-105.0
X95.0Y-45.0
X95.0Y-105.0
M30
