%TF.GenerationSoftware,KiCad,Pcbnew,9.0.7*%
%TF.CreationDate,2026-03-16T17:27:03+01:00*%
%TF.ProjectId,BLDC-Control-Board,424c4443-2d43-46f6-9e74-726f6c2d426f,rev?*%
%TF.SameCoordinates,Original*%
%TF.FileFunction,Soldermask,Bot*%
%TF.FilePolarity,Negative*%
%FSLAX46Y46*%
G04 Gerber Fmt 4.6, Leading zero omitted, Abs format (unit mm)*
G04 Created by KiCad (PCBNEW 9.0.7) date 2026-03-16 17:27:03*
%MOMM*%
%LPD*%
G01*
G04 APERTURE LIST*
G04 Aperture macros list*
%AMRoundRect*
0 Rectangle with rounded corners*
0 $1 Rounding radius*
0 $2 $3 $4 $5 $6 $7 $8 $9 X,Y pos of 4 corners*
0 Add a 4 corners polygon primitive as box body*
4,1,4,$2,$3,$4,$5,$6,$7,$8,$9,$2,$3,0*
0 Add four circle primitives for the rounded corners*
1,1,$1+$1,$2,$3*
1,1,$1+$1,$4,$5*
1,1,$1+$1,$6,$7*
1,1,$1+$1,$8,$9*
0 Add four rect primitives between the rounded corners*
20,1,$1+$1,$2,$3,$4,$5,0*
20,1,$1+$1,$4,$5,$6,$7,0*
20,1,$1+$1,$6,$7,$8,$9,0*
20,1,$1+$1,$8,$9,$2,$3,0*%
G04 Aperture macros list end*
%ADD10C,5.600000*%
%ADD11RoundRect,0.250000X0.725000X-0.600000X0.725000X0.600000X-0.725000X0.600000X-0.725000X-0.600000X0*%
%ADD12O,1.950000X1.700000*%
%ADD13R,1.700000X1.700000*%
%ADD14C,1.700000*%
G04 APERTURE END LIST*
D10*
%TO.C,H3*%
X95000000Y-105000000D03*
%TD*%
D11*
%TO.C,J4*%
X50000000Y-77500000D03*
D12*
X50000000Y-75000000D03*
X50000000Y-72500000D03*
%TD*%
D10*
%TO.C,H2*%
X95000000Y-45000000D03*
%TD*%
D13*
%TO.C,J6*%
X55275000Y-95000000D03*
D14*
X52735000Y-95000000D03*
%TD*%
D11*
%TO.C,J5*%
X50000000Y-89500000D03*
D12*
X50000000Y-87000000D03*
X50000000Y-84500000D03*
%TD*%
D10*
%TO.C,H4*%
X50000000Y-105000000D03*
%TD*%
%TO.C,H1*%
X50000000Y-45000000D03*
%TD*%
D11*
%TO.C,J1*%
X50000000Y-65500000D03*
D12*
X50000000Y-63000000D03*
X50000000Y-60500000D03*
%TD*%
D13*
%TO.C,J3*%
X93725000Y-94050000D03*
D14*
X96265000Y-94050000D03*
X93725000Y-91510000D03*
X96265000Y-91510000D03*
X93725000Y-88970000D03*
X96265000Y-88970000D03*
X93725000Y-86430000D03*
X96265000Y-86430000D03*
X93725000Y-83890000D03*
X96265000Y-83890000D03*
X93725000Y-81350000D03*
X96265000Y-81350000D03*
X93725000Y-78810000D03*
X96265000Y-78810000D03*
X93725000Y-76270000D03*
X96265000Y-76270000D03*
X93725000Y-73730000D03*
X96265000Y-73730000D03*
X93725000Y-71190000D03*
X96265000Y-71190000D03*
X93725000Y-68650000D03*
X96265000Y-68650000D03*
X93725000Y-66110000D03*
X96265000Y-66110000D03*
X93725000Y-63570000D03*
X96265000Y-63570000D03*
X93725000Y-61030000D03*
X96265000Y-61030000D03*
X93725000Y-58490000D03*
X96265000Y-58490000D03*
X93725000Y-55950000D03*
X96265000Y-55950000D03*
%TD*%
M02*
