%TF.GenerationSoftware,KiCad,Pcbnew,9.0.7*%
%TF.CreationDate,2026-03-16T17:27:03+01:00*%
%TF.ProjectId,BLDC-Control-Board,424c4443-2d43-46f6-9e74-726f6c2d426f,rev?*%
%TF.SameCoordinates,Original*%
%TF.FileFunction,Paste,Top*%
%TF.FilePolarity,Positive*%
%FSLAX46Y46*%
G04 Gerber Fmt 4.6, Leading zero omitted, Abs format (unit mm)*
G04 Created by KiCad (PCBNEW 9.0.7) date 2026-03-16 17:27:03*
%MOMM*%
%LPD*%
G01*
G04 APERTURE LIST*
G04 Aperture macros list*
%AMRoundRect*
0 Rectangle with rounded corners*
0 $1 Rounding radius*
0 $2 $3 $4 $5 $6 $7 $8 $9 X,Y pos of 4 corners*
0 Add a 4 corners polygon primitive as box body*
4,1,4,$2,$3,$4,$5,$6,$7,$8,$9,$2,$3,0*
0 Add four circle primitives for the rounded corners*
1,1,$1+$1,$2,$3*
1,1,$1+$1,$4,$5*
1,1,$1+$1,$6,$7*
1,1,$1+$1,$8,$9*
0 Add four rect primitives between the rounded corners*
20,1,$1+$1,$2,$3,$4,$5,0*
20,1,$1+$1,$4,$5,$6,$7,0*
20,1,$1+$1,$6,$7,$8,$9,0*
20,1,$1+$1,$8,$9,$2,$3,0*%
G04 Aperture macros list end*
%ADD10R,1.600000X2.200000*%
%ADD11RoundRect,0.237500X0.250000X0.237500X-0.250000X0.237500X-0.250000X-0.237500X0.250000X-0.237500X0*%
%ADD12RoundRect,0.237500X-0.237500X0.250000X-0.237500X-0.250000X0.237500X-0.250000X0.237500X0.250000X0*%
%ADD13RoundRect,0.237500X-0.250000X-0.237500X0.250000X-0.237500X0.250000X0.237500X-0.250000X0.237500X0*%
%ADD14RoundRect,0.250000X1.125000X-1.275000X1.125000X1.275000X-1.125000X1.275000X-1.125000X-1.275000X0*%
%ADD15RoundRect,0.250000X0.350000X-0.850000X0.350000X0.850000X-0.350000X0.850000X-0.350000X-0.850000X0*%
%ADD16RoundRect,0.237500X0.237500X-0.300000X0.237500X0.300000X-0.237500X0.300000X-0.237500X-0.300000X0*%
%ADD17RoundRect,0.237500X0.300000X0.237500X-0.300000X0.237500X-0.300000X-0.237500X0.300000X-0.237500X0*%
%ADD18RoundRect,0.237500X-0.300000X-0.237500X0.300000X-0.237500X0.300000X0.237500X-0.300000X0.237500X0*%
%ADD19RoundRect,0.150000X0.825000X0.150000X-0.825000X0.150000X-0.825000X-0.150000X0.825000X-0.150000X0*%
%ADD20RoundRect,0.237500X0.237500X-0.250000X0.237500X0.250000X-0.237500X0.250000X-0.237500X-0.250000X0*%
%ADD21RoundRect,0.237500X-0.237500X0.300000X-0.237500X-0.300000X0.237500X-0.300000X0.237500X0.300000X0*%
%ADD22R,1.600000X1.400000*%
%ADD23RoundRect,0.237500X-0.237500X0.287500X-0.237500X-0.287500X0.237500X-0.287500X0.237500X0.287500X0*%
%ADD24R,2.200000X1.550000*%
%ADD25R,1.000000X3.150000*%
%ADD26R,0.850000X0.300000*%
%ADD27R,0.300000X0.850000*%
%ADD28R,4.100000X4.100000*%
%ADD29R,1.200000X1.800000*%
G04 APERTURE END LIST*
D10*
%TO.C,L1*%
X65550000Y-62000000D03*
X71950000Y-62000000D03*
%TD*%
D11*
%TO.C,R_OP2_1*%
X66340000Y-79200000D03*
X64515000Y-79200000D03*
%TD*%
%TO.C,R_OP4_2*%
X83012500Y-92840000D03*
X81187500Y-92840000D03*
%TD*%
D12*
%TO.C,R_RST1*%
X69001500Y-49387500D03*
X69001500Y-51212500D03*
%TD*%
D13*
%TO.C,R_OP3_1*%
X64515000Y-82200000D03*
X66340000Y-82200000D03*
%TD*%
D14*
%TO.C,U3*%
X66345000Y-90975000D03*
X69395000Y-90975000D03*
X66345000Y-87625000D03*
X69395000Y-87625000D03*
D15*
X65590000Y-95600000D03*
X67870000Y-95600000D03*
X70150000Y-95600000D03*
%TD*%
D16*
%TO.C,C_DDA2*%
X82150000Y-85452500D03*
X82150000Y-83727500D03*
%TD*%
D13*
%TO.C,R_OP1_1*%
X64502500Y-80700000D03*
X66327500Y-80700000D03*
%TD*%
%TO.C,R_OP4_3*%
X84487500Y-92840000D03*
X86312500Y-92840000D03*
%TD*%
D11*
%TO.C,R_OP5_1*%
X69640000Y-80700000D03*
X67815000Y-80700000D03*
%TD*%
D16*
%TO.C,C_DDA1*%
X79150000Y-85452500D03*
X79150000Y-83727500D03*
%TD*%
D17*
%TO.C,C_OP_2*%
X82950000Y-89840000D03*
X81225000Y-89840000D03*
%TD*%
D12*
%TO.C,R1*%
X89850000Y-54137500D03*
X89850000Y-55962500D03*
%TD*%
D18*
%TO.C,C_OSC1*%
X58006485Y-64062500D03*
X59731485Y-64062500D03*
%TD*%
D16*
%TO.C,C_REF2*%
X83650000Y-85452500D03*
X83650000Y-83727500D03*
%TD*%
D19*
%TO.C,U2*%
X60725000Y-90155000D03*
X60725000Y-88885000D03*
X60725000Y-87615000D03*
X60725000Y-86345000D03*
X55775000Y-86345000D03*
X55775000Y-87615000D03*
X55775000Y-88885000D03*
X55775000Y-90155000D03*
%TD*%
D20*
%TO.C,R_BUS2*%
X66900000Y-75842500D03*
X66900000Y-74017500D03*
%TD*%
D11*
%TO.C,R_OP5_3*%
X86300000Y-91340000D03*
X84475000Y-91340000D03*
%TD*%
D13*
%TO.C,R_OP1_2*%
X77875000Y-89840000D03*
X79700000Y-89840000D03*
%TD*%
D21*
%TO.C,C_VMpol1*%
X76300000Y-59037500D03*
X76300000Y-60762500D03*
%TD*%
D11*
%TO.C,R_OP3_3*%
X89612500Y-89840000D03*
X87787500Y-89840000D03*
%TD*%
D12*
%TO.C,R_SCREF1*%
X80000000Y-64187500D03*
X80000000Y-66012500D03*
%TD*%
D22*
%TO.C,SW2*%
X69001500Y-47450000D03*
X61001500Y-47450000D03*
X69001500Y-42950000D03*
X61001500Y-42950000D03*
%TD*%
D21*
%TO.C,C_RST1*%
X63900000Y-72347500D03*
X63900000Y-74072500D03*
%TD*%
D23*
%TO.C,D2*%
X86950000Y-67375000D03*
X86950000Y-69125000D03*
%TD*%
D24*
%TO.C,D1*%
X69100000Y-55500000D03*
X65000000Y-55500000D03*
%TD*%
D20*
%TO.C,R_SCREF2*%
X81500000Y-66012500D03*
X81500000Y-64187500D03*
%TD*%
D25*
%TO.C,J2*%
X71881500Y-48675000D03*
X71881500Y-43625000D03*
X74421500Y-48675000D03*
X74421500Y-43625000D03*
X76961500Y-48675000D03*
X76961500Y-43625000D03*
X79501500Y-48675000D03*
X79501500Y-43625000D03*
X82041500Y-48675000D03*
X82041500Y-43625000D03*
X84581500Y-48675000D03*
X84581500Y-43625000D03*
X87121500Y-48675000D03*
X87121500Y-43625000D03*
%TD*%
D12*
%TO.C,R_CAN1*%
X50000000Y-93587500D03*
X50000000Y-95412500D03*
%TD*%
D13*
%TO.C,R_OP4_1*%
X67815000Y-82200000D03*
X69640000Y-82200000D03*
%TD*%
D17*
%TO.C,C_PSCAN2*%
X67507500Y-97675000D03*
X65782500Y-97675000D03*
%TD*%
D18*
%TO.C,C_OP_1*%
X67865000Y-79200000D03*
X69590000Y-79200000D03*
%TD*%
D21*
%TO.C,C_OUT1*%
X62850000Y-60087500D03*
X62850000Y-61812500D03*
%TD*%
D11*
%TO.C,R_OP2_2*%
X79700000Y-92840000D03*
X77875000Y-92840000D03*
%TD*%
D13*
%TO.C,R_OP5_2*%
X81175000Y-91340000D03*
X83000000Y-91340000D03*
%TD*%
D23*
%TO.C,D3*%
X91350000Y-54175000D03*
X91350000Y-55925000D03*
%TD*%
D21*
%TO.C,C_TEMP1*%
X76150000Y-83727500D03*
X76150000Y-85452500D03*
%TD*%
D26*
%TO.C,IC1*%
X72950000Y-69850000D03*
X72950000Y-70350000D03*
X72950000Y-70850000D03*
X72950000Y-71350000D03*
X72950000Y-71850000D03*
X72950000Y-72350000D03*
X72950000Y-72850000D03*
X72950000Y-73350000D03*
X72950000Y-73850000D03*
X72950000Y-74350000D03*
X72950000Y-74850000D03*
X72950000Y-75350000D03*
X72950000Y-75850000D03*
X72950000Y-76350000D03*
X72950000Y-76850000D03*
X72950000Y-77350000D03*
D27*
X73650000Y-78050000D03*
X74150000Y-78050000D03*
X74650000Y-78050000D03*
X75150000Y-78050000D03*
X75650000Y-78050000D03*
X76150000Y-78050000D03*
X76650000Y-78050000D03*
X77150000Y-78050000D03*
X77650000Y-78050000D03*
X78150000Y-78050000D03*
X78650000Y-78050000D03*
X79150000Y-78050000D03*
X79650000Y-78050000D03*
X80150000Y-78050000D03*
X80650000Y-78050000D03*
X81150000Y-78050000D03*
D26*
X81850000Y-77350000D03*
X81850000Y-76850000D03*
X81850000Y-76350000D03*
X81850000Y-75850000D03*
X81850000Y-75350000D03*
X81850000Y-74850000D03*
X81850000Y-74350000D03*
X81850000Y-73850000D03*
X81850000Y-73350000D03*
X81850000Y-72850000D03*
X81850000Y-72350000D03*
X81850000Y-71850000D03*
X81850000Y-71350000D03*
X81850000Y-70850000D03*
X81850000Y-70350000D03*
X81850000Y-69850000D03*
D27*
X81150000Y-69150000D03*
X80650000Y-69150000D03*
X80150000Y-69150000D03*
X79650000Y-69150000D03*
X79150000Y-69150000D03*
X78650000Y-69150000D03*
X78150000Y-69150000D03*
X77650000Y-69150000D03*
X77150000Y-69150000D03*
X76650000Y-69150000D03*
X76150000Y-69150000D03*
X75650000Y-69150000D03*
X75150000Y-69150000D03*
X74650000Y-69150000D03*
X74150000Y-69150000D03*
X73650000Y-69150000D03*
D28*
X77400000Y-73600000D03*
%TD*%
D16*
%TO.C,C_REF1*%
X77650000Y-85452500D03*
X77650000Y-83727500D03*
%TD*%
D12*
%TO.C,R2*%
X88450000Y-67337500D03*
X88450000Y-69162500D03*
%TD*%
D18*
%TO.C,C_BAT1*%
X69687500Y-70400000D03*
X71412500Y-70400000D03*
%TD*%
D13*
%TO.C,R_OP3_2*%
X77875000Y-91340000D03*
X79700000Y-91340000D03*
%TD*%
D21*
%TO.C,C_PSCAN1*%
X70145000Y-97862500D03*
X70145000Y-99587500D03*
%TD*%
D11*
%TO.C,R_OP1_3*%
X89612500Y-91340000D03*
X87787500Y-91340000D03*
%TD*%
D13*
%TO.C,R_BUS1*%
X62097500Y-75800000D03*
X63922500Y-75800000D03*
%TD*%
D18*
%TO.C,C_3v3_1*%
X69687500Y-68900000D03*
X71412500Y-68900000D03*
%TD*%
D21*
%TO.C,C_BUS1*%
X65400000Y-74067500D03*
X65400000Y-75792500D03*
%TD*%
D13*
%TO.C,R_OP2_3*%
X87787500Y-92840000D03*
X89612500Y-92840000D03*
%TD*%
D29*
%TO.C,Y1*%
X60103985Y-70000000D03*
X60103985Y-66000000D03*
X57703985Y-66000000D03*
X57703985Y-70000000D03*
%TD*%
D21*
%TO.C,C_M1*%
X74600000Y-59037500D03*
X74600000Y-60762500D03*
%TD*%
D16*
%TO.C,C_3v3_2*%
X80650000Y-85452500D03*
X80650000Y-83727500D03*
%TD*%
D18*
%TO.C,C_OP_3*%
X84525000Y-89840000D03*
X86250000Y-89840000D03*
%TD*%
D17*
%TO.C,C_OSC2*%
X59831485Y-71962500D03*
X58106485Y-71962500D03*
%TD*%
M02*
