%TF.GenerationSoftware,KiCad,Pcbnew,9.0.7*%
%TF.CreationDate,2026-03-16T17:27:03+01:00*%
%TF.ProjectId,BLDC-Control-Board,424c4443-2d43-46f6-9e74-726f6c2d426f,rev?*%
%TF.SameCoordinates,Original*%
%TF.FileFunction,Copper,L4,Bot*%
%TF.FilePolarity,Positive*%
%FSLAX46Y46*%
G04 Gerber Fmt 4.6, Leading zero omitted, Abs format (unit mm)*
G04 Created by KiCad (PCBNEW 9.0.7) date 2026-03-16 17:27:03*
%MOMM*%
%LPD*%
G01*
G04 APERTURE LIST*
G04 Aperture macros list*
%AMRoundRect*
0 Rectangle with rounded corners*
0 $1 Rounding radius*
0 $2 $3 $4 $5 $6 $7 $8 $9 X,Y pos of 4 corners*
0 Add a 4 corners polygon primitive as box body*
4,1,4,$2,$3,$4,$5,$6,$7,$8,$9,$2,$3,0*
0 Add four circle primitives for the rounded corners*
1,1,$1+$1,$2,$3*
1,1,$1+$1,$4,$5*
1,1,$1+$1,$6,$7*
1,1,$1+$1,$8,$9*
0 Add four rect primitives between the rounded corners*
20,1,$1+$1,$2,$3,$4,$5,0*
20,1,$1+$1,$4,$5,$6,$7,0*
20,1,$1+$1,$6,$7,$8,$9,0*
20,1,$1+$1,$8,$9,$2,$3,0*%
G04 Aperture macros list end*
%TA.AperFunction,ComponentPad*%
%ADD10C,5.600000*%
%TD*%
%TA.AperFunction,ComponentPad*%
%ADD11RoundRect,0.250000X0.725000X-0.600000X0.725000X0.600000X-0.725000X0.600000X-0.725000X-0.600000X0*%
%TD*%
%TA.AperFunction,ComponentPad*%
%ADD12O,1.950000X1.700000*%
%TD*%
%TA.AperFunction,ComponentPad*%
%ADD13R,1.700000X1.700000*%
%TD*%
%TA.AperFunction,ComponentPad*%
%ADD14C,1.700000*%
%TD*%
%TA.AperFunction,ViaPad*%
%ADD15C,0.800000*%
%TD*%
%TA.AperFunction,Conductor*%
%ADD16C,0.254000*%
%TD*%
G04 APERTURE END LIST*
D10*
%TO.P,H3,1,1*%
%TO.N,Earth*%
X95000000Y-105000000D03*
%TD*%
D11*
%TO.P,J4,1,Pin_1*%
%TO.N,UART_RX*%
X50000000Y-77500000D03*
D12*
%TO.P,J4,2,Pin_2*%
%TO.N,UART_TX*%
X50000000Y-75000000D03*
%TO.P,J4,3,Pin_3*%
%TO.N,Earth*%
X50000000Y-72500000D03*
%TD*%
D10*
%TO.P,H2,1,1*%
%TO.N,Earth*%
X95000000Y-45000000D03*
%TD*%
D13*
%TO.P,J6,1,Pin_1*%
%TO.N,CAN_L*%
X55275000Y-95000000D03*
D14*
%TO.P,J6,2,Pin_2*%
%TO.N,Net-(J6-Pin_2)*%
X52735000Y-95000000D03*
%TD*%
D11*
%TO.P,J5,1,Pin_1*%
%TO.N,CAN_H*%
X50000000Y-89500000D03*
D12*
%TO.P,J5,2,Pin_2*%
%TO.N,CAN_L*%
X50000000Y-87000000D03*
%TO.P,J5,3,Pin_3*%
%TO.N,Earth*%
X50000000Y-84500000D03*
%TD*%
D10*
%TO.P,H4,1,1*%
%TO.N,Earth*%
X50000000Y-105000000D03*
%TD*%
%TO.P,H1,1,1*%
%TO.N,Earth*%
X50000000Y-45000000D03*
%TD*%
D11*
%TO.P,J1,1,Pin_1*%
%TO.N,I2C-SDA*%
X50000000Y-65500000D03*
D12*
%TO.P,J1,2,Pin_2*%
%TO.N,I2C-SCL*%
X50000000Y-63000000D03*
%TO.P,J1,3,Pin_3*%
%TO.N,Earth*%
X50000000Y-60500000D03*
%TD*%
D13*
%TO.P,J3,1,Pin_1*%
%TO.N,VHALL*%
X93725000Y-94050000D03*
D14*
%TO.P,J3,2,Pin_2*%
%TO.N,Earth*%
X96265000Y-94050000D03*
%TO.P,J3,3,Pin_3*%
%TO.N,GLS1*%
X93725000Y-91510000D03*
%TO.P,J3,4,Pin_4*%
%TO.N,VSHUNT3N*%
X96265000Y-91510000D03*
%TO.P,J3,5,Pin_5*%
%TO.N,GLS2*%
X93725000Y-88970000D03*
%TO.P,J3,6,Pin_6*%
%TO.N,VSHUNT3P*%
X96265000Y-88970000D03*
%TO.P,J3,7,Pin_7*%
%TO.N,GLS3*%
X93725000Y-86430000D03*
%TO.P,J3,8,Pin_8*%
%TO.N,VSHUNT2N*%
X96265000Y-86430000D03*
%TO.P,J3,9,Pin_9*%
%TO.N,BOOT3*%
X93725000Y-83890000D03*
%TO.P,J3,10,Pin_10*%
%TO.N,VSHUNT2P*%
X96265000Y-83890000D03*
%TO.P,J3,11,Pin_11*%
%TO.N,OUT3*%
X93725000Y-81350000D03*
%TO.P,J3,12,Pin_12*%
%TO.N,VSHUNT1N*%
X96265000Y-81350000D03*
%TO.P,J3,13,Pin_13*%
%TO.N,GHS3*%
X93725000Y-78810000D03*
%TO.P,J3,14,Pin_14*%
%TO.N,VSHUNT1P*%
X96265000Y-78810000D03*
%TO.P,J3,15,Pin_15*%
%TO.N,BOOT2*%
X93725000Y-76270000D03*
%TO.P,J3,16,Pin_16*%
%TO.N,VOUT3*%
X96265000Y-76270000D03*
%TO.P,J3,17,Pin_17*%
%TO.N,OUT2*%
X93725000Y-73730000D03*
%TO.P,J3,18,Pin_18*%
%TO.N,Earth*%
X96265000Y-73730000D03*
%TO.P,J3,19,Pin_19*%
%TO.N,GHS2*%
X93725000Y-71190000D03*
%TO.P,J3,20,Pin_20*%
%TO.N,VOUT2*%
X96265000Y-71190000D03*
%TO.P,J3,21,Pin_21*%
%TO.N,BOOT1*%
X93725000Y-68650000D03*
%TO.P,J3,22,Pin_22*%
%TO.N,VOUT1*%
X96265000Y-68650000D03*
%TO.P,J3,23,Pin_23*%
%TO.N,OUT1*%
X93725000Y-66110000D03*
%TO.P,J3,24,Pin_24*%
%TO.N,VCOULING*%
X96265000Y-66110000D03*
%TO.P,J3,25,Pin_25*%
%TO.N,GHS1*%
X93725000Y-63570000D03*
%TO.P,J3,26,Pin_26*%
%TO.N,TEMP_SENSOR*%
X96265000Y-63570000D03*
%TO.P,J3,27,Pin_27*%
%TO.N,HALL2*%
X93725000Y-61030000D03*
%TO.P,J3,28,Pin_28*%
%TO.N,HALL1*%
X96265000Y-61030000D03*
%TO.P,J3,29,Pin_29*%
%TO.N,HALL3*%
X93725000Y-58490000D03*
%TO.P,J3,30,Pin_30*%
%TO.N,VBAT*%
X96265000Y-58490000D03*
%TO.P,J3,31,Pin_31*%
%TO.N,VM*%
X93725000Y-55950000D03*
%TO.P,J3,32,Pin_32*%
%TO.N,Earth*%
X96265000Y-55950000D03*
%TD*%
D15*
%TO.N,Earth*%
X80600000Y-75700000D03*
%TO.N,VHALL*%
X72600000Y-91494084D03*
%TO.N,VBAT*%
X63230000Y-80700000D03*
X84830000Y-83730000D03*
X74050000Y-70350000D03*
X55780000Y-85030000D03*
X75000000Y-91150000D03*
X71884000Y-51212500D03*
X76600000Y-63900000D03*
X90700000Y-91750000D03*
%TO.N,VM*%
X85781000Y-60762500D03*
X62500000Y-77000000D03*
%TO.N,OPO2*%
X73600000Y-80800000D03*
X82910000Y-88751000D03*
%TO.N,OPN2*%
X72800000Y-80100000D03*
X81230000Y-88750000D03*
%TO.N,OPO3*%
X84530000Y-88751000D03*
X77160000Y-82230000D03*
%TO.N,OPN3*%
X86250000Y-88751000D03*
X77877000Y-81170000D03*
%TO.N,REGIN*%
X71500000Y-98500000D03*
X72490000Y-67990000D03*
%TO.N,TEMP_SENSOR*%
X74871000Y-84031416D03*
%TO.N,OPP3*%
X76874000Y-79670000D03*
X87790000Y-88751000D03*
%TO.N,CAN_TX*%
X62600000Y-90150000D03*
X83513751Y-68340751D03*
%TO.N,HALL3*%
X77966753Y-65401168D03*
%TO.N,SWDIO-JTMS*%
X84198380Y-63200209D03*
X75320000Y-51540000D03*
%TO.N,VCOULING*%
X72820000Y-78970000D03*
%TO.N,CAN_STBY*%
X71470000Y-71569000D03*
X55770000Y-91610000D03*
%TO.N,I2C-SCL*%
X80500000Y-67492000D03*
%TO.N,I2C-SDA*%
X76900000Y-65200000D03*
%TO.N,SWCLK-JTCK*%
X81200000Y-51700000D03*
X84273000Y-62100000D03*
%TO.N,HALL1*%
X78200000Y-67485933D03*
%TO.N,CAN_RX*%
X61500000Y-85000000D03*
X84460400Y-67546000D03*
%TO.N,VOUT3*%
X74200000Y-75350003D03*
%TO.N,VOUT2*%
X74200000Y-74350000D03*
%TO.N,VOUT1*%
X74200000Y-73349997D03*
%TO.N,UART_TX*%
X88000000Y-46000000D03*
X87630000Y-63720000D03*
%TO.N,UART_RX*%
X88781000Y-48500000D03*
X86849000Y-62920000D03*
X86860966Y-51026629D03*
%TO.N,SWO-JTDO*%
X82930000Y-50810000D03*
X78682000Y-64471000D03*
%TO.N,HALL2*%
X78220000Y-66424294D03*
%TO.N,VSHUNT2N*%
X83000000Y-93950000D03*
%TO.N,VSHUNT1P*%
X68012728Y-84378227D03*
%TO.N,VSHUNT2P*%
X76077251Y-91931000D03*
%TO.N,VSHUNT1N*%
X67800000Y-83350000D03*
%TO.N,Earth*%
X65000000Y-42500000D03*
X62500000Y-102500000D03*
X62500000Y-50000000D03*
X60000000Y-92500000D03*
X55000000Y-55000000D03*
X82500000Y-95000000D03*
X75000000Y-97500000D03*
X67500000Y-100000000D03*
X90000000Y-105000000D03*
X77500000Y-97500000D03*
X60000000Y-60000000D03*
X72500000Y-97500000D03*
X60000000Y-107500000D03*
X80000000Y-107500000D03*
X60000000Y-50000000D03*
X95000000Y-52500000D03*
X65000000Y-105000000D03*
X87500000Y-97500000D03*
X80000000Y-55000000D03*
X57500000Y-107500000D03*
X75000000Y-107500000D03*
X92500000Y-100000000D03*
X80000000Y-102500000D03*
X92500000Y-50000000D03*
X77500000Y-105000000D03*
X52500000Y-50000000D03*
X75000000Y-100000000D03*
X75000000Y-95000000D03*
X50000000Y-55000000D03*
X65000000Y-102500000D03*
X65000000Y-107500000D03*
X82500000Y-102500000D03*
X75000000Y-102500000D03*
X87500000Y-102500000D03*
X62500000Y-100000000D03*
X90000000Y-95000000D03*
X81500000Y-62500000D03*
X57500000Y-100000000D03*
X62500000Y-95000000D03*
X92500000Y-97500000D03*
X60000000Y-80000000D03*
X81750000Y-78100002D03*
X52500000Y-97500000D03*
X75000000Y-105000000D03*
X95000000Y-100000000D03*
X85000000Y-100000000D03*
X90000000Y-80000000D03*
X85000000Y-105000000D03*
X90000000Y-52500000D03*
X50000000Y-97500000D03*
X67500000Y-102500000D03*
X47500000Y-52500000D03*
X95000000Y-50000000D03*
X60000000Y-102500000D03*
X55000000Y-105000000D03*
X72500000Y-100000000D03*
X78000000Y-76750000D03*
X60000000Y-97500000D03*
X82500000Y-82500000D03*
X90000000Y-102500000D03*
X87500000Y-100000000D03*
X82500000Y-100000000D03*
X80000000Y-95000000D03*
X57500000Y-82500000D03*
X54490000Y-92130000D03*
X57500000Y-60000000D03*
X97500000Y-100000000D03*
X92500000Y-52500000D03*
X57500000Y-105000000D03*
X77500000Y-102500000D03*
X95000000Y-97500000D03*
X57500000Y-57500000D03*
X62500000Y-97500000D03*
X57500000Y-77500000D03*
X80000000Y-57500000D03*
X82500000Y-55000000D03*
X85000000Y-82500000D03*
X85000000Y-102500000D03*
X87500000Y-95000000D03*
X50000000Y-100000000D03*
X77500000Y-87500000D03*
X47500000Y-95000000D03*
X62500000Y-72500000D03*
X72500000Y-95000000D03*
X77500000Y-95000000D03*
X70000000Y-102500000D03*
X62500000Y-107500000D03*
X90000000Y-60000000D03*
X57500000Y-42500000D03*
X80000000Y-97500000D03*
X70000000Y-105000000D03*
X60000000Y-105000000D03*
X82500000Y-97500000D03*
X77500000Y-107500000D03*
X62500000Y-105000000D03*
X97500000Y-97500000D03*
X82500000Y-105000000D03*
X75240000Y-80630000D03*
X90000000Y-42500000D03*
X55000000Y-75000000D03*
X70000000Y-107500000D03*
X59000000Y-68500000D03*
X47500000Y-55000000D03*
X60000000Y-100000000D03*
X47500000Y-100000000D03*
X60000000Y-55000000D03*
X82500000Y-107500000D03*
X57500000Y-47500000D03*
X61000000Y-64000000D03*
X87500000Y-107500000D03*
X82500000Y-57500000D03*
X55000000Y-50000000D03*
X55000000Y-42500000D03*
X90000000Y-45000000D03*
X67500000Y-105000000D03*
X80500000Y-74000000D03*
X57500000Y-45000000D03*
X57500000Y-52500000D03*
X77500000Y-55000000D03*
X57500000Y-55000000D03*
X85000000Y-107500000D03*
X62500000Y-82500000D03*
X72500000Y-107500000D03*
X55000000Y-107500000D03*
X55000000Y-45000000D03*
X57500000Y-102500000D03*
X80000000Y-100000000D03*
X55000000Y-47500000D03*
X57500000Y-97500000D03*
X55000000Y-102500000D03*
X90000000Y-47500000D03*
X52500000Y-52500000D03*
X52500000Y-100000000D03*
X80000000Y-105000000D03*
X50000000Y-52500000D03*
X47500000Y-50000000D03*
X77500000Y-57500000D03*
X65000000Y-100000000D03*
X87500000Y-105000000D03*
X60000000Y-57500000D03*
X55000000Y-97500000D03*
X60000000Y-95000000D03*
X63000000Y-68000000D03*
X97500000Y-50000000D03*
X47500000Y-97500000D03*
X60000000Y-45000000D03*
X72500000Y-105000000D03*
X90000000Y-107500000D03*
X60000000Y-52500000D03*
X67500000Y-107500000D03*
X72500000Y-102500000D03*
X57500000Y-80000000D03*
X50000000Y-50000000D03*
X67500000Y-50000000D03*
X65000000Y-50000000D03*
X77500000Y-100000000D03*
X87500000Y-85000000D03*
X85000000Y-97500000D03*
X90000000Y-100000000D03*
X90000000Y-50000000D03*
X55000000Y-100000000D03*
X97500000Y-52500000D03*
X90000000Y-97500000D03*
%TD*%
D16*
%TO.N,VOUT3*%
X94957000Y-77578000D02*
X96265000Y-76270000D01*
X91578000Y-77578000D02*
X94957000Y-77578000D01*
X79700000Y-76600000D02*
X90600000Y-76600000D01*
X78450003Y-75350003D02*
X79700000Y-76600000D01*
X74200000Y-75350003D02*
X78450003Y-75350003D01*
X90600000Y-76600000D02*
X91578000Y-77578000D01*
%TO.N,I2C-SDA*%
X53800000Y-69300000D02*
X50000000Y-65500000D01*
X72594500Y-69300000D02*
X53800000Y-69300000D01*
X73149500Y-68745000D02*
X72594500Y-69300000D01*
X75655000Y-68745000D02*
X73149500Y-68745000D01*
X76459067Y-65640933D02*
X76459067Y-67940933D01*
X76459067Y-67940933D02*
X75655000Y-68745000D01*
X76900000Y-65200000D02*
X76459067Y-65640933D01*
%TO.N,HALL3*%
X91805166Y-60409834D02*
X93725000Y-58490000D01*
X78080109Y-65400000D02*
X88010332Y-65400000D01*
X88010332Y-65400000D02*
X91805166Y-61605166D01*
X91805166Y-61605166D02*
X91805166Y-60409834D01*
X78078941Y-65401168D02*
X78080109Y-65400000D01*
X77966753Y-65401168D02*
X78078941Y-65401168D01*
%TO.N,SWO-JTDO*%
X85054000Y-52934000D02*
X82930000Y-50810000D01*
X85054000Y-63450505D02*
X85054000Y-52934000D01*
X83877505Y-64627000D02*
X85054000Y-63450505D01*
X78838000Y-64627000D02*
X83877505Y-64627000D01*
X78682000Y-64471000D02*
X78838000Y-64627000D01*
%TO.N,HALL2*%
X93100166Y-61030000D02*
X93725000Y-61030000D01*
X88221166Y-65909000D02*
X93100166Y-61030000D01*
X78726294Y-65918000D02*
X79216750Y-65918000D01*
X79216750Y-65918000D02*
X79225751Y-65909000D01*
X78220000Y-66424294D02*
X78726294Y-65918000D01*
X79225751Y-65909000D02*
X88221166Y-65909000D01*
%TO.N,HALL1*%
X88432001Y-66418000D02*
X92550000Y-62300000D01*
X79851538Y-66418000D02*
X88432001Y-66418000D01*
X92550000Y-62300000D02*
X94995000Y-62300000D01*
X78783605Y-67485933D02*
X79851538Y-66418000D01*
X94995000Y-62300000D02*
X96265000Y-61030000D01*
X78200000Y-67485933D02*
X78783605Y-67485933D01*
%TO.N,Earth*%
X95033000Y-72498000D02*
X92702000Y-72498000D01*
X96265000Y-73730000D02*
X95033000Y-72498000D01*
X95033000Y-74962000D02*
X92762000Y-74962000D01*
X96265000Y-73730000D02*
X95033000Y-74962000D01*
%TO.N,VOUT2*%
X74305913Y-74350000D02*
X74200000Y-74350000D01*
X74737913Y-74782000D02*
X74305913Y-74350000D01*
X89018000Y-74782000D02*
X74737913Y-74782000D01*
X92109000Y-71691000D02*
X89018000Y-74782000D01*
X92109000Y-71063688D02*
X92109000Y-71691000D01*
X93214688Y-69958000D02*
X92109000Y-71063688D01*
X95033000Y-69958000D02*
X93214688Y-69958000D01*
X96265000Y-71190000D02*
X95033000Y-69958000D01*
%TO.N,VOUT1*%
X74749997Y-72800000D02*
X74200000Y-73349997D01*
X85200000Y-72800000D02*
X74749997Y-72800000D01*
X86000000Y-72000000D02*
X85200000Y-72800000D01*
X90600000Y-72000000D02*
X86000000Y-72000000D01*
X91600000Y-71000000D02*
X90600000Y-72000000D01*
X91600000Y-68800000D02*
X91600000Y-71000000D01*
X93000000Y-67400000D02*
X91600000Y-68800000D01*
X95015000Y-67400000D02*
X93000000Y-67400000D01*
X96265000Y-68650000D02*
X95015000Y-67400000D01*
%TO.N,CAN_RX*%
X81551916Y-67546000D02*
X84460400Y-67546000D01*
X80823916Y-68274000D02*
X81551916Y-67546000D01*
X80445834Y-68274000D02*
X80823916Y-68274000D01*
X79010835Y-69709000D02*
X80445834Y-68274000D01*
X75791000Y-69709000D02*
X79010835Y-69709000D01*
X74832000Y-70668000D02*
X75791000Y-69709000D01*
X74832000Y-70673916D02*
X74832000Y-70668000D01*
X74373916Y-71132000D02*
X74832000Y-70673916D01*
X71979000Y-73521000D02*
X74368000Y-71132000D01*
X74368000Y-71132000D02*
X74373916Y-71132000D01*
X64388917Y-84709000D02*
X71979000Y-77118916D01*
X71979000Y-77118916D02*
X71979000Y-73521000D01*
X61791000Y-84709000D02*
X64388917Y-84709000D01*
X61500000Y-85000000D02*
X61791000Y-84709000D01*
%TO.N,SWDIO-JTMS*%
X76514917Y-52734917D02*
X75320000Y-51540000D01*
X81515083Y-52734917D02*
X76514917Y-52734917D01*
X84198380Y-63200209D02*
X83491000Y-62492829D01*
X83491000Y-62492829D02*
X83491000Y-54710834D01*
X83491000Y-54710834D02*
X81515083Y-52734917D01*
%TO.N,UART_RX*%
X88781000Y-45675084D02*
X88781000Y-48500000D01*
X88323916Y-45218000D02*
X88781000Y-45675084D01*
X50000000Y-77500000D02*
X47625000Y-75125000D01*
X47625000Y-59375000D02*
X61782000Y-45218000D01*
X47625000Y-75125000D02*
X47625000Y-59375000D01*
%TO.N,UART_TX*%
X48134000Y-73134000D02*
X50000000Y-75000000D01*
X48134000Y-59585834D02*
X48134000Y-73134000D01*
X61719834Y-46000000D02*
X48134000Y-59585834D01*
%TO.N,UART_RX*%
X61782000Y-45218000D02*
X88323916Y-45218000D01*
%TO.N,UART_TX*%
X88000000Y-46000000D02*
X61719834Y-46000000D01*
%TO.N,CAN_TX*%
X62600000Y-87217750D02*
X62600000Y-90150000D01*
X72488000Y-77329750D02*
X62600000Y-87217750D01*
X72488000Y-73731834D02*
X72488000Y-77329750D01*
X74578834Y-71641000D02*
X72488000Y-73731834D01*
X74584750Y-71641000D02*
X74578834Y-71641000D01*
X75341000Y-70884750D02*
X74584750Y-71641000D01*
X75341000Y-70878834D02*
X75341000Y-70884750D01*
X80656668Y-68783000D02*
X79221669Y-70218000D01*
X81034751Y-68783000D02*
X80656668Y-68783000D01*
X76001834Y-70218000D02*
X75341000Y-70878834D01*
X83228000Y-68055000D02*
X81762751Y-68055000D01*
X79221669Y-70218000D02*
X76001834Y-70218000D01*
X83513751Y-68340751D02*
X83228000Y-68055000D01*
X81762751Y-68055000D02*
X81034751Y-68783000D01*
%TO.N,I2C-SCL*%
X48643000Y-64357000D02*
X50000000Y-63000000D01*
X48643000Y-66368710D02*
X48643000Y-64357000D01*
X73337968Y-69200000D02*
X72728968Y-69809000D01*
X78800000Y-69200000D02*
X73337968Y-69200000D01*
X80326132Y-67665868D02*
X80326132Y-67673868D01*
X72728968Y-69809000D02*
X52083290Y-69809000D01*
X80326132Y-67673868D02*
X78800000Y-69200000D01*
X80500000Y-67492000D02*
X80326132Y-67665868D01*
X52083290Y-69809000D02*
X48643000Y-66368710D01*
%TO.N,OPO2*%
X82910000Y-88751000D02*
X82850166Y-88691166D01*
X73950000Y-80901000D02*
X73701000Y-80901000D01*
X73701000Y-80901000D02*
X73600000Y-80800000D01*
X82850166Y-88640000D02*
X77335083Y-83124917D01*
X76173917Y-83124917D02*
X73950000Y-80901000D01*
X82850166Y-88691166D02*
X82850166Y-88640000D01*
X77335083Y-83124917D02*
X76173917Y-83124917D01*
%TO.N,OPN2*%
X75963083Y-83633917D02*
X77124249Y-83633917D01*
X72818000Y-81123916D02*
X73276084Y-81582000D01*
X81230000Y-87739668D02*
X81230000Y-88750000D01*
X72818000Y-80118000D02*
X72818000Y-81123916D01*
X73276084Y-81582000D02*
X73911166Y-81582000D01*
X73911166Y-81582000D02*
X75963083Y-83633917D01*
X77124249Y-83633917D02*
X81230000Y-87739668D01*
%TO.N,OPO3*%
X84530000Y-88751000D02*
X83458000Y-87679000D01*
X82609000Y-87679000D02*
X77160000Y-82230000D01*
X83458000Y-87679000D02*
X82609000Y-87679000D01*
%TO.N,OPN3*%
X86245900Y-88630000D02*
X86245900Y-88746900D01*
X82819834Y-87170000D02*
X78000000Y-82350166D01*
X86250000Y-88751000D02*
X84669000Y-87170000D01*
X78000000Y-81293000D02*
X77877000Y-81170000D01*
X86245900Y-88746900D02*
X86250000Y-88751000D01*
X78000000Y-82350166D02*
X78000000Y-81293000D01*
X84669000Y-87170000D02*
X82819834Y-87170000D01*
%TO.N,OPP3*%
X87790000Y-88751000D02*
X85704000Y-86665000D01*
X78655000Y-82275000D02*
X78655000Y-80847741D01*
X83029012Y-86665000D02*
X78647006Y-82282994D01*
X77477259Y-79670000D02*
X76874000Y-79670000D01*
X78647006Y-82282994D02*
X78655000Y-82275000D01*
X78655000Y-80847741D02*
X77477259Y-79670000D01*
X85704000Y-86665000D02*
X83029012Y-86665000D01*
%TO.N,CAN_STBY*%
X61175000Y-84200000D02*
X55770000Y-89605000D01*
X64178082Y-84200000D02*
X61175000Y-84200000D01*
X55770000Y-89605000D02*
X55770000Y-91610000D01*
X71470000Y-71569000D02*
X71470000Y-76908082D01*
X71470000Y-76908082D02*
X64178082Y-84200000D01*
%TO.N,SWCLK-JTCK*%
X84273000Y-62100000D02*
X84545000Y-61828000D01*
X84545000Y-61828000D02*
X84545000Y-55045000D01*
X84545000Y-55045000D02*
X81200000Y-51700000D01*
%TO.N,UART_TX*%
X88000000Y-50792822D02*
X87630000Y-51162822D01*
X88000000Y-46000000D02*
X88000000Y-50792822D01*
X87630000Y-51162822D02*
X87630000Y-63720000D01*
%TO.N,UART_RX*%
X86849000Y-51038595D02*
X86860966Y-51026629D01*
X86849000Y-62920000D02*
X86849000Y-51038595D01*
%TO.N,VSHUNT2N*%
X94957000Y-87738000D02*
X90762000Y-87738000D01*
X90319000Y-88181000D02*
X90319000Y-89595178D01*
X96265000Y-86430000D02*
X94957000Y-87738000D01*
X85886000Y-91064000D02*
X83000000Y-93950000D01*
X90762000Y-87738000D02*
X90319000Y-88181000D01*
X90319000Y-89595178D02*
X88850179Y-91064000D01*
X88850179Y-91064000D02*
X85886000Y-91064000D01*
%TO.N,VSHUNT1P*%
X88800000Y-84456688D02*
X93214688Y-80042000D01*
X95033000Y-80042000D02*
X96265000Y-78810000D01*
X93214688Y-80042000D02*
X95033000Y-80042000D01*
X73166501Y-89532000D02*
X88233988Y-89532000D01*
X88800000Y-88965988D02*
X88800000Y-84456688D01*
X88233988Y-89532000D02*
X88800000Y-88965988D01*
X68012728Y-84378227D02*
X73166501Y-89532000D01*
%TO.N,VSHUNT2P*%
X94957000Y-85198000D02*
X96265000Y-83890000D01*
X88641001Y-90559000D02*
X89814000Y-89386000D01*
X89814000Y-87336000D02*
X91952000Y-85198000D01*
X89814000Y-89386000D02*
X89814000Y-87336000D01*
X77449251Y-90559000D02*
X88641001Y-90559000D01*
X91952000Y-85198000D02*
X94957000Y-85198000D01*
X76077251Y-91931000D02*
X77449251Y-90559000D01*
%TO.N,VSHUNT1N*%
X67234728Y-84700486D02*
X67234728Y-83915272D01*
X96265000Y-81350000D02*
X94957000Y-82658000D01*
X89305000Y-85795000D02*
X89305000Y-89175166D01*
X94957000Y-82658000D02*
X92442000Y-82658000D01*
X92442000Y-82658000D02*
X89305000Y-85795000D01*
X67234728Y-83915272D02*
X67800000Y-83350000D01*
X72584242Y-90050000D02*
X67234728Y-84700486D01*
X89305000Y-89175166D02*
X88430166Y-90050000D01*
X88430166Y-90050000D02*
X72584242Y-90050000D01*
%TD*%
%TA.AperFunction,Conductor*%
%TO.N,Earth*%
G36*
X95002702Y-40300617D02*
G01*
X95404202Y-40318147D01*
X95414937Y-40319087D01*
X95810693Y-40371189D01*
X95821331Y-40373064D01*
X96211043Y-40459462D01*
X96221483Y-40462260D01*
X96602168Y-40582289D01*
X96612315Y-40585982D01*
X96981102Y-40738739D01*
X96990893Y-40743305D01*
X97344942Y-40927611D01*
X97354310Y-40933019D01*
X97690959Y-41147488D01*
X97699820Y-41153693D01*
X98016487Y-41396680D01*
X98024774Y-41403634D01*
X98319056Y-41673294D01*
X98326705Y-41680943D01*
X98596365Y-41975225D01*
X98603319Y-41983512D01*
X98846306Y-42300179D01*
X98852511Y-42309040D01*
X99066980Y-42645689D01*
X99072388Y-42655057D01*
X99256691Y-43009099D01*
X99261263Y-43018903D01*
X99414013Y-43387674D01*
X99417713Y-43397840D01*
X99537738Y-43778512D01*
X99540538Y-43788960D01*
X99626933Y-44178660D01*
X99628811Y-44189314D01*
X99680910Y-44585042D01*
X99681853Y-44595818D01*
X99699382Y-44997297D01*
X99699500Y-45002706D01*
X99699500Y-67076000D01*
X99679815Y-67143039D01*
X99627011Y-67188794D01*
X99575500Y-67200000D01*
X97384258Y-67200000D01*
X97317219Y-67180315D01*
X97271464Y-67127511D01*
X97261520Y-67058353D01*
X97290545Y-66994797D01*
X97293980Y-66991107D01*
X97295109Y-66989786D01*
X97418298Y-66820229D01*
X97420051Y-66817816D01*
X97516557Y-66628412D01*
X97582246Y-66426243D01*
X97615500Y-66216287D01*
X97615500Y-66003713D01*
X97582246Y-65793757D01*
X97516557Y-65591588D01*
X97420051Y-65402184D01*
X97420049Y-65402181D01*
X97420048Y-65402179D01*
X97295109Y-65230213D01*
X97144786Y-65079890D01*
X96972820Y-64954951D01*
X96972115Y-64954591D01*
X96964054Y-64950485D01*
X96913259Y-64902512D01*
X96896463Y-64834692D01*
X96918999Y-64768556D01*
X96964054Y-64729515D01*
X96972816Y-64725051D01*
X97007281Y-64700011D01*
X97144786Y-64600109D01*
X97144788Y-64600106D01*
X97144792Y-64600104D01*
X97295104Y-64449792D01*
X97295106Y-64449788D01*
X97295109Y-64449786D01*
X97420048Y-64277820D01*
X97420047Y-64277820D01*
X97420051Y-64277816D01*
X97516557Y-64088412D01*
X97582246Y-63886243D01*
X97615500Y-63676287D01*
X97615500Y-63463713D01*
X97582246Y-63253757D01*
X97516557Y-63051588D01*
X97420051Y-62862184D01*
X97420049Y-62862181D01*
X97420048Y-62862179D01*
X97295109Y-62690213D01*
X97144786Y-62539890D01*
X96972820Y-62414951D01*
X96972115Y-62414591D01*
X96964054Y-62410485D01*
X96913259Y-62362512D01*
X96896463Y-62294692D01*
X96918999Y-62228556D01*
X96964054Y-62189515D01*
X96972816Y-62185051D01*
X96994789Y-62169086D01*
X97144786Y-62060109D01*
X97144788Y-62060106D01*
X97144792Y-62060104D01*
X97295104Y-61909792D01*
X97295106Y-61909788D01*
X97295109Y-61909786D01*
X97420048Y-61737820D01*
X97420047Y-61737820D01*
X97420051Y-61737816D01*
X97516557Y-61548412D01*
X97582246Y-61346243D01*
X97615500Y-61136287D01*
X97615500Y-60923713D01*
X97582246Y-60713757D01*
X97516557Y-60511588D01*
X97420051Y-60322184D01*
X97420049Y-60322181D01*
X97420048Y-60322179D01*
X97295109Y-60150213D01*
X97144786Y-59999890D01*
X96972820Y-59874951D01*
X96972115Y-59874591D01*
X96964054Y-59870485D01*
X96913259Y-59822512D01*
X96896463Y-59754692D01*
X96918999Y-59688556D01*
X96964054Y-59649515D01*
X96972816Y-59645051D01*
X97006560Y-59620535D01*
X97144786Y-59520109D01*
X97144788Y-59520106D01*
X97144792Y-59520104D01*
X97295104Y-59369792D01*
X97295106Y-59369788D01*
X97295109Y-59369786D01*
X97420048Y-59197820D01*
X97420047Y-59197820D01*
X97420051Y-59197816D01*
X97516557Y-59008412D01*
X97582246Y-58806243D01*
X97615500Y-58596287D01*
X97615500Y-58383713D01*
X97582246Y-58173757D01*
X97516557Y-57971588D01*
X97420051Y-57782184D01*
X97420049Y-57782181D01*
X97420048Y-57782179D01*
X97295109Y-57610213D01*
X97144786Y-57459890D01*
X96972817Y-57334949D01*
X96963504Y-57330204D01*
X96912707Y-57282230D01*
X96895912Y-57214409D01*
X96918449Y-57148274D01*
X96963507Y-57109232D01*
X96972555Y-57104622D01*
X97026716Y-57065270D01*
X97026717Y-57065270D01*
X96394408Y-56432962D01*
X96457993Y-56415925D01*
X96572007Y-56350099D01*
X96665099Y-56257007D01*
X96730925Y-56142993D01*
X96747962Y-56079409D01*
X97380270Y-56711717D01*
X97380270Y-56711716D01*
X97419622Y-56657554D01*
X97516095Y-56468217D01*
X97581757Y-56266130D01*
X97581757Y-56266127D01*
X97615000Y-56056246D01*
X97615000Y-55843753D01*
X97581757Y-55633872D01*
X97581757Y-55633869D01*
X97516095Y-55431782D01*
X97419624Y-55242449D01*
X97380270Y-55188282D01*
X97380269Y-55188282D01*
X96747962Y-55820590D01*
X96730925Y-55757007D01*
X96665099Y-55642993D01*
X96572007Y-55549901D01*
X96457993Y-55484075D01*
X96394409Y-55467037D01*
X97026716Y-54834728D01*
X96972550Y-54795375D01*
X96783217Y-54698904D01*
X96581129Y-54633242D01*
X96371246Y-54600000D01*
X96158754Y-54600000D01*
X95948872Y-54633242D01*
X95948869Y-54633242D01*
X95746782Y-54698904D01*
X95557439Y-54795380D01*
X95503282Y-54834727D01*
X95503282Y-54834728D01*
X96135591Y-55467037D01*
X96072007Y-55484075D01*
X95957993Y-55549901D01*
X95864901Y-55642993D01*
X95799075Y-55757007D01*
X95782037Y-55820591D01*
X95149728Y-55188282D01*
X95149727Y-55188282D01*
X95110380Y-55242440D01*
X95110376Y-55242446D01*
X95105760Y-55251505D01*
X95057781Y-55302297D01*
X94989959Y-55319087D01*
X94923826Y-55296543D01*
X94884794Y-55251493D01*
X94880051Y-55242184D01*
X94880049Y-55242181D01*
X94880048Y-55242179D01*
X94755109Y-55070213D01*
X94604786Y-54919890D01*
X94432820Y-54794951D01*
X94243414Y-54698444D01*
X94243413Y-54698443D01*
X94243412Y-54698443D01*
X94041243Y-54632754D01*
X94041241Y-54632753D01*
X94041240Y-54632753D01*
X93879957Y-54607208D01*
X93831287Y-54599500D01*
X93618713Y-54599500D01*
X93570042Y-54607208D01*
X93408760Y-54632753D01*
X93206585Y-54698444D01*
X93017179Y-54794951D01*
X92845213Y-54919890D01*
X92694890Y-55070213D01*
X92569951Y-55242179D01*
X92473444Y-55431585D01*
X92407753Y-55633760D01*
X92374500Y-55843713D01*
X92374500Y-56056286D01*
X92407753Y-56266239D01*
X92473444Y-56468414D01*
X92569951Y-56657820D01*
X92694890Y-56829786D01*
X92845213Y-56980109D01*
X93017182Y-57105050D01*
X93025946Y-57109516D01*
X93076742Y-57157491D01*
X93093536Y-57225312D01*
X93070998Y-57291447D01*
X93025946Y-57330484D01*
X93017182Y-57334949D01*
X92845213Y-57459890D01*
X92694890Y-57610213D01*
X92569951Y-57782179D01*
X92473444Y-57971585D01*
X92407753Y-58173760D01*
X92374500Y-58383713D01*
X92374500Y-58596286D01*
X92407753Y-58806240D01*
X92407754Y-58806245D01*
X92412128Y-58819707D01*
X92414121Y-58889549D01*
X92381877Y-58945702D01*
X91639025Y-59688556D01*
X91405158Y-59922423D01*
X91363094Y-59964487D01*
X91317752Y-60009828D01*
X91317751Y-60009830D01*
X91248399Y-60113623D01*
X91246752Y-60118227D01*
X91201780Y-60226798D01*
X91201778Y-60226806D01*
X91177666Y-60348026D01*
X91177666Y-61293884D01*
X91157981Y-61360923D01*
X91141347Y-61381565D01*
X88742181Y-63780731D01*
X88680858Y-63814216D01*
X88611166Y-63809232D01*
X88555233Y-63767360D01*
X88530816Y-63701896D01*
X88530500Y-63693050D01*
X88530500Y-63631306D01*
X88530499Y-63631304D01*
X88495896Y-63457341D01*
X88495893Y-63457332D01*
X88428016Y-63293459D01*
X88428009Y-63293446D01*
X88329464Y-63145965D01*
X88329461Y-63145961D01*
X88293819Y-63110319D01*
X88260334Y-63048996D01*
X88257500Y-63022638D01*
X88257500Y-51474103D01*
X88277185Y-51407064D01*
X88293819Y-51386422D01*
X88487408Y-51192833D01*
X88487411Y-51192830D01*
X88512096Y-51155886D01*
X88556083Y-51090055D01*
X88571602Y-51052589D01*
X88603386Y-50975857D01*
X88627500Y-50854625D01*
X88627500Y-50731019D01*
X88627500Y-49524500D01*
X88647185Y-49457461D01*
X88699989Y-49411706D01*
X88751500Y-49400500D01*
X88869693Y-49400500D01*
X88869694Y-49400499D01*
X88934503Y-49387608D01*
X89043658Y-49365896D01*
X89043661Y-49365894D01*
X89043666Y-49365894D01*
X89207547Y-49298013D01*
X89355035Y-49199464D01*
X89480464Y-49074035D01*
X89579013Y-48926547D01*
X89646894Y-48762666D01*
X89681500Y-48588691D01*
X89681500Y-48411309D01*
X89681500Y-48411306D01*
X89681499Y-48411304D01*
X89646896Y-48237341D01*
X89646893Y-48237332D01*
X89579016Y-48073459D01*
X89579009Y-48073446D01*
X89480464Y-47925965D01*
X89480461Y-47925961D01*
X89444819Y-47890319D01*
X89411334Y-47828996D01*
X89408500Y-47802638D01*
X89408500Y-45613279D01*
X89388996Y-45515233D01*
X89388996Y-45515232D01*
X89384385Y-45492049D01*
X89337083Y-45377851D01*
X89337082Y-45377850D01*
X89337079Y-45377844D01*
X89268411Y-45275076D01*
X89268408Y-45275072D01*
X88723926Y-44730590D01*
X88681218Y-44702054D01*
X88677396Y-44699500D01*
X88621149Y-44661917D01*
X88587700Y-44648062D01*
X88580680Y-44645154D01*
X88580678Y-44645153D01*
X88506951Y-44614614D01*
X88506943Y-44614612D01*
X88385723Y-44590500D01*
X88385719Y-44590500D01*
X61843803Y-44590500D01*
X61720196Y-44590500D01*
X61720194Y-44590500D01*
X61598970Y-44614613D01*
X61598960Y-44614616D01*
X61484773Y-44661913D01*
X61484760Y-44661920D01*
X61381992Y-44730588D01*
X61381988Y-44730591D01*
X50680996Y-55431585D01*
X47224992Y-58887589D01*
X47181289Y-58931292D01*
X47137586Y-58974994D01*
X47137585Y-58974996D01*
X47068233Y-59078789D01*
X47066586Y-59083393D01*
X47021614Y-59191964D01*
X47021612Y-59191972D01*
X47002391Y-59288600D01*
X47002392Y-59288601D01*
X46997500Y-59313196D01*
X46997500Y-75186807D01*
X47021612Y-75308028D01*
X47021613Y-75308032D01*
X47021614Y-75308035D01*
X47034061Y-75338083D01*
X47068917Y-75422233D01*
X47112468Y-75487411D01*
X47116075Y-75492809D01*
X47116077Y-75492813D01*
X47137590Y-75525010D01*
X47137593Y-75525013D01*
X48488181Y-76875600D01*
X48521666Y-76936923D01*
X48524500Y-76963281D01*
X48524500Y-78150001D01*
X48524501Y-78150006D01*
X48535000Y-78252796D01*
X48535001Y-78252799D01*
X48582441Y-78395961D01*
X48590186Y-78419334D01*
X48682288Y-78568656D01*
X48806344Y-78692712D01*
X48955666Y-78784814D01*
X49122203Y-78839999D01*
X49224991Y-78850500D01*
X50775008Y-78850499D01*
X50877797Y-78839999D01*
X51044334Y-78784814D01*
X51193656Y-78692712D01*
X51317712Y-78568656D01*
X51409814Y-78419334D01*
X51464999Y-78252797D01*
X51475500Y-78150009D01*
X51475499Y-76911304D01*
X61599500Y-76911304D01*
X61599500Y-77088695D01*
X61634103Y-77262658D01*
X61634106Y-77262667D01*
X61701983Y-77426540D01*
X61701990Y-77426553D01*
X61800535Y-77574034D01*
X61800538Y-77574038D01*
X61925961Y-77699461D01*
X61925965Y-77699464D01*
X62073446Y-77798009D01*
X62073459Y-77798016D01*
X62125774Y-77819685D01*
X62237334Y-77865894D01*
X62237336Y-77865894D01*
X62237341Y-77865896D01*
X62411304Y-77900499D01*
X62411307Y-77900500D01*
X62411309Y-77900500D01*
X62588693Y-77900500D01*
X62588694Y-77900499D01*
X62646682Y-77888964D01*
X62762658Y-77865896D01*
X62762661Y-77865894D01*
X62762666Y-77865894D01*
X62926547Y-77798013D01*
X63074035Y-77699464D01*
X63199464Y-77574035D01*
X63298013Y-77426547D01*
X63365894Y-77262666D01*
X63368974Y-77247185D01*
X63400499Y-77088695D01*
X63400500Y-77088693D01*
X63400500Y-76911306D01*
X63400499Y-76911304D01*
X63365896Y-76737341D01*
X63365893Y-76737332D01*
X63298016Y-76573459D01*
X63298009Y-76573446D01*
X63199464Y-76425965D01*
X63199461Y-76425961D01*
X63074038Y-76300538D01*
X63074034Y-76300535D01*
X62926553Y-76201990D01*
X62926540Y-76201983D01*
X62762667Y-76134106D01*
X62762658Y-76134103D01*
X62588694Y-76099500D01*
X62588691Y-76099500D01*
X62411309Y-76099500D01*
X62411306Y-76099500D01*
X62237341Y-76134103D01*
X62237332Y-76134106D01*
X62073459Y-76201983D01*
X62073446Y-76201990D01*
X61925965Y-76300535D01*
X61925961Y-76300538D01*
X61800538Y-76425961D01*
X61800535Y-76425965D01*
X61701990Y-76573446D01*
X61701983Y-76573459D01*
X61634106Y-76737332D01*
X61634103Y-76737341D01*
X61599500Y-76911304D01*
X51475499Y-76911304D01*
X51475499Y-76849992D01*
X51464999Y-76747203D01*
X51409814Y-76580666D01*
X51317712Y-76431344D01*
X51193656Y-76307288D01*
X51044334Y-76215186D01*
X51044333Y-76215185D01*
X51038878Y-76211821D01*
X50992154Y-76159873D01*
X50980931Y-76090910D01*
X51008775Y-76026828D01*
X51016272Y-76018623D01*
X51155104Y-75879792D01*
X51280051Y-75707816D01*
X51376557Y-75518412D01*
X51442246Y-75316243D01*
X51475500Y-75106287D01*
X51475500Y-74893713D01*
X51442246Y-74683757D01*
X51376557Y-74481588D01*
X51280051Y-74292184D01*
X51280049Y-74292181D01*
X51280048Y-74292179D01*
X51155109Y-74120213D01*
X51004790Y-73969894D01*
X51004785Y-73969890D01*
X50839781Y-73850008D01*
X50797115Y-73794678D01*
X50791136Y-73725065D01*
X50823741Y-73663270D01*
X50839781Y-73649371D01*
X51004466Y-73529721D01*
X51154723Y-73379464D01*
X51154727Y-73379459D01*
X51279620Y-73207557D01*
X51376095Y-73018217D01*
X51441757Y-72816129D01*
X51441757Y-72816126D01*
X51452231Y-72750000D01*
X50404146Y-72750000D01*
X50442630Y-72683343D01*
X50475000Y-72562535D01*
X50475000Y-72437465D01*
X50442630Y-72316657D01*
X50404146Y-72250000D01*
X51452231Y-72250000D01*
X51441757Y-72183873D01*
X51441757Y-72183870D01*
X51376095Y-71981782D01*
X51279620Y-71792442D01*
X51154727Y-71620540D01*
X51154723Y-71620535D01*
X51004464Y-71470276D01*
X51004459Y-71470272D01*
X50832557Y-71345379D01*
X50643217Y-71248904D01*
X50441128Y-71183242D01*
X50250000Y-71152969D01*
X50250000Y-72095854D01*
X50183343Y-72057370D01*
X50062535Y-72025000D01*
X49937465Y-72025000D01*
X49816657Y-72057370D01*
X49750000Y-72095854D01*
X49750000Y-71152969D01*
X49558872Y-71183242D01*
X49558869Y-71183242D01*
X49356782Y-71248904D01*
X49167442Y-71345379D01*
X48995540Y-71470272D01*
X48995535Y-71470276D01*
X48973181Y-71492631D01*
X48911858Y-71526116D01*
X48842166Y-71521132D01*
X48786233Y-71479260D01*
X48761816Y-71413796D01*
X48761500Y-71404950D01*
X48761500Y-67673991D01*
X48781185Y-67606952D01*
X48833989Y-67561197D01*
X48903147Y-67551253D01*
X48966703Y-67580278D01*
X48973181Y-67586310D01*
X51595879Y-70209008D01*
X51662758Y-70275887D01*
X51683283Y-70296412D01*
X51786050Y-70365079D01*
X51786063Y-70365086D01*
X51814061Y-70376683D01*
X51814062Y-70376683D01*
X51900256Y-70412386D01*
X52021482Y-70436499D01*
X52021486Y-70436500D01*
X52021487Y-70436500D01*
X52145093Y-70436500D01*
X56126000Y-70436500D01*
X56193039Y-70456185D01*
X56238794Y-70508989D01*
X56250000Y-70560500D01*
X56250000Y-71200000D01*
X56703462Y-71562770D01*
X56743514Y-71620019D01*
X56750000Y-71659597D01*
X56750000Y-72600000D01*
X57350000Y-73200000D01*
X60350000Y-73200000D01*
X61000000Y-72550000D01*
X61000000Y-71200000D01*
X60700000Y-71200000D01*
X60700000Y-72498638D01*
X60680315Y-72565677D01*
X60663681Y-72586319D01*
X60386319Y-72863681D01*
X60324996Y-72897166D01*
X60298638Y-72900000D01*
X57401362Y-72900000D01*
X57334323Y-72880315D01*
X57313681Y-72863681D01*
X57086319Y-72636319D01*
X57052834Y-72574996D01*
X57050000Y-72548638D01*
X57050000Y-71600000D01*
X56596538Y-71237230D01*
X56556486Y-71179979D01*
X56550000Y-71140402D01*
X56550000Y-70560500D01*
X56569685Y-70493461D01*
X56622489Y-70447706D01*
X56674000Y-70436500D01*
X71288658Y-70436500D01*
X71355697Y-70456185D01*
X71401452Y-70508989D01*
X71411396Y-70578147D01*
X71382371Y-70641703D01*
X71323593Y-70679477D01*
X71312849Y-70682117D01*
X71207341Y-70703103D01*
X71207332Y-70703106D01*
X71043459Y-70770983D01*
X71043446Y-70770990D01*
X70895965Y-70869535D01*
X70895961Y-70869538D01*
X70770538Y-70994961D01*
X70770535Y-70994965D01*
X70671990Y-71142446D01*
X70671983Y-71142459D01*
X70604106Y-71306332D01*
X70604103Y-71306341D01*
X70569500Y-71480304D01*
X70569500Y-71657695D01*
X70604103Y-71831658D01*
X70604106Y-71831667D01*
X70671983Y-71995540D01*
X70671990Y-71995553D01*
X70770535Y-72143034D01*
X70770538Y-72143038D01*
X70806180Y-72178679D01*
X70839666Y-72240001D01*
X70842500Y-72266361D01*
X70842500Y-76596801D01*
X70822815Y-76663840D01*
X70806181Y-76684482D01*
X63954482Y-83536181D01*
X63893159Y-83569666D01*
X63866801Y-83572500D01*
X61113195Y-83572500D01*
X60991970Y-83596613D01*
X60991960Y-83596616D01*
X60877773Y-83643913D01*
X60877760Y-83643920D01*
X60774992Y-83712588D01*
X60774988Y-83712591D01*
X56712710Y-87774871D01*
X55369992Y-89117589D01*
X55282589Y-89204992D01*
X55213916Y-89307769D01*
X55200061Y-89341214D01*
X55200062Y-89341215D01*
X55166614Y-89421964D01*
X55166612Y-89421972D01*
X55146701Y-89522069D01*
X55146702Y-89522070D01*
X55142500Y-89543196D01*
X55142500Y-90912638D01*
X55122815Y-90979677D01*
X55106181Y-91000319D01*
X55070538Y-91035961D01*
X55070535Y-91035965D01*
X54971990Y-91183446D01*
X54971983Y-91183459D01*
X54904106Y-91347332D01*
X54904103Y-91347341D01*
X54869500Y-91521304D01*
X54869500Y-91698695D01*
X54904103Y-91872658D01*
X54904106Y-91872667D01*
X54971983Y-92036540D01*
X54971990Y-92036553D01*
X55070535Y-92184034D01*
X55070538Y-92184038D01*
X55195961Y-92309461D01*
X55195965Y-92309464D01*
X55343446Y-92408009D01*
X55343459Y-92408016D01*
X55466363Y-92458923D01*
X55507334Y-92475894D01*
X55507336Y-92475894D01*
X55507341Y-92475896D01*
X55681304Y-92510499D01*
X55681307Y-92510500D01*
X55681309Y-92510500D01*
X55858693Y-92510500D01*
X55858694Y-92510499D01*
X55916682Y-92498964D01*
X56032658Y-92475896D01*
X56032661Y-92475894D01*
X56032666Y-92475894D01*
X56196547Y-92408013D01*
X56344035Y-92309464D01*
X56469464Y-92184035D01*
X56568013Y-92036547D01*
X56635894Y-91872666D01*
X56640510Y-91849464D01*
X56670499Y-91698695D01*
X56670500Y-91698693D01*
X56670500Y-91521306D01*
X56670499Y-91521304D01*
X56635896Y-91347341D01*
X56635893Y-91347332D01*
X56627946Y-91328147D01*
X56599301Y-91258989D01*
X56568016Y-91183459D01*
X56568009Y-91183446D01*
X56469464Y-91035965D01*
X56469461Y-91035961D01*
X56433819Y-91000319D01*
X56400334Y-90938996D01*
X56397500Y-90912638D01*
X56397500Y-89916280D01*
X56417185Y-89849241D01*
X56433814Y-89828604D01*
X60656778Y-85605639D01*
X60718101Y-85572155D01*
X60787793Y-85577139D01*
X60832140Y-85605640D01*
X60925961Y-85699461D01*
X60925965Y-85699464D01*
X61073446Y-85798009D01*
X61073459Y-85798016D01*
X61195157Y-85848424D01*
X61237334Y-85865894D01*
X61237336Y-85865894D01*
X61237341Y-85865896D01*
X61411304Y-85900499D01*
X61411307Y-85900500D01*
X61411309Y-85900500D01*
X61588693Y-85900500D01*
X61588694Y-85900499D01*
X61646682Y-85888964D01*
X61762658Y-85865896D01*
X61762661Y-85865894D01*
X61762666Y-85865894D01*
X61926547Y-85798013D01*
X62074035Y-85699464D01*
X62199464Y-85574035D01*
X62298013Y-85426547D01*
X62303603Y-85413050D01*
X62347442Y-85358646D01*
X62413735Y-85336579D01*
X62418165Y-85336500D01*
X63294469Y-85336500D01*
X63361508Y-85356185D01*
X63407263Y-85408989D01*
X63417207Y-85478147D01*
X63388182Y-85541703D01*
X63382150Y-85548181D01*
X62199992Y-86730339D01*
X62156289Y-86774042D01*
X62112586Y-86817744D01*
X62112585Y-86817746D01*
X62043233Y-86921539D01*
X62041586Y-86926143D01*
X61996614Y-87034714D01*
X61996612Y-87034722D01*
X61973203Y-87152401D01*
X61973204Y-87152402D01*
X61972501Y-87155935D01*
X61972500Y-87155951D01*
X61972500Y-89452638D01*
X61952815Y-89519677D01*
X61936181Y-89540319D01*
X61900538Y-89575961D01*
X61900535Y-89575965D01*
X61801990Y-89723446D01*
X61801983Y-89723459D01*
X61734106Y-89887332D01*
X61734103Y-89887341D01*
X61699500Y-90061304D01*
X61699500Y-90238695D01*
X61734103Y-90412658D01*
X61734106Y-90412667D01*
X61801983Y-90576540D01*
X61801990Y-90576553D01*
X61900535Y-90724034D01*
X61900538Y-90724038D01*
X62025961Y-90849461D01*
X62025965Y-90849464D01*
X62173446Y-90948009D01*
X62173459Y-90948016D01*
X62249897Y-90979677D01*
X62337334Y-91015894D01*
X62337336Y-91015894D01*
X62337341Y-91015896D01*
X62511304Y-91050499D01*
X62511307Y-91050500D01*
X62511309Y-91050500D01*
X62688693Y-91050500D01*
X62688694Y-91050499D01*
X62761783Y-91035961D01*
X62862658Y-91015896D01*
X62862661Y-91015894D01*
X62862666Y-91015894D01*
X63016953Y-90951987D01*
X63026540Y-90948016D01*
X63026540Y-90948015D01*
X63026547Y-90948013D01*
X63174035Y-90849464D01*
X63299464Y-90724035D01*
X63398013Y-90576547D01*
X63465894Y-90412666D01*
X63472719Y-90378358D01*
X63497694Y-90252796D01*
X63500500Y-90238691D01*
X63500500Y-90061309D01*
X63500500Y-90061306D01*
X63500499Y-90061304D01*
X63465896Y-89887341D01*
X63465893Y-89887332D01*
X63456609Y-89864919D01*
X63448923Y-89846363D01*
X63398016Y-89723459D01*
X63398009Y-89723446D01*
X63299464Y-89575965D01*
X63299461Y-89575961D01*
X63263819Y-89540319D01*
X63230334Y-89478996D01*
X63227500Y-89452638D01*
X63227500Y-87529031D01*
X63247185Y-87461992D01*
X63263819Y-87441350D01*
X66395547Y-84309622D01*
X66456870Y-84276137D01*
X66526562Y-84281121D01*
X66582495Y-84322993D01*
X66606912Y-84388457D01*
X66607228Y-84397303D01*
X66607228Y-84762293D01*
X66631340Y-84883513D01*
X66631342Y-84883521D01*
X66664790Y-84964271D01*
X66678643Y-84997715D01*
X66678645Y-84997719D01*
X66746314Y-85098993D01*
X66747317Y-85100494D01*
X72096831Y-90450008D01*
X72137975Y-90491152D01*
X72168185Y-90521362D01*
X72201669Y-90582686D01*
X72196684Y-90652377D01*
X72154813Y-90708311D01*
X72149395Y-90712144D01*
X72025967Y-90794617D01*
X72025961Y-90794622D01*
X71900538Y-90920045D01*
X71900535Y-90920049D01*
X71801990Y-91067530D01*
X71801983Y-91067543D01*
X71734106Y-91231416D01*
X71734103Y-91231425D01*
X71699500Y-91405388D01*
X71699500Y-91582779D01*
X71734103Y-91756742D01*
X71734106Y-91756751D01*
X71801983Y-91920624D01*
X71801990Y-91920637D01*
X71900535Y-92068118D01*
X71900538Y-92068122D01*
X72025961Y-92193545D01*
X72025965Y-92193548D01*
X72173446Y-92292093D01*
X72173459Y-92292100D01*
X72250559Y-92324035D01*
X72337334Y-92359978D01*
X72337336Y-92359978D01*
X72337341Y-92359980D01*
X72511304Y-92394583D01*
X72511307Y-92394584D01*
X72511309Y-92394584D01*
X72688693Y-92394584D01*
X72688694Y-92394583D01*
X72746682Y-92383048D01*
X72862658Y-92359980D01*
X72862661Y-92359978D01*
X72862666Y-92359978D01*
X73026547Y-92292097D01*
X73174035Y-92193548D01*
X73299464Y-92068119D01*
X73398013Y-91920631D01*
X73465894Y-91756750D01*
X73472402Y-91724035D01*
X73500499Y-91582779D01*
X73500500Y-91582777D01*
X73500500Y-91405390D01*
X73500499Y-91405388D01*
X73465896Y-91231425D01*
X73465893Y-91231416D01*
X73398016Y-91067543D01*
X73398009Y-91067530D01*
X73299464Y-90920049D01*
X73299461Y-90920045D01*
X73268597Y-90889181D01*
X73235112Y-90827858D01*
X73240096Y-90758166D01*
X73281968Y-90702233D01*
X73347432Y-90677816D01*
X73356278Y-90677500D01*
X74035443Y-90677500D01*
X74102482Y-90697185D01*
X74148237Y-90749989D01*
X74158181Y-90819147D01*
X74150006Y-90848946D01*
X74134106Y-90887334D01*
X74134105Y-90887338D01*
X74134104Y-90887341D01*
X74134103Y-90887341D01*
X74099500Y-91061304D01*
X74099500Y-91238695D01*
X74134103Y-91412658D01*
X74134106Y-91412667D01*
X74201983Y-91576540D01*
X74201990Y-91576553D01*
X74300535Y-91724034D01*
X74300538Y-91724038D01*
X74425961Y-91849461D01*
X74425965Y-91849464D01*
X74573446Y-91948009D01*
X74573459Y-91948016D01*
X74696363Y-91998923D01*
X74737334Y-92015894D01*
X74737336Y-92015894D01*
X74737341Y-92015896D01*
X74911304Y-92050499D01*
X74911307Y-92050500D01*
X75081115Y-92050500D01*
X75148154Y-92070185D01*
X75193909Y-92122989D01*
X75202732Y-92150308D01*
X75211355Y-92193659D01*
X75211357Y-92193667D01*
X75279234Y-92357540D01*
X75279241Y-92357553D01*
X75377786Y-92505034D01*
X75377789Y-92505038D01*
X75503212Y-92630461D01*
X75503216Y-92630464D01*
X75650697Y-92729009D01*
X75650710Y-92729016D01*
X75773614Y-92779923D01*
X75814585Y-92796894D01*
X75814587Y-92796894D01*
X75814592Y-92796896D01*
X75988555Y-92831499D01*
X75988558Y-92831500D01*
X75988560Y-92831500D01*
X76165944Y-92831500D01*
X76165945Y-92831499D01*
X76241256Y-92816519D01*
X76339909Y-92796896D01*
X76339912Y-92796894D01*
X76339917Y-92796894D01*
X76503798Y-92729013D01*
X76651286Y-92630464D01*
X76776715Y-92505035D01*
X76875264Y-92357547D01*
X76943145Y-92193666D01*
X76943145Y-92193661D01*
X76943147Y-92193658D01*
X76974398Y-92036547D01*
X76977751Y-92019691D01*
X76977751Y-91969281D01*
X76997436Y-91902242D01*
X77014070Y-91881600D01*
X77672851Y-91222819D01*
X77734174Y-91189334D01*
X77760532Y-91186500D01*
X84576719Y-91186500D01*
X84643758Y-91206185D01*
X84689513Y-91258989D01*
X84699457Y-91328147D01*
X84670432Y-91391703D01*
X84664400Y-91398181D01*
X83049400Y-93013181D01*
X82988077Y-93046666D01*
X82961719Y-93049500D01*
X82911306Y-93049500D01*
X82737341Y-93084103D01*
X82737332Y-93084106D01*
X82573459Y-93151983D01*
X82573446Y-93151990D01*
X82425965Y-93250535D01*
X82425961Y-93250538D01*
X82300538Y-93375961D01*
X82300535Y-93375965D01*
X82201990Y-93523446D01*
X82201983Y-93523459D01*
X82134106Y-93687332D01*
X82134103Y-93687341D01*
X82099500Y-93861304D01*
X82099500Y-94038695D01*
X82134103Y-94212658D01*
X82134106Y-94212667D01*
X82201983Y-94376540D01*
X82201990Y-94376553D01*
X82300535Y-94524034D01*
X82300538Y-94524038D01*
X82425961Y-94649461D01*
X82425965Y-94649464D01*
X82573446Y-94748009D01*
X82573459Y-94748016D01*
X82696363Y-94798923D01*
X82737334Y-94815894D01*
X82737336Y-94815894D01*
X82737341Y-94815896D01*
X82911304Y-94850499D01*
X82911307Y-94850500D01*
X82911309Y-94850500D01*
X83088693Y-94850500D01*
X83088694Y-94850499D01*
X83146682Y-94838964D01*
X83262658Y-94815896D01*
X83262661Y-94815894D01*
X83262666Y-94815894D01*
X83426547Y-94748013D01*
X83574035Y-94649464D01*
X83699464Y-94524035D01*
X83798013Y-94376547D01*
X83865894Y-94212666D01*
X83900500Y-94038691D01*
X83900500Y-93988281D01*
X83920185Y-93921242D01*
X83936819Y-93900600D01*
X86109600Y-91727819D01*
X86170923Y-91694334D01*
X86197281Y-91691500D01*
X88911984Y-91691500D01*
X88993540Y-91675276D01*
X89033214Y-91667385D01*
X89047895Y-91661304D01*
X89799500Y-91661304D01*
X89799500Y-91838695D01*
X89834103Y-92012658D01*
X89834106Y-92012667D01*
X89901983Y-92176540D01*
X89901990Y-92176553D01*
X90000535Y-92324034D01*
X90000538Y-92324038D01*
X90125961Y-92449461D01*
X90125965Y-92449464D01*
X90273446Y-92548009D01*
X90273459Y-92548016D01*
X90396363Y-92598923D01*
X90437334Y-92615894D01*
X90437336Y-92615894D01*
X90437341Y-92615896D01*
X90611304Y-92650499D01*
X90611307Y-92650500D01*
X90611309Y-92650500D01*
X90788693Y-92650500D01*
X90788694Y-92650499D01*
X90853312Y-92637646D01*
X90962658Y-92615896D01*
X90962661Y-92615894D01*
X90962666Y-92615894D01*
X91126547Y-92548013D01*
X91274035Y-92449464D01*
X91399464Y-92324035D01*
X91498013Y-92176547D01*
X91565894Y-92012666D01*
X91578755Y-91948013D01*
X91593742Y-91872666D01*
X91600500Y-91838691D01*
X91600500Y-91661309D01*
X91600500Y-91661306D01*
X91600499Y-91661304D01*
X91565896Y-91487341D01*
X91565893Y-91487332D01*
X91498016Y-91323459D01*
X91498009Y-91323446D01*
X91399464Y-91175965D01*
X91399461Y-91175961D01*
X91274038Y-91050538D01*
X91274034Y-91050535D01*
X91126553Y-90951990D01*
X91126540Y-90951983D01*
X90962667Y-90884106D01*
X90962658Y-90884103D01*
X90788694Y-90849500D01*
X90788691Y-90849500D01*
X90611309Y-90849500D01*
X90611306Y-90849500D01*
X90437341Y-90884103D01*
X90437332Y-90884106D01*
X90273459Y-90951983D01*
X90273446Y-90951990D01*
X90125965Y-91050535D01*
X90125961Y-91050538D01*
X90000538Y-91175961D01*
X90000535Y-91175965D01*
X89901990Y-91323446D01*
X89901983Y-91323459D01*
X89834106Y-91487332D01*
X89834103Y-91487341D01*
X89799500Y-91661304D01*
X89047895Y-91661304D01*
X89147412Y-91620083D01*
X89250187Y-91551411D01*
X90806411Y-89995186D01*
X90811081Y-89988197D01*
X90875083Y-89892411D01*
X90905063Y-89820032D01*
X90948900Y-89765632D01*
X91015194Y-89743566D01*
X91082893Y-89760844D01*
X91114102Y-89787179D01*
X92355443Y-91247581D01*
X92383863Y-91311409D01*
X92383436Y-91347286D01*
X92374500Y-91403707D01*
X92374500Y-91403713D01*
X92374500Y-91616287D01*
X92396747Y-91756750D01*
X92398473Y-91767644D01*
X92400000Y-91787042D01*
X92400000Y-92800000D01*
X92410232Y-92810232D01*
X92443717Y-92871555D01*
X92438733Y-92941247D01*
X92431383Y-92957340D01*
X92431204Y-92957667D01*
X92380908Y-93092517D01*
X92374501Y-93152116D01*
X92374500Y-93152135D01*
X92374500Y-94947870D01*
X92374501Y-94947876D01*
X92380908Y-95007483D01*
X92431202Y-95142328D01*
X92431206Y-95142335D01*
X92517452Y-95257544D01*
X92517455Y-95257547D01*
X92632664Y-95343793D01*
X92632671Y-95343797D01*
X92767517Y-95394091D01*
X92767516Y-95394091D01*
X92774444Y-95394835D01*
X92827127Y-95400500D01*
X94622872Y-95400499D01*
X94682483Y-95394091D01*
X94817331Y-95343796D01*
X94932546Y-95257546D01*
X95018796Y-95142331D01*
X95069091Y-95007483D01*
X95075500Y-94947873D01*
X95075499Y-94923979D01*
X95078330Y-94910963D01*
X95088940Y-94891525D01*
X95095179Y-94870275D01*
X95111803Y-94849643D01*
X95111808Y-94849636D01*
X95111811Y-94849634D01*
X95111818Y-94849626D01*
X95782037Y-94179408D01*
X95799075Y-94242993D01*
X95864901Y-94357007D01*
X95957993Y-94450099D01*
X96072007Y-94515925D01*
X96135590Y-94532962D01*
X95503282Y-95165269D01*
X95503282Y-95165270D01*
X95557449Y-95204624D01*
X95746782Y-95301095D01*
X95948870Y-95366757D01*
X96158754Y-95400000D01*
X96371246Y-95400000D01*
X96581127Y-95366757D01*
X96581130Y-95366757D01*
X96783217Y-95301095D01*
X96972554Y-95204622D01*
X97026716Y-95165270D01*
X97026717Y-95165270D01*
X96394408Y-94532962D01*
X96457993Y-94515925D01*
X96572007Y-94450099D01*
X96665099Y-94357007D01*
X96730925Y-94242993D01*
X96747962Y-94179409D01*
X97380270Y-94811717D01*
X97380270Y-94811716D01*
X97419622Y-94757554D01*
X97516095Y-94568217D01*
X97581757Y-94366130D01*
X97581757Y-94366127D01*
X97615000Y-94156246D01*
X97615000Y-93943753D01*
X97581757Y-93733872D01*
X97581757Y-93733869D01*
X97516095Y-93531782D01*
X97419624Y-93342449D01*
X97380270Y-93288282D01*
X97380269Y-93288282D01*
X96747962Y-93920590D01*
X96730925Y-93857007D01*
X96665099Y-93742993D01*
X96572007Y-93649901D01*
X96457993Y-93584075D01*
X96394409Y-93567037D01*
X97026716Y-92934728D01*
X96972547Y-92895373D01*
X96972547Y-92895372D01*
X96963500Y-92890763D01*
X96912706Y-92842788D01*
X96895912Y-92774966D01*
X96918451Y-92708832D01*
X96963508Y-92669793D01*
X96972816Y-92665051D01*
X97097886Y-92574183D01*
X97144786Y-92540109D01*
X97144788Y-92540106D01*
X97144792Y-92540104D01*
X97295104Y-92389792D01*
X97295106Y-92389788D01*
X97295109Y-92389786D01*
X97420048Y-92217820D01*
X97420047Y-92217820D01*
X97420051Y-92217816D01*
X97516557Y-92028412D01*
X97582246Y-91826243D01*
X97615500Y-91616287D01*
X97615500Y-91403713D01*
X97582246Y-91193757D01*
X97516557Y-90991588D01*
X97420051Y-90802184D01*
X97420049Y-90802181D01*
X97420048Y-90802179D01*
X97295109Y-90630213D01*
X97144786Y-90479890D01*
X96972820Y-90354951D01*
X96972115Y-90354591D01*
X96964054Y-90350485D01*
X96913259Y-90302512D01*
X96896463Y-90234692D01*
X96918999Y-90168556D01*
X96964054Y-90129515D01*
X96972816Y-90125051D01*
X97087310Y-90041867D01*
X97144786Y-90000109D01*
X97144788Y-90000106D01*
X97144792Y-90000104D01*
X97295104Y-89849792D01*
X97295106Y-89849788D01*
X97295109Y-89849786D01*
X97420048Y-89677820D01*
X97420047Y-89677820D01*
X97420051Y-89677816D01*
X97516557Y-89488412D01*
X97582246Y-89286243D01*
X97615500Y-89076287D01*
X97615500Y-88863713D01*
X97582246Y-88653757D01*
X97516557Y-88451588D01*
X97420051Y-88262184D01*
X97420049Y-88262181D01*
X97420048Y-88262179D01*
X97295109Y-88090213D01*
X97144786Y-87939890D01*
X96972820Y-87814951D01*
X96971309Y-87814181D01*
X96964054Y-87810485D01*
X96913259Y-87762512D01*
X96896463Y-87694692D01*
X96918999Y-87628556D01*
X96964054Y-87589515D01*
X96972816Y-87585051D01*
X96994789Y-87569086D01*
X97144786Y-87460109D01*
X97144788Y-87460106D01*
X97144792Y-87460104D01*
X97295104Y-87309792D01*
X97295106Y-87309788D01*
X97295109Y-87309786D01*
X97420048Y-87137820D01*
X97420047Y-87137820D01*
X97420051Y-87137816D01*
X97516557Y-86948412D01*
X97582246Y-86746243D01*
X97615500Y-86536287D01*
X97615500Y-86323713D01*
X97582246Y-86113757D01*
X97516557Y-85911588D01*
X97420051Y-85722184D01*
X97420049Y-85722181D01*
X97420048Y-85722179D01*
X97295109Y-85550213D01*
X97144786Y-85399890D01*
X96972820Y-85274951D01*
X96972115Y-85274591D01*
X96964054Y-85270485D01*
X96913259Y-85222512D01*
X96896463Y-85154692D01*
X96918999Y-85088556D01*
X96964054Y-85049515D01*
X96972816Y-85045051D01*
X97009750Y-85018217D01*
X97144786Y-84920109D01*
X97144788Y-84920106D01*
X97144792Y-84920104D01*
X97295104Y-84769792D01*
X97295106Y-84769788D01*
X97295109Y-84769786D01*
X97415951Y-84603459D01*
X97420051Y-84597816D01*
X97516557Y-84408412D01*
X97582246Y-84206243D01*
X97615500Y-83996287D01*
X97615500Y-83783713D01*
X97582246Y-83573757D01*
X97516557Y-83371588D01*
X97420051Y-83182184D01*
X97420049Y-83182181D01*
X97420048Y-83182179D01*
X97295109Y-83010213D01*
X97144786Y-82859890D01*
X96972820Y-82734951D01*
X96972115Y-82734591D01*
X96964054Y-82730485D01*
X96913259Y-82682512D01*
X96896463Y-82614692D01*
X96918999Y-82548556D01*
X96964054Y-82509515D01*
X96972816Y-82505051D01*
X97089084Y-82420578D01*
X97144786Y-82380109D01*
X97144788Y-82380106D01*
X97144792Y-82380104D01*
X97295104Y-82229792D01*
X97295106Y-82229788D01*
X97295109Y-82229786D01*
X97420048Y-82057820D01*
X97420047Y-82057820D01*
X97420051Y-82057816D01*
X97516557Y-81868412D01*
X97582246Y-81666243D01*
X97615500Y-81456287D01*
X97615500Y-81243713D01*
X97582246Y-81033757D01*
X97516557Y-80831588D01*
X97420051Y-80642184D01*
X97420049Y-80642181D01*
X97420048Y-80642179D01*
X97295109Y-80470213D01*
X97144786Y-80319890D01*
X96972820Y-80194951D01*
X96972115Y-80194591D01*
X96964054Y-80190485D01*
X96913259Y-80142512D01*
X96896463Y-80074692D01*
X96918999Y-80008556D01*
X96964054Y-79969515D01*
X96972816Y-79965051D01*
X96994789Y-79949086D01*
X97144786Y-79840109D01*
X97144788Y-79840106D01*
X97144792Y-79840104D01*
X97295104Y-79689792D01*
X97295106Y-79689788D01*
X97295109Y-79689786D01*
X97420048Y-79517820D01*
X97420049Y-79517819D01*
X97420051Y-79517816D01*
X97516557Y-79328412D01*
X97582246Y-79126243D01*
X97615500Y-78916287D01*
X97615500Y-78703713D01*
X97582246Y-78493757D01*
X97516557Y-78291588D01*
X97420051Y-78102184D01*
X97393336Y-78065414D01*
X97343548Y-77996885D01*
X97320068Y-77931079D01*
X97335894Y-77863025D01*
X97386000Y-77814330D01*
X97443866Y-77800000D01*
X99575500Y-77800000D01*
X99642539Y-77819685D01*
X99688294Y-77872489D01*
X99699500Y-77924000D01*
X99699500Y-104997293D01*
X99699382Y-105002702D01*
X99681853Y-105404181D01*
X99680910Y-105414957D01*
X99628811Y-105810685D01*
X99626933Y-105821339D01*
X99540538Y-106211039D01*
X99537738Y-106221487D01*
X99417713Y-106602159D01*
X99414013Y-106612325D01*
X99261263Y-106981096D01*
X99256691Y-106990900D01*
X99072388Y-107344942D01*
X99066980Y-107354310D01*
X98852511Y-107690959D01*
X98846306Y-107699820D01*
X98603319Y-108016487D01*
X98596365Y-108024774D01*
X98326705Y-108319056D01*
X98319056Y-108326705D01*
X98024774Y-108596365D01*
X98016487Y-108603319D01*
X97699820Y-108846306D01*
X97690959Y-108852511D01*
X97354310Y-109066980D01*
X97344942Y-109072388D01*
X96990900Y-109256691D01*
X96981096Y-109261263D01*
X96612325Y-109414013D01*
X96602159Y-109417713D01*
X96221487Y-109537738D01*
X96211039Y-109540538D01*
X95821339Y-109626933D01*
X95810685Y-109628811D01*
X95414957Y-109680910D01*
X95404181Y-109681853D01*
X95002703Y-109699382D01*
X94997294Y-109699500D01*
X50002706Y-109699500D01*
X49997297Y-109699382D01*
X49595818Y-109681853D01*
X49585042Y-109680910D01*
X49189314Y-109628811D01*
X49178660Y-109626933D01*
X48788960Y-109540538D01*
X48778512Y-109537738D01*
X48397840Y-109417713D01*
X48387674Y-109414013D01*
X48018903Y-109261263D01*
X48009099Y-109256691D01*
X47655057Y-109072388D01*
X47645689Y-109066980D01*
X47309040Y-108852511D01*
X47300179Y-108846306D01*
X46983512Y-108603319D01*
X46975225Y-108596365D01*
X46680943Y-108326705D01*
X46673294Y-108319056D01*
X46403634Y-108024774D01*
X46396680Y-108016487D01*
X46153693Y-107699820D01*
X46147488Y-107690959D01*
X45933019Y-107354310D01*
X45927611Y-107344942D01*
X45743308Y-106990900D01*
X45738736Y-106981096D01*
X45585982Y-106612315D01*
X45582286Y-106602159D01*
X45462261Y-106221487D01*
X45459461Y-106211039D01*
X45373066Y-105821339D01*
X45371188Y-105810685D01*
X45350849Y-105656193D01*
X45319087Y-105414937D01*
X45318147Y-105404202D01*
X45300618Y-105002702D01*
X45300500Y-104997293D01*
X45300500Y-98411304D01*
X70599500Y-98411304D01*
X70599500Y-98588695D01*
X70634103Y-98762658D01*
X70634106Y-98762667D01*
X70701983Y-98926540D01*
X70701990Y-98926553D01*
X70800535Y-99074034D01*
X70800538Y-99074038D01*
X70925961Y-99199461D01*
X70925965Y-99199464D01*
X71073446Y-99298009D01*
X71073459Y-99298016D01*
X71196363Y-99348923D01*
X71237334Y-99365894D01*
X71237336Y-99365894D01*
X71237341Y-99365896D01*
X71411304Y-99400499D01*
X71411307Y-99400500D01*
X71411309Y-99400500D01*
X71588693Y-99400500D01*
X71588694Y-99400499D01*
X71646682Y-99388964D01*
X71762658Y-99365896D01*
X71762661Y-99365894D01*
X71762666Y-99365894D01*
X71926547Y-99298013D01*
X72074035Y-99199464D01*
X72199464Y-99074035D01*
X72298013Y-98926547D01*
X72365894Y-98762666D01*
X72400500Y-98588691D01*
X72400500Y-98411309D01*
X72400500Y-98411306D01*
X72400499Y-98411304D01*
X72365896Y-98237341D01*
X72365893Y-98237332D01*
X72298016Y-98073459D01*
X72298009Y-98073446D01*
X72199464Y-97925965D01*
X72199461Y-97925961D01*
X72074038Y-97800538D01*
X72074034Y-97800535D01*
X71926553Y-97701990D01*
X71926540Y-97701983D01*
X71762667Y-97634106D01*
X71762658Y-97634103D01*
X71588694Y-97599500D01*
X71588691Y-97599500D01*
X71411309Y-97599500D01*
X71411306Y-97599500D01*
X71237341Y-97634103D01*
X71237332Y-97634106D01*
X71073459Y-97701983D01*
X71073446Y-97701990D01*
X70925965Y-97800535D01*
X70925961Y-97800538D01*
X70800538Y-97925961D01*
X70800535Y-97925965D01*
X70701990Y-98073446D01*
X70701983Y-98073459D01*
X70634106Y-98237332D01*
X70634103Y-98237341D01*
X70599500Y-98411304D01*
X45300500Y-98411304D01*
X45300500Y-94893713D01*
X51384500Y-94893713D01*
X51384500Y-95106287D01*
X51393842Y-95165269D01*
X51415354Y-95301095D01*
X51417754Y-95316243D01*
X51445130Y-95400498D01*
X51483444Y-95518414D01*
X51579951Y-95707820D01*
X51704890Y-95879786D01*
X51855213Y-96030109D01*
X52027179Y-96155048D01*
X52027181Y-96155049D01*
X52027184Y-96155051D01*
X52216588Y-96251557D01*
X52418757Y-96317246D01*
X52628713Y-96350500D01*
X52628714Y-96350500D01*
X52841286Y-96350500D01*
X52841287Y-96350500D01*
X53051243Y-96317246D01*
X53253412Y-96251557D01*
X53442816Y-96155051D01*
X53614792Y-96030104D01*
X53728329Y-95916566D01*
X53789648Y-95883084D01*
X53859340Y-95888068D01*
X53915274Y-95929939D01*
X53932189Y-95960917D01*
X53981202Y-96092328D01*
X53981206Y-96092335D01*
X54067452Y-96207544D01*
X54067455Y-96207547D01*
X54182664Y-96293793D01*
X54182671Y-96293797D01*
X54317517Y-96344091D01*
X54317516Y-96344091D01*
X54324444Y-96344835D01*
X54377127Y-96350500D01*
X56172872Y-96350499D01*
X56232483Y-96344091D01*
X56367331Y-96293796D01*
X56482546Y-96207546D01*
X56568796Y-96092331D01*
X56619091Y-95957483D01*
X56625500Y-95897873D01*
X56625499Y-94102128D01*
X56619091Y-94042517D01*
X56617810Y-94039083D01*
X56568797Y-93907671D01*
X56568793Y-93907664D01*
X56482547Y-93792455D01*
X56482544Y-93792452D01*
X56367335Y-93706206D01*
X56367328Y-93706202D01*
X56232482Y-93655908D01*
X56232483Y-93655908D01*
X56172883Y-93649501D01*
X56172881Y-93649500D01*
X56172873Y-93649500D01*
X56172864Y-93649500D01*
X54377129Y-93649500D01*
X54377123Y-93649501D01*
X54317516Y-93655908D01*
X54182671Y-93706202D01*
X54182664Y-93706206D01*
X54067455Y-93792452D01*
X54067452Y-93792455D01*
X53981206Y-93907664D01*
X53981203Y-93907669D01*
X53932189Y-94039083D01*
X53890317Y-94095016D01*
X53824853Y-94119433D01*
X53756580Y-94104581D01*
X53728326Y-94083430D01*
X53614786Y-93969890D01*
X53442820Y-93844951D01*
X53253414Y-93748444D01*
X53253413Y-93748443D01*
X53253412Y-93748443D01*
X53051243Y-93682754D01*
X53051241Y-93682753D01*
X53051240Y-93682753D01*
X52889957Y-93657208D01*
X52841287Y-93649500D01*
X52628713Y-93649500D01*
X52580042Y-93657208D01*
X52418760Y-93682753D01*
X52216585Y-93748444D01*
X52027179Y-93844951D01*
X51855213Y-93969890D01*
X51704890Y-94120213D01*
X51579951Y-94292179D01*
X51483444Y-94481585D01*
X51417753Y-94683760D01*
X51396825Y-94815894D01*
X51384500Y-94893713D01*
X45300500Y-94893713D01*
X45300500Y-86893713D01*
X48524500Y-86893713D01*
X48524500Y-87106287D01*
X48557754Y-87316243D01*
X48604497Y-87460104D01*
X48623444Y-87518414D01*
X48719951Y-87707820D01*
X48844890Y-87879786D01*
X48983705Y-88018601D01*
X49017190Y-88079924D01*
X49012206Y-88149616D01*
X48970334Y-88205549D01*
X48961121Y-88211821D01*
X48806342Y-88307289D01*
X48682289Y-88431342D01*
X48590187Y-88580663D01*
X48590185Y-88580668D01*
X48562349Y-88664670D01*
X48535001Y-88747203D01*
X48535001Y-88747204D01*
X48535000Y-88747204D01*
X48524500Y-88849983D01*
X48524500Y-90150001D01*
X48524501Y-90150018D01*
X48535000Y-90252796D01*
X48535001Y-90252799D01*
X48574200Y-90371093D01*
X48590186Y-90419334D01*
X48682288Y-90568656D01*
X48806344Y-90692712D01*
X48955666Y-90784814D01*
X49122203Y-90839999D01*
X49224991Y-90850500D01*
X50775008Y-90850499D01*
X50785170Y-90849461D01*
X50792895Y-90848671D01*
X50877797Y-90839999D01*
X51044334Y-90784814D01*
X51193656Y-90692712D01*
X51317712Y-90568656D01*
X51409814Y-90419334D01*
X51464999Y-90252797D01*
X51475500Y-90150009D01*
X51475499Y-88849992D01*
X51475248Y-88847539D01*
X51464999Y-88747203D01*
X51464998Y-88747200D01*
X51436536Y-88661309D01*
X51409814Y-88580666D01*
X51317712Y-88431344D01*
X51193656Y-88307288D01*
X51044334Y-88215186D01*
X51044333Y-88215185D01*
X51038878Y-88211821D01*
X50992154Y-88159873D01*
X50980931Y-88090910D01*
X51008775Y-88026828D01*
X51016272Y-88018623D01*
X51155104Y-87879792D01*
X51175699Y-87851446D01*
X51280048Y-87707820D01*
X51280047Y-87707820D01*
X51280051Y-87707816D01*
X51376557Y-87518412D01*
X51442246Y-87316243D01*
X51475500Y-87106287D01*
X51475500Y-86893713D01*
X51442246Y-86683757D01*
X51376557Y-86481588D01*
X51280051Y-86292184D01*
X51280049Y-86292181D01*
X51280048Y-86292179D01*
X51155109Y-86120213D01*
X51004790Y-85969894D01*
X51004785Y-85969890D01*
X50839781Y-85850008D01*
X50797115Y-85794678D01*
X50791136Y-85725065D01*
X50823741Y-85663270D01*
X50839781Y-85649371D01*
X51004466Y-85529721D01*
X51154723Y-85379464D01*
X51154727Y-85379459D01*
X51279620Y-85207557D01*
X51376095Y-85018217D01*
X51401086Y-84941304D01*
X54879500Y-84941304D01*
X54879500Y-85118695D01*
X54914103Y-85292658D01*
X54914106Y-85292667D01*
X54981983Y-85456540D01*
X54981990Y-85456553D01*
X55080535Y-85604034D01*
X55080538Y-85604038D01*
X55205961Y-85729461D01*
X55205965Y-85729464D01*
X55353446Y-85828009D01*
X55353459Y-85828016D01*
X55476363Y-85878923D01*
X55517334Y-85895894D01*
X55517336Y-85895894D01*
X55517341Y-85895896D01*
X55691304Y-85930499D01*
X55691307Y-85930500D01*
X55691309Y-85930500D01*
X55868693Y-85930500D01*
X55868694Y-85930499D01*
X55926682Y-85918964D01*
X56042658Y-85895896D01*
X56042661Y-85895894D01*
X56042666Y-85895894D01*
X56206547Y-85828013D01*
X56354035Y-85729464D01*
X56479464Y-85604035D01*
X56578013Y-85456547D01*
X56645894Y-85292666D01*
X56680500Y-85118691D01*
X56680500Y-84941309D01*
X56680500Y-84941306D01*
X56680499Y-84941304D01*
X56645896Y-84767341D01*
X56645893Y-84767332D01*
X56578016Y-84603459D01*
X56578009Y-84603446D01*
X56479464Y-84455965D01*
X56479461Y-84455961D01*
X56354038Y-84330538D01*
X56354034Y-84330535D01*
X56206553Y-84231990D01*
X56206540Y-84231983D01*
X56042667Y-84164106D01*
X56042658Y-84164103D01*
X55868694Y-84129500D01*
X55868691Y-84129500D01*
X55691309Y-84129500D01*
X55691306Y-84129500D01*
X55517341Y-84164103D01*
X55517332Y-84164106D01*
X55353459Y-84231983D01*
X55353446Y-84231990D01*
X55205965Y-84330535D01*
X55205961Y-84330538D01*
X55080538Y-84455961D01*
X55080535Y-84455965D01*
X54981990Y-84603446D01*
X54981983Y-84603459D01*
X54914106Y-84767332D01*
X54914103Y-84767341D01*
X54879500Y-84941304D01*
X51401086Y-84941304D01*
X51415514Y-84896899D01*
X51441757Y-84816129D01*
X51441757Y-84816126D01*
X51452231Y-84750000D01*
X50404146Y-84750000D01*
X50442630Y-84683343D01*
X50475000Y-84562535D01*
X50475000Y-84437465D01*
X50442630Y-84316657D01*
X50404146Y-84250000D01*
X51452231Y-84250000D01*
X51441757Y-84183873D01*
X51441757Y-84183870D01*
X51376095Y-83981782D01*
X51279620Y-83792442D01*
X51154727Y-83620540D01*
X51154723Y-83620535D01*
X51004464Y-83470276D01*
X51004459Y-83470272D01*
X50832557Y-83345379D01*
X50643217Y-83248904D01*
X50441128Y-83183242D01*
X50250000Y-83152969D01*
X50250000Y-84095854D01*
X50183343Y-84057370D01*
X50062535Y-84025000D01*
X49937465Y-84025000D01*
X49816657Y-84057370D01*
X49750000Y-84095854D01*
X49750000Y-83152969D01*
X49558872Y-83183242D01*
X49558869Y-83183242D01*
X49356782Y-83248904D01*
X49167442Y-83345379D01*
X48995540Y-83470272D01*
X48995535Y-83470276D01*
X48845276Y-83620535D01*
X48845272Y-83620540D01*
X48720379Y-83792442D01*
X48623904Y-83981782D01*
X48558242Y-84183870D01*
X48558242Y-84183873D01*
X48547769Y-84250000D01*
X49595854Y-84250000D01*
X49557370Y-84316657D01*
X49525000Y-84437465D01*
X49525000Y-84562535D01*
X49557370Y-84683343D01*
X49595854Y-84750000D01*
X48547769Y-84750000D01*
X48558242Y-84816126D01*
X48558242Y-84816129D01*
X48623904Y-85018217D01*
X48720379Y-85207557D01*
X48845272Y-85379459D01*
X48845276Y-85379464D01*
X48995535Y-85529723D01*
X48995540Y-85529727D01*
X49160218Y-85649372D01*
X49202884Y-85704701D01*
X49208863Y-85774315D01*
X49176258Y-85836110D01*
X49160218Y-85850008D01*
X48995214Y-85969890D01*
X48995209Y-85969894D01*
X48844890Y-86120213D01*
X48719951Y-86292179D01*
X48623444Y-86481585D01*
X48557753Y-86683760D01*
X48547857Y-86746243D01*
X48524500Y-86893713D01*
X45300500Y-86893713D01*
X45300500Y-80611304D01*
X62329500Y-80611304D01*
X62329500Y-80788695D01*
X62364103Y-80962658D01*
X62364106Y-80962667D01*
X62431983Y-81126540D01*
X62431990Y-81126553D01*
X62530535Y-81274034D01*
X62530538Y-81274038D01*
X62655961Y-81399461D01*
X62655965Y-81399464D01*
X62803446Y-81498009D01*
X62803459Y-81498016D01*
X62881971Y-81530536D01*
X62967334Y-81565894D01*
X62967336Y-81565894D01*
X62967341Y-81565896D01*
X63141304Y-81600499D01*
X63141307Y-81600500D01*
X63141309Y-81600500D01*
X63318693Y-81600500D01*
X63318694Y-81600499D01*
X63376682Y-81588964D01*
X63492658Y-81565896D01*
X63492661Y-81565894D01*
X63492666Y-81565894D01*
X63656547Y-81498013D01*
X63804035Y-81399464D01*
X63929464Y-81274035D01*
X64028013Y-81126547D01*
X64095894Y-80962666D01*
X64106901Y-80907334D01*
X64130499Y-80788695D01*
X64130500Y-80788693D01*
X64130500Y-80611306D01*
X64130499Y-80611304D01*
X64095896Y-80437341D01*
X64095893Y-80437332D01*
X64028016Y-80273459D01*
X64028009Y-80273446D01*
X63929464Y-80125965D01*
X63929461Y-80125961D01*
X63804038Y-80000538D01*
X63804034Y-80000535D01*
X63656553Y-79901990D01*
X63656540Y-79901983D01*
X63492667Y-79834106D01*
X63492658Y-79834103D01*
X63318694Y-79799500D01*
X63318691Y-79799500D01*
X63141309Y-79799500D01*
X63141306Y-79799500D01*
X62967341Y-79834103D01*
X62967332Y-79834106D01*
X62803459Y-79901983D01*
X62803446Y-79901990D01*
X62655965Y-80000535D01*
X62655961Y-80000538D01*
X62530538Y-80125961D01*
X62530535Y-80125965D01*
X62431990Y-80273446D01*
X62431983Y-80273459D01*
X62364106Y-80437332D01*
X62364103Y-80437341D01*
X62329500Y-80611304D01*
X45300500Y-80611304D01*
X45300500Y-45002706D01*
X45300618Y-44997297D01*
X45302227Y-44960438D01*
X45318147Y-44595795D01*
X45319087Y-44585064D01*
X45371189Y-44189302D01*
X45373063Y-44178672D01*
X45459463Y-43788950D01*
X45462261Y-43778512D01*
X45582291Y-43397823D01*
X45585979Y-43387691D01*
X45738742Y-43018888D01*
X45743300Y-43009114D01*
X45927617Y-42655045D01*
X45933012Y-42645700D01*
X46147495Y-42309029D01*
X46153685Y-42300189D01*
X46396687Y-41983503D01*
X46403625Y-41975234D01*
X46673304Y-41680932D01*
X46680932Y-41673304D01*
X46975234Y-41403625D01*
X46983503Y-41396687D01*
X47300189Y-41153685D01*
X47309029Y-41147495D01*
X47645700Y-40933012D01*
X47655045Y-40927617D01*
X48009114Y-40743300D01*
X48018888Y-40738742D01*
X48387691Y-40585979D01*
X48397823Y-40582291D01*
X48778521Y-40462258D01*
X48788950Y-40459463D01*
X49178672Y-40373063D01*
X49189302Y-40371189D01*
X49585064Y-40319087D01*
X49595795Y-40318147D01*
X49997297Y-40300617D01*
X50002706Y-40300500D01*
X50047595Y-40300500D01*
X94952405Y-40300500D01*
X94997294Y-40300500D01*
X95002702Y-40300617D01*
G37*
%TD.AperFunction*%
%TA.AperFunction,Conductor*%
G36*
X95354093Y-92531119D02*
G01*
X95364045Y-92531550D01*
X95393203Y-92546678D01*
X95395486Y-92547586D01*
X95396183Y-92548078D01*
X95557184Y-92665051D01*
X95574422Y-92673834D01*
X95581687Y-92678960D01*
X95598095Y-92699638D01*
X95617290Y-92717766D01*
X95619472Y-92726580D01*
X95625117Y-92733693D01*
X95627740Y-92759963D01*
X95634087Y-92785587D01*
X95631158Y-92794181D01*
X95632061Y-92803216D01*
X95620066Y-92826732D01*
X95611552Y-92851722D01*
X95603970Y-92858291D01*
X95600316Y-92865458D01*
X95586207Y-92873685D01*
X95566505Y-92890760D01*
X95557446Y-92895376D01*
X95557440Y-92895380D01*
X95503282Y-92934727D01*
X95503282Y-92934728D01*
X96135591Y-93567037D01*
X96072007Y-93584075D01*
X95957993Y-93649901D01*
X95864901Y-93742993D01*
X95799075Y-93857007D01*
X95782037Y-93920591D01*
X95111818Y-93250372D01*
X95079350Y-93193354D01*
X95075499Y-93178264D01*
X95075499Y-93152128D01*
X95069091Y-93092517D01*
X95020079Y-92961109D01*
X95018434Y-92954663D01*
X95019454Y-92926126D01*
X95017417Y-92897641D01*
X95020686Y-92891653D01*
X95020930Y-92884838D01*
X95037214Y-92861385D01*
X95050902Y-92836318D01*
X95056889Y-92833048D01*
X95060779Y-92827447D01*
X95087162Y-92816519D01*
X95112226Y-92802834D01*
X95122999Y-92801675D01*
X95125331Y-92800710D01*
X95127813Y-92801157D01*
X95138583Y-92800000D01*
X95200000Y-92800000D01*
X95200000Y-92648906D01*
X95203306Y-92637646D01*
X95202140Y-92625970D01*
X95212969Y-92604736D01*
X95219685Y-92581867D01*
X95228552Y-92574183D01*
X95233885Y-92563728D01*
X95254477Y-92551718D01*
X95272489Y-92536112D01*
X95284103Y-92534442D01*
X95294241Y-92528530D01*
X95318054Y-92529560D01*
X95341647Y-92526168D01*
X95354093Y-92531119D01*
G37*
%TD.AperFunction*%
%TA.AperFunction,Conductor*%
G36*
X71841177Y-78966504D02*
G01*
X71897110Y-79008376D01*
X71919460Y-79058494D01*
X71954104Y-79232659D01*
X71954106Y-79232667D01*
X72021984Y-79396542D01*
X72021985Y-79396543D01*
X72021987Y-79396547D01*
X72058467Y-79451142D01*
X72079345Y-79517819D01*
X72060861Y-79585199D01*
X72058467Y-79588924D01*
X72001990Y-79673446D01*
X72001983Y-79673459D01*
X71934106Y-79837332D01*
X71934103Y-79837341D01*
X71899500Y-80011304D01*
X71899500Y-80188695D01*
X71934103Y-80362658D01*
X71934106Y-80362667D01*
X72001983Y-80526540D01*
X72001990Y-80526553D01*
X72100535Y-80674034D01*
X72100538Y-80674038D01*
X72154180Y-80727679D01*
X72187666Y-80789002D01*
X72190500Y-80815361D01*
X72190500Y-81185723D01*
X72214612Y-81306943D01*
X72214614Y-81306951D01*
X72238289Y-81364107D01*
X72261915Y-81421145D01*
X72261920Y-81421155D01*
X72317534Y-81504386D01*
X72317535Y-81504387D01*
X72330590Y-81523926D01*
X72330591Y-81523927D01*
X72788673Y-81982008D01*
X72837165Y-82030500D01*
X72876078Y-82069413D01*
X72876080Y-82069414D01*
X72978840Y-82138076D01*
X72978842Y-82138077D01*
X72978851Y-82138083D01*
X73003856Y-82148440D01*
X73026155Y-82157677D01*
X73057328Y-82170589D01*
X73093050Y-82185386D01*
X73214276Y-82209499D01*
X73214280Y-82209500D01*
X73214281Y-82209500D01*
X73599885Y-82209500D01*
X73666924Y-82229185D01*
X73687566Y-82245819D01*
X74476567Y-83034820D01*
X74510052Y-83096143D01*
X74505068Y-83165835D01*
X74463196Y-83221768D01*
X74447354Y-83231851D01*
X74444461Y-83233397D01*
X74296965Y-83331951D01*
X74296961Y-83331954D01*
X74171538Y-83457377D01*
X74171535Y-83457381D01*
X74072990Y-83604862D01*
X74072983Y-83604875D01*
X74005106Y-83768748D01*
X74005103Y-83768757D01*
X73970500Y-83942720D01*
X73970500Y-84120111D01*
X74005103Y-84294074D01*
X74005106Y-84294083D01*
X74072983Y-84457956D01*
X74072990Y-84457969D01*
X74171535Y-84605450D01*
X74171538Y-84605454D01*
X74296961Y-84730877D01*
X74296965Y-84730880D01*
X74444446Y-84829425D01*
X74444459Y-84829432D01*
X74566773Y-84880095D01*
X74608334Y-84897310D01*
X74608336Y-84897310D01*
X74608341Y-84897312D01*
X74782304Y-84931915D01*
X74782307Y-84931916D01*
X74782309Y-84931916D01*
X74959693Y-84931916D01*
X74959694Y-84931915D01*
X75019074Y-84920104D01*
X75133658Y-84897312D01*
X75133661Y-84897310D01*
X75133666Y-84897310D01*
X75297547Y-84829429D01*
X75445035Y-84730880D01*
X75570464Y-84605451D01*
X75669013Y-84457963D01*
X75722965Y-84327708D01*
X75766802Y-84273309D01*
X75833096Y-84251243D01*
X75861712Y-84253546D01*
X75901280Y-84261417D01*
X76024886Y-84261417D01*
X76812968Y-84261417D01*
X76880007Y-84281102D01*
X76900649Y-84297736D01*
X80566181Y-87963268D01*
X80580884Y-87990195D01*
X80597477Y-88016014D01*
X80598368Y-88022214D01*
X80599666Y-88024591D01*
X80602500Y-88050949D01*
X80602500Y-88052638D01*
X80582815Y-88119677D01*
X80566181Y-88140319D01*
X80530538Y-88175961D01*
X80530535Y-88175965D01*
X80431990Y-88323446D01*
X80431983Y-88323459D01*
X80364106Y-88487332D01*
X80364103Y-88487341D01*
X80329500Y-88661304D01*
X80329500Y-88780500D01*
X80309815Y-88847539D01*
X80257011Y-88893294D01*
X80205500Y-88904500D01*
X73477782Y-88904500D01*
X73410743Y-88884815D01*
X73390101Y-88868181D01*
X68949547Y-84427627D01*
X68916062Y-84366304D01*
X68913228Y-84339946D01*
X68913228Y-84289533D01*
X68913227Y-84289531D01*
X68878624Y-84115568D01*
X68878621Y-84115559D01*
X68810744Y-83951686D01*
X68810737Y-83951673D01*
X68712192Y-83804192D01*
X68712189Y-83804188D01*
X68681944Y-83773943D01*
X68648459Y-83712620D01*
X68653443Y-83642928D01*
X68655043Y-83638862D01*
X68665894Y-83612666D01*
X68667447Y-83604862D01*
X68694801Y-83467341D01*
X68700500Y-83438691D01*
X68700500Y-83261309D01*
X68700500Y-83261306D01*
X68700499Y-83261304D01*
X68665896Y-83087341D01*
X68665893Y-83087332D01*
X68598016Y-82923459D01*
X68598009Y-82923446D01*
X68499464Y-82775965D01*
X68499461Y-82775961D01*
X68374038Y-82650538D01*
X68374032Y-82650533D01*
X68308196Y-82606542D01*
X68263392Y-82552930D01*
X68254685Y-82483605D01*
X68284840Y-82420578D01*
X68289388Y-82415779D01*
X71710164Y-78995003D01*
X71771485Y-78961520D01*
X71841177Y-78966504D01*
G37*
%TD.AperFunction*%
%TA.AperFunction,Conductor*%
G36*
X79487703Y-80688149D02*
G01*
X79494181Y-80694181D01*
X80500000Y-81700000D01*
X85648638Y-81700000D01*
X85715677Y-81719685D01*
X85736319Y-81736319D01*
X88162528Y-84162528D01*
X88196013Y-84223851D01*
X88196465Y-84274399D01*
X88175615Y-84379224D01*
X88172500Y-84394885D01*
X88172500Y-87757847D01*
X88167501Y-87774871D01*
X88167526Y-87792615D01*
X88157861Y-87807699D01*
X88152815Y-87824886D01*
X88139407Y-87836504D01*
X88129834Y-87851446D01*
X88113547Y-87858911D01*
X88100011Y-87870641D01*
X88082409Y-87873184D01*
X88066319Y-87880560D01*
X88036715Y-87879787D01*
X88031025Y-87880610D01*
X88027643Y-87880128D01*
X87878691Y-87850500D01*
X87819496Y-87850500D01*
X87810806Y-87849263D01*
X87786672Y-87838282D01*
X87761242Y-87830815D01*
X87749545Y-87821389D01*
X87747210Y-87820327D01*
X87746110Y-87818621D01*
X87740600Y-87814181D01*
X86104011Y-86177591D01*
X86104007Y-86177588D01*
X86001239Y-86108920D01*
X86001226Y-86108913D01*
X85960953Y-86092232D01*
X85887035Y-86061614D01*
X85887027Y-86061612D01*
X85765807Y-86037500D01*
X85765803Y-86037500D01*
X83340293Y-86037500D01*
X83273254Y-86017815D01*
X83252612Y-86001181D01*
X80892735Y-83641304D01*
X83929500Y-83641304D01*
X83929500Y-83818695D01*
X83964103Y-83992658D01*
X83964106Y-83992667D01*
X84031983Y-84156540D01*
X84031990Y-84156553D01*
X84130535Y-84304034D01*
X84130538Y-84304038D01*
X84255961Y-84429461D01*
X84255965Y-84429464D01*
X84403446Y-84528009D01*
X84403459Y-84528016D01*
X84506027Y-84570500D01*
X84567334Y-84595894D01*
X84567336Y-84595894D01*
X84567341Y-84595896D01*
X84741304Y-84630499D01*
X84741307Y-84630500D01*
X84741309Y-84630500D01*
X84918693Y-84630500D01*
X84918694Y-84630499D01*
X84976682Y-84618964D01*
X85092658Y-84595896D01*
X85092661Y-84595894D01*
X85092666Y-84595894D01*
X85256547Y-84528013D01*
X85404035Y-84429464D01*
X85529464Y-84304035D01*
X85628013Y-84156547D01*
X85695894Y-83992666D01*
X85704046Y-83951686D01*
X85730499Y-83818695D01*
X85730500Y-83818693D01*
X85730500Y-83641306D01*
X85730499Y-83641304D01*
X85695896Y-83467341D01*
X85695893Y-83467332D01*
X85628016Y-83303459D01*
X85628009Y-83303446D01*
X85529464Y-83155965D01*
X85529461Y-83155961D01*
X85404038Y-83030538D01*
X85404034Y-83030535D01*
X85256553Y-82931990D01*
X85256540Y-82931983D01*
X85092667Y-82864106D01*
X85092658Y-82864103D01*
X84918694Y-82829500D01*
X84918691Y-82829500D01*
X84741309Y-82829500D01*
X84741306Y-82829500D01*
X84567341Y-82864103D01*
X84567332Y-82864106D01*
X84403459Y-82931983D01*
X84403446Y-82931990D01*
X84255965Y-83030535D01*
X84255961Y-83030538D01*
X84130538Y-83155961D01*
X84130535Y-83155965D01*
X84031990Y-83303446D01*
X84031983Y-83303459D01*
X83964106Y-83467332D01*
X83964103Y-83467341D01*
X83929500Y-83641304D01*
X80892735Y-83641304D01*
X79318819Y-82067388D01*
X79285334Y-82006065D01*
X79282500Y-81979707D01*
X79282500Y-80781862D01*
X79302185Y-80714823D01*
X79354989Y-80669068D01*
X79424147Y-80659124D01*
X79487703Y-80688149D01*
G37*
%TD.AperFunction*%
%TA.AperFunction,Conductor*%
G36*
X73320703Y-75614584D02*
G01*
X73354061Y-75660845D01*
X73401983Y-75776544D01*
X73401990Y-75776556D01*
X73500535Y-75924037D01*
X73500538Y-75924041D01*
X73625961Y-76049464D01*
X73625965Y-76049467D01*
X73773446Y-76148012D01*
X73773459Y-76148019D01*
X73896363Y-76198926D01*
X73937334Y-76215897D01*
X73937336Y-76215897D01*
X73937341Y-76215899D01*
X74111304Y-76250502D01*
X74111307Y-76250503D01*
X74111309Y-76250503D01*
X74288693Y-76250503D01*
X74288694Y-76250502D01*
X74346682Y-76238967D01*
X74462658Y-76215899D01*
X74462661Y-76215897D01*
X74462666Y-76215897D01*
X74626547Y-76148016D01*
X74774035Y-76049467D01*
X74809679Y-76013823D01*
X74871001Y-75980337D01*
X74897361Y-75977503D01*
X78138722Y-75977503D01*
X78205761Y-75997188D01*
X78226403Y-76013822D01*
X79212589Y-77000008D01*
X79299992Y-77087411D01*
X79299994Y-77087413D01*
X79299996Y-77087414D01*
X79402756Y-77156076D01*
X79402758Y-77156077D01*
X79402767Y-77156083D01*
X79427772Y-77166440D01*
X79450071Y-77175677D01*
X79480592Y-77188319D01*
X79516966Y-77203386D01*
X79638192Y-77227499D01*
X79638196Y-77227500D01*
X79638197Y-77227500D01*
X79761803Y-77227500D01*
X90288719Y-77227500D01*
X90355758Y-77247185D01*
X90376400Y-77263819D01*
X91090589Y-77978008D01*
X91136607Y-78024026D01*
X91177994Y-78065413D01*
X91177996Y-78065414D01*
X91280756Y-78134076D01*
X91280758Y-78134077D01*
X91280767Y-78134083D01*
X91319212Y-78150007D01*
X91319213Y-78150008D01*
X91319214Y-78150008D01*
X91394966Y-78181386D01*
X91516192Y-78205499D01*
X91516196Y-78205500D01*
X91516197Y-78205500D01*
X91639803Y-78205500D01*
X92330744Y-78205500D01*
X92397783Y-78225185D01*
X92443538Y-78277989D01*
X92453482Y-78347147D01*
X92448677Y-78367807D01*
X92407754Y-78493757D01*
X92407753Y-78493760D01*
X92407753Y-78493762D01*
X92374500Y-78703713D01*
X92374500Y-78916286D01*
X92405801Y-79113917D01*
X92407754Y-79126243D01*
X92473443Y-79328412D01*
X92569949Y-79517816D01*
X92626158Y-79595182D01*
X92649637Y-79660988D01*
X92633811Y-79729042D01*
X92613520Y-79755747D01*
X88572315Y-83796953D01*
X88510992Y-83830438D01*
X88441300Y-83825454D01*
X88396953Y-83796953D01*
X85900000Y-81300000D01*
X80751362Y-81300000D01*
X80684323Y-81280315D01*
X80663681Y-81263681D01*
X79336319Y-79936319D01*
X79302834Y-79874996D01*
X79300000Y-79848638D01*
X79300000Y-78800000D01*
X78900000Y-78800000D01*
X78900000Y-79905959D01*
X78880315Y-79972998D01*
X78827511Y-80018753D01*
X78758353Y-80028697D01*
X78694797Y-79999672D01*
X78688319Y-79993640D01*
X77877270Y-79182591D01*
X77877266Y-79182588D01*
X77774498Y-79113920D01*
X77774485Y-79113913D01*
X77737683Y-79098669D01*
X77737673Y-79098666D01*
X77731152Y-79095965D01*
X77660294Y-79066614D01*
X77547135Y-79044105D01*
X77542212Y-79042696D01*
X77516846Y-79026633D01*
X77490246Y-79012720D01*
X77488666Y-79011167D01*
X77448038Y-78970538D01*
X77448034Y-78970535D01*
X77300553Y-78871990D01*
X77300540Y-78871983D01*
X77136667Y-78804106D01*
X77136658Y-78804103D01*
X76962694Y-78769500D01*
X76962691Y-78769500D01*
X76785309Y-78769500D01*
X76785306Y-78769500D01*
X76611341Y-78804103D01*
X76611332Y-78804106D01*
X76447459Y-78871983D01*
X76447446Y-78871990D01*
X76299965Y-78970535D01*
X76299961Y-78970538D01*
X76174538Y-79095961D01*
X76174535Y-79095965D01*
X76075990Y-79243446D01*
X76075983Y-79243459D01*
X76008106Y-79407332D01*
X76008103Y-79407341D01*
X75973500Y-79581304D01*
X75973500Y-79758695D01*
X76008103Y-79932658D01*
X76008106Y-79932667D01*
X76075983Y-80096540D01*
X76075990Y-80096553D01*
X76174535Y-80244034D01*
X76174538Y-80244038D01*
X76299961Y-80369461D01*
X76299965Y-80369464D01*
X76447446Y-80468009D01*
X76447459Y-80468016D01*
X76527403Y-80501129D01*
X76611334Y-80535894D01*
X76611336Y-80535894D01*
X76611341Y-80535896D01*
X76785304Y-80570499D01*
X76785307Y-80570500D01*
X76965047Y-80570500D01*
X77032086Y-80590185D01*
X77077841Y-80642989D01*
X77087785Y-80712147D01*
X77079608Y-80741952D01*
X77011106Y-80907332D01*
X77011103Y-80907341D01*
X76976500Y-81081304D01*
X76976500Y-81248460D01*
X76956815Y-81315499D01*
X76904011Y-81361254D01*
X76899952Y-81363021D01*
X76733459Y-81431983D01*
X76733446Y-81431990D01*
X76585965Y-81530535D01*
X76585961Y-81530538D01*
X76460538Y-81655961D01*
X76460535Y-81655965D01*
X76361990Y-81803446D01*
X76361983Y-81803459D01*
X76294106Y-81967332D01*
X76294104Y-81967340D01*
X76274600Y-82065394D01*
X76242215Y-82127305D01*
X76181499Y-82161879D01*
X76111730Y-82158139D01*
X76065302Y-82128883D01*
X74477777Y-80541358D01*
X74450897Y-80501129D01*
X74438225Y-80470536D01*
X74398013Y-80373453D01*
X74398011Y-80373451D01*
X74398011Y-80373449D01*
X74299464Y-80225965D01*
X74299461Y-80225961D01*
X74174038Y-80100538D01*
X74174034Y-80100535D01*
X74026553Y-80001990D01*
X74026540Y-80001983D01*
X73862667Y-79934106D01*
X73862659Y-79934104D01*
X73756914Y-79913070D01*
X73695004Y-79880685D01*
X73666545Y-79838905D01*
X73598016Y-79673459D01*
X73598014Y-79673456D01*
X73598013Y-79673453D01*
X73561530Y-79618854D01*
X73540654Y-79552180D01*
X73559138Y-79484800D01*
X73561533Y-79481074D01*
X73581534Y-79451142D01*
X73618013Y-79396547D01*
X73685894Y-79232666D01*
X73685894Y-79232661D01*
X73685896Y-79232658D01*
X73720499Y-79058695D01*
X73720500Y-79058693D01*
X73720500Y-78881306D01*
X73720499Y-78881304D01*
X73685896Y-78707341D01*
X73685893Y-78707332D01*
X73679836Y-78692710D01*
X73628453Y-78568657D01*
X73618016Y-78543459D01*
X73618009Y-78543446D01*
X73519464Y-78395965D01*
X73519461Y-78395961D01*
X73394038Y-78270538D01*
X73394034Y-78270535D01*
X73246553Y-78171990D01*
X73246540Y-78171983D01*
X73082667Y-78104106D01*
X73082659Y-78104104D01*
X72908495Y-78069460D01*
X72900537Y-78065297D01*
X72891568Y-78064827D01*
X72870060Y-78049355D01*
X72846584Y-78037075D01*
X72842139Y-78029269D01*
X72834850Y-78024026D01*
X72825122Y-77999385D01*
X72812010Y-77976359D01*
X72812490Y-77967390D01*
X72809193Y-77959037D01*
X72814331Y-77933046D01*
X72815750Y-77906589D01*
X72821360Y-77897494D01*
X72822745Y-77890494D01*
X72841163Y-77865397D01*
X72843356Y-77861843D01*
X72844139Y-77861028D01*
X72975411Y-77729758D01*
X72980394Y-77722301D01*
X73044083Y-77626983D01*
X73072473Y-77558443D01*
X73091386Y-77512784D01*
X73115500Y-77391553D01*
X73115500Y-77267947D01*
X73115500Y-75708297D01*
X73135185Y-75641258D01*
X73187989Y-75595503D01*
X73257147Y-75585559D01*
X73320703Y-75614584D01*
G37*
%TD.AperFunction*%
%TA.AperFunction,Conductor*%
G36*
X99642539Y-67619685D02*
G01*
X99688294Y-67672489D01*
X99699500Y-67724000D01*
X99699500Y-77276000D01*
X99679815Y-77343039D01*
X99627011Y-77388794D01*
X99575500Y-77400000D01*
X97344258Y-77400000D01*
X97277219Y-77380315D01*
X97231464Y-77327511D01*
X97221520Y-77258353D01*
X97250545Y-77194797D01*
X97256577Y-77188319D01*
X97269220Y-77175676D01*
X97295104Y-77149792D01*
X97295106Y-77149788D01*
X97295109Y-77149786D01*
X97420048Y-76977820D01*
X97420047Y-76977820D01*
X97420051Y-76977816D01*
X97516557Y-76788412D01*
X97582246Y-76586243D01*
X97615500Y-76376287D01*
X97615500Y-76163713D01*
X97582246Y-75953757D01*
X97516557Y-75751588D01*
X97420051Y-75562184D01*
X97420049Y-75562181D01*
X97420048Y-75562179D01*
X97295109Y-75390213D01*
X97144786Y-75239890D01*
X96972817Y-75114949D01*
X96963504Y-75110204D01*
X96912707Y-75062230D01*
X96895912Y-74994409D01*
X96918449Y-74928274D01*
X96963507Y-74889232D01*
X96972555Y-74884622D01*
X97026716Y-74845270D01*
X97026717Y-74845270D01*
X96394408Y-74212962D01*
X96457993Y-74195925D01*
X96572007Y-74130099D01*
X96665099Y-74037007D01*
X96730925Y-73922993D01*
X96747962Y-73859409D01*
X97380270Y-74491717D01*
X97380270Y-74491716D01*
X97419622Y-74437554D01*
X97516095Y-74248217D01*
X97581757Y-74046130D01*
X97581757Y-74046127D01*
X97615000Y-73836246D01*
X97615000Y-73623753D01*
X97581757Y-73413872D01*
X97581757Y-73413869D01*
X97516095Y-73211782D01*
X97419624Y-73022449D01*
X97380270Y-72968282D01*
X97380269Y-72968282D01*
X96747962Y-73600590D01*
X96730925Y-73537007D01*
X96665099Y-73422993D01*
X96572007Y-73329901D01*
X96457993Y-73264075D01*
X96394409Y-73247037D01*
X97026716Y-72614728D01*
X96972547Y-72575373D01*
X96972547Y-72575372D01*
X96963500Y-72570763D01*
X96912706Y-72522788D01*
X96895912Y-72454966D01*
X96918451Y-72388832D01*
X96963508Y-72349793D01*
X96972816Y-72345051D01*
X97052007Y-72287515D01*
X97144786Y-72220109D01*
X97144788Y-72220106D01*
X97144792Y-72220104D01*
X97295104Y-72069792D01*
X97295106Y-72069788D01*
X97295109Y-72069786D01*
X97420048Y-71897820D01*
X97420047Y-71897820D01*
X97420051Y-71897816D01*
X97516557Y-71708412D01*
X97582246Y-71506243D01*
X97615500Y-71296287D01*
X97615500Y-71083713D01*
X97582246Y-70873757D01*
X97516557Y-70671588D01*
X97420051Y-70482184D01*
X97420049Y-70482181D01*
X97420048Y-70482179D01*
X97295109Y-70310213D01*
X97144786Y-70159890D01*
X96972820Y-70034951D01*
X96972115Y-70034591D01*
X96964054Y-70030485D01*
X96913259Y-69982512D01*
X96896463Y-69914692D01*
X96918999Y-69848556D01*
X96964054Y-69809515D01*
X96972816Y-69805051D01*
X97037018Y-69758406D01*
X97144786Y-69680109D01*
X97144788Y-69680106D01*
X97144792Y-69680104D01*
X97295104Y-69529792D01*
X97295106Y-69529788D01*
X97295109Y-69529786D01*
X97420048Y-69357820D01*
X97420047Y-69357820D01*
X97420051Y-69357816D01*
X97516557Y-69168412D01*
X97582246Y-68966243D01*
X97615500Y-68756287D01*
X97615500Y-68543713D01*
X97582246Y-68333757D01*
X97516557Y-68131588D01*
X97420051Y-67942184D01*
X97420049Y-67942181D01*
X97420048Y-67942179D01*
X97314487Y-67796885D01*
X97291007Y-67731078D01*
X97306833Y-67663025D01*
X97356939Y-67614330D01*
X97414805Y-67600000D01*
X99575500Y-67600000D01*
X99642539Y-67619685D01*
G37*
%TD.AperFunction*%
%TA.AperFunction,Conductor*%
G36*
X92699595Y-72090337D02*
G01*
X92743942Y-72118838D01*
X92845213Y-72220109D01*
X93017182Y-72345050D01*
X93025946Y-72349516D01*
X93076742Y-72397491D01*
X93093536Y-72465312D01*
X93070998Y-72531447D01*
X93025946Y-72570484D01*
X93017182Y-72574949D01*
X92845213Y-72699890D01*
X92694890Y-72850213D01*
X92569951Y-73022179D01*
X92473444Y-73211585D01*
X92473443Y-73211587D01*
X92473443Y-73211588D01*
X92448806Y-73287413D01*
X92407753Y-73413760D01*
X92406291Y-73422993D01*
X92374500Y-73623713D01*
X92374500Y-73836287D01*
X92384505Y-73899453D01*
X92407735Y-74046127D01*
X92407754Y-74046243D01*
X92441084Y-74148823D01*
X92473444Y-74248414D01*
X92569951Y-74437820D01*
X92694890Y-74609786D01*
X92845213Y-74760109D01*
X93017182Y-74885050D01*
X93025946Y-74889516D01*
X93076742Y-74937491D01*
X93093536Y-75005312D01*
X93070998Y-75071447D01*
X93025946Y-75110484D01*
X93017182Y-75114949D01*
X92845213Y-75239890D01*
X92694890Y-75390213D01*
X92569951Y-75562179D01*
X92473444Y-75751585D01*
X92407753Y-75953760D01*
X92374500Y-76163713D01*
X92374500Y-76376286D01*
X92406870Y-76580666D01*
X92407754Y-76586243D01*
X92473369Y-76788184D01*
X92475364Y-76858023D01*
X92439284Y-76917856D01*
X92376583Y-76948684D01*
X92355438Y-76950500D01*
X91889281Y-76950500D01*
X91822242Y-76930815D01*
X91801600Y-76914181D01*
X91000013Y-76112593D01*
X91000010Y-76112590D01*
X90965921Y-76089813D01*
X90965920Y-76089812D01*
X90961660Y-76086966D01*
X90897233Y-76043917D01*
X90848142Y-76023583D01*
X90783035Y-75996614D01*
X90783032Y-75996613D01*
X90783028Y-75996612D01*
X90661807Y-75972500D01*
X90661803Y-75972500D01*
X80011281Y-75972500D01*
X79944242Y-75952815D01*
X79923600Y-75936181D01*
X79608600Y-75621181D01*
X79575115Y-75559858D01*
X79580099Y-75490166D01*
X79621971Y-75434233D01*
X79687435Y-75409816D01*
X79696281Y-75409500D01*
X89079804Y-75409500D01*
X89079805Y-75409499D01*
X89201035Y-75385386D01*
X89281784Y-75351937D01*
X89315233Y-75338083D01*
X89418008Y-75269411D01*
X89505411Y-75182008D01*
X92568582Y-72118836D01*
X92629903Y-72085353D01*
X92699595Y-72090337D01*
G37*
%TD.AperFunction*%
%TA.AperFunction,Conductor*%
G36*
X95799075Y-73922993D02*
G01*
X95864901Y-74037007D01*
X95957993Y-74130099D01*
X96072007Y-74195925D01*
X96135590Y-74212962D01*
X95503282Y-74845269D01*
X95503282Y-74845270D01*
X95557452Y-74884626D01*
X95557451Y-74884626D01*
X95566495Y-74889234D01*
X95617292Y-74937208D01*
X95634087Y-75005029D01*
X95611550Y-75071164D01*
X95566499Y-75110202D01*
X95557182Y-75114949D01*
X95385213Y-75239890D01*
X95234890Y-75390213D01*
X95109949Y-75562182D01*
X95105484Y-75570946D01*
X95057509Y-75621742D01*
X94989688Y-75638536D01*
X94923553Y-75615998D01*
X94884516Y-75570946D01*
X94880050Y-75562182D01*
X94755109Y-75390213D01*
X94604786Y-75239890D01*
X94432820Y-75114951D01*
X94432115Y-75114591D01*
X94424054Y-75110485D01*
X94373259Y-75062512D01*
X94356463Y-74994692D01*
X94378999Y-74928556D01*
X94424054Y-74889515D01*
X94432816Y-74885051D01*
X94530997Y-74813719D01*
X94604786Y-74760109D01*
X94604788Y-74760106D01*
X94604792Y-74760104D01*
X94755104Y-74609792D01*
X94755106Y-74609788D01*
X94755109Y-74609786D01*
X94840890Y-74491717D01*
X94880051Y-74437816D01*
X94884793Y-74428508D01*
X94932763Y-74377711D01*
X95000583Y-74360911D01*
X95066719Y-74383445D01*
X95105763Y-74428500D01*
X95110373Y-74437547D01*
X95149728Y-74491716D01*
X95782037Y-73859408D01*
X95799075Y-73922993D01*
G37*
%TD.AperFunction*%
%TA.AperFunction,Conductor*%
G36*
X90052758Y-72647185D02*
G01*
X90098513Y-72699989D01*
X90108457Y-72769147D01*
X90079432Y-72832703D01*
X90073400Y-72839181D01*
X88794400Y-74118181D01*
X88733077Y-74151666D01*
X88706719Y-74154500D01*
X75176569Y-74154500D01*
X75158406Y-74149166D01*
X75139480Y-74148823D01*
X75125576Y-74139526D01*
X75109530Y-74134815D01*
X75097135Y-74120510D01*
X75081397Y-74109988D01*
X75066062Y-74084650D01*
X75063775Y-74082011D01*
X75062858Y-74079955D01*
X75062428Y-74078967D01*
X74998013Y-73923453D01*
X74988786Y-73909645D01*
X74984354Y-73899453D01*
X74981336Y-73875372D01*
X74974085Y-73852212D01*
X74977071Y-73841326D01*
X74975668Y-73830126D01*
X74986148Y-73808237D01*
X74992569Y-73784832D01*
X74994952Y-73781123D01*
X74998013Y-73776544D01*
X75065894Y-73612663D01*
X75071849Y-73582724D01*
X75082873Y-73527308D01*
X75115258Y-73465397D01*
X75175974Y-73430823D01*
X75204490Y-73427500D01*
X85261804Y-73427500D01*
X85261805Y-73427499D01*
X85383035Y-73403386D01*
X85463784Y-73369937D01*
X85497233Y-73356083D01*
X85600008Y-73287411D01*
X85687411Y-73200008D01*
X86223600Y-72663819D01*
X86284923Y-72630334D01*
X86311281Y-72627500D01*
X89985719Y-72627500D01*
X90052758Y-72647185D01*
G37*
%TD.AperFunction*%
%TA.AperFunction,Conductor*%
G36*
X95066444Y-71843999D02*
G01*
X95105486Y-71889056D01*
X95109951Y-71897820D01*
X95234890Y-72069786D01*
X95385213Y-72220109D01*
X95557179Y-72345048D01*
X95557181Y-72345049D01*
X95557184Y-72345051D01*
X95566493Y-72349794D01*
X95617290Y-72397766D01*
X95634087Y-72465587D01*
X95611552Y-72531722D01*
X95566505Y-72570760D01*
X95557446Y-72575376D01*
X95557440Y-72575380D01*
X95503282Y-72614727D01*
X95503282Y-72614728D01*
X96135591Y-73247037D01*
X96072007Y-73264075D01*
X95957993Y-73329901D01*
X95864901Y-73422993D01*
X95799075Y-73537007D01*
X95782037Y-73600591D01*
X95149728Y-72968282D01*
X95149727Y-72968282D01*
X95110380Y-73022440D01*
X95110376Y-73022446D01*
X95105760Y-73031505D01*
X95057781Y-73082297D01*
X94989959Y-73099087D01*
X94923826Y-73076543D01*
X94884794Y-73031493D01*
X94880051Y-73022184D01*
X94880049Y-73022181D01*
X94880048Y-73022179D01*
X94755109Y-72850213D01*
X94604786Y-72699890D01*
X94432820Y-72574951D01*
X94424600Y-72570763D01*
X94424054Y-72570485D01*
X94373259Y-72522512D01*
X94356463Y-72454692D01*
X94378999Y-72388556D01*
X94424054Y-72349515D01*
X94432816Y-72345051D01*
X94471897Y-72316657D01*
X94604786Y-72220109D01*
X94604788Y-72220106D01*
X94604792Y-72220104D01*
X94755104Y-72069792D01*
X94755106Y-72069788D01*
X94755109Y-72069786D01*
X94880048Y-71897820D01*
X94880047Y-71897820D01*
X94880051Y-71897816D01*
X94884514Y-71889054D01*
X94932488Y-71838259D01*
X95000308Y-71821463D01*
X95066444Y-71843999D01*
G37*
%TD.AperFunction*%
%TA.AperFunction,Conductor*%
G36*
X87315539Y-46647185D02*
G01*
X87361294Y-46699989D01*
X87372500Y-46751500D01*
X87372500Y-50078240D01*
X87352815Y-50145279D01*
X87300011Y-50191034D01*
X87230853Y-50200978D01*
X87201052Y-50192803D01*
X87123632Y-50160735D01*
X87123625Y-50160733D01*
X87123624Y-50160733D01*
X87123624Y-50160732D01*
X86949660Y-50126129D01*
X86949657Y-50126129D01*
X86772275Y-50126129D01*
X86772272Y-50126129D01*
X86598307Y-50160732D01*
X86598298Y-50160735D01*
X86434425Y-50228612D01*
X86434412Y-50228619D01*
X86286931Y-50327164D01*
X86286927Y-50327167D01*
X86161504Y-50452590D01*
X86161501Y-50452594D01*
X86062956Y-50600075D01*
X86062949Y-50600088D01*
X85995072Y-50763961D01*
X85995069Y-50763970D01*
X85960466Y-50937933D01*
X85960466Y-51115324D01*
X85995069Y-51289287D01*
X85995072Y-51289296D01*
X86062949Y-51453169D01*
X86062956Y-51453182D01*
X86161500Y-51600662D01*
X86161501Y-51600663D01*
X86161502Y-51600664D01*
X86185181Y-51624343D01*
X86218666Y-51685664D01*
X86221500Y-51712024D01*
X86221500Y-59784688D01*
X86201815Y-59851727D01*
X86149011Y-59897482D01*
X86079853Y-59907426D01*
X86050053Y-59899251D01*
X86043670Y-59896607D01*
X86043658Y-59896603D01*
X85869694Y-59862000D01*
X85869691Y-59862000D01*
X85805500Y-59862000D01*
X85738461Y-59842315D01*
X85692706Y-59789511D01*
X85681500Y-59738000D01*
X85681500Y-52872196D01*
X85681499Y-52872192D01*
X85657387Y-52750973D01*
X85657386Y-52750966D01*
X85612407Y-52642379D01*
X85610763Y-52637784D01*
X85541414Y-52533996D01*
X85541413Y-52533994D01*
X85541411Y-52533992D01*
X85454008Y-52446589D01*
X83866819Y-50859400D01*
X83833334Y-50798077D01*
X83830500Y-50771719D01*
X83830500Y-50721306D01*
X83830499Y-50721304D01*
X83795896Y-50547341D01*
X83795893Y-50547332D01*
X83728016Y-50383459D01*
X83728009Y-50383446D01*
X83629464Y-50235965D01*
X83629461Y-50235961D01*
X83504038Y-50110538D01*
X83504034Y-50110535D01*
X83356553Y-50011990D01*
X83356540Y-50011983D01*
X83192667Y-49944106D01*
X83192658Y-49944103D01*
X83018694Y-49909500D01*
X83018691Y-49909500D01*
X82841309Y-49909500D01*
X82841306Y-49909500D01*
X82667341Y-49944103D01*
X82667332Y-49944106D01*
X82503459Y-50011983D01*
X82503446Y-50011990D01*
X82355965Y-50110535D01*
X82355961Y-50110538D01*
X82230538Y-50235961D01*
X82230535Y-50235965D01*
X82131990Y-50383446D01*
X82131983Y-50383459D01*
X82064106Y-50547332D01*
X82064103Y-50547341D01*
X82029500Y-50721304D01*
X82029500Y-50898690D01*
X82038473Y-50943803D01*
X82032244Y-51013394D01*
X81989381Y-51068571D01*
X81923491Y-51091815D01*
X81855494Y-51075747D01*
X81829174Y-51055674D01*
X81774038Y-51000538D01*
X81774034Y-51000535D01*
X81626553Y-50901990D01*
X81626540Y-50901983D01*
X81462667Y-50834106D01*
X81462658Y-50834103D01*
X81288694Y-50799500D01*
X81288691Y-50799500D01*
X81111309Y-50799500D01*
X81111306Y-50799500D01*
X80937341Y-50834103D01*
X80937332Y-50834106D01*
X80773459Y-50901983D01*
X80773446Y-50901990D01*
X80625965Y-51000535D01*
X80625961Y-51000538D01*
X80500538Y-51125961D01*
X80500535Y-51125965D01*
X80401990Y-51273446D01*
X80401983Y-51273459D01*
X80334106Y-51437332D01*
X80334103Y-51437341D01*
X80299500Y-51611304D01*
X80299500Y-51788695D01*
X80333421Y-51959226D01*
X80327194Y-52028817D01*
X80284331Y-52083995D01*
X80218441Y-52107239D01*
X80211804Y-52107417D01*
X76826198Y-52107417D01*
X76759159Y-52087732D01*
X76738517Y-52071098D01*
X76256819Y-51589400D01*
X76223334Y-51528077D01*
X76220500Y-51501719D01*
X76220500Y-51451306D01*
X76220499Y-51451304D01*
X76185896Y-51277341D01*
X76185893Y-51277332D01*
X76184283Y-51273446D01*
X76122303Y-51123809D01*
X76118016Y-51113459D01*
X76118009Y-51113446D01*
X76019464Y-50965965D01*
X76019461Y-50965961D01*
X75894038Y-50840538D01*
X75894034Y-50840535D01*
X75746553Y-50741990D01*
X75746540Y-50741983D01*
X75582667Y-50674106D01*
X75582658Y-50674103D01*
X75408694Y-50639500D01*
X75408691Y-50639500D01*
X75231309Y-50639500D01*
X75231306Y-50639500D01*
X75057341Y-50674103D01*
X75057332Y-50674106D01*
X74893459Y-50741983D01*
X74893446Y-50741990D01*
X74745965Y-50840535D01*
X74745961Y-50840538D01*
X74620538Y-50965961D01*
X74620535Y-50965965D01*
X74521990Y-51113446D01*
X74521983Y-51113459D01*
X74454106Y-51277332D01*
X74454103Y-51277341D01*
X74419500Y-51451304D01*
X74419500Y-51628695D01*
X74454103Y-51802658D01*
X74454106Y-51802667D01*
X74521983Y-51966540D01*
X74521990Y-51966553D01*
X74620535Y-52114034D01*
X74620538Y-52114038D01*
X74745961Y-52239461D01*
X74745965Y-52239464D01*
X74893446Y-52338009D01*
X74893459Y-52338016D01*
X75016363Y-52388923D01*
X75057334Y-52405894D01*
X75057336Y-52405894D01*
X75057341Y-52405896D01*
X75231304Y-52440499D01*
X75231307Y-52440500D01*
X75231309Y-52440500D01*
X75281719Y-52440500D01*
X75348758Y-52460185D01*
X75369400Y-52476819D01*
X76027506Y-53134925D01*
X76086500Y-53193919D01*
X76114911Y-53222330D01*
X76114913Y-53222331D01*
X76217673Y-53290993D01*
X76217675Y-53290994D01*
X76217684Y-53291000D01*
X76242689Y-53301357D01*
X76264988Y-53310594D01*
X76307171Y-53328066D01*
X76331883Y-53338303D01*
X76453109Y-53362416D01*
X76453113Y-53362417D01*
X76453114Y-53362417D01*
X81203802Y-53362417D01*
X81270841Y-53382102D01*
X81291483Y-53398736D01*
X82827181Y-54934434D01*
X82860666Y-54995757D01*
X82863500Y-55022115D01*
X82863500Y-62554636D01*
X82887612Y-62675857D01*
X82887613Y-62675861D01*
X82887614Y-62675864D01*
X82890885Y-62683760D01*
X82909003Y-62727500D01*
X82909003Y-62727501D01*
X82934915Y-62790058D01*
X82934920Y-62790068D01*
X83003588Y-62892836D01*
X83003591Y-62892840D01*
X83261561Y-63150809D01*
X83295046Y-63212132D01*
X83297880Y-63238490D01*
X83297880Y-63288904D01*
X83332483Y-63462867D01*
X83332486Y-63462876D01*
X83400363Y-63626749D01*
X83400370Y-63626762D01*
X83498915Y-63774243D01*
X83498918Y-63774247D01*
X83512490Y-63787819D01*
X83545975Y-63849142D01*
X83540991Y-63918834D01*
X83499119Y-63974767D01*
X83433655Y-63999184D01*
X83424809Y-63999500D01*
X79516255Y-63999500D01*
X79449216Y-63979815D01*
X79413153Y-63944391D01*
X79381464Y-63896965D01*
X79381462Y-63896962D01*
X79256038Y-63771538D01*
X79256034Y-63771535D01*
X79108553Y-63672990D01*
X79108540Y-63672983D01*
X78944667Y-63605106D01*
X78944658Y-63605103D01*
X78770694Y-63570500D01*
X78770691Y-63570500D01*
X78593309Y-63570500D01*
X78593306Y-63570500D01*
X78419341Y-63605103D01*
X78419332Y-63605106D01*
X78255459Y-63672983D01*
X78255446Y-63672990D01*
X78107965Y-63771535D01*
X78107961Y-63771538D01*
X77982538Y-63896961D01*
X77982535Y-63896965D01*
X77883990Y-64044446D01*
X77883983Y-64044459D01*
X77816106Y-64208332D01*
X77816103Y-64208341D01*
X77781500Y-64382304D01*
X77781500Y-64420354D01*
X77775867Y-64439534D01*
X77775154Y-64459515D01*
X77766224Y-64472375D01*
X77761815Y-64487393D01*
X77746709Y-64500482D01*
X77735305Y-64516907D01*
X77711356Y-64531115D01*
X77709011Y-64533148D01*
X77704951Y-64534916D01*
X77642524Y-64560773D01*
X77573055Y-64568240D01*
X77510576Y-64536965D01*
X77507392Y-64533892D01*
X77474038Y-64500538D01*
X77474032Y-64500533D01*
X77442659Y-64479570D01*
X77397855Y-64425958D01*
X77389148Y-64356633D01*
X77396990Y-64329017D01*
X77406731Y-64305498D01*
X77465894Y-64162666D01*
X77466425Y-64160001D01*
X77500499Y-63988695D01*
X77500500Y-63988693D01*
X77500500Y-63811306D01*
X77500499Y-63811304D01*
X77465896Y-63637341D01*
X77465893Y-63637332D01*
X77461509Y-63626749D01*
X77445447Y-63587970D01*
X77398016Y-63473459D01*
X77398009Y-63473446D01*
X77299464Y-63325965D01*
X77299461Y-63325961D01*
X77174038Y-63200538D01*
X77174034Y-63200535D01*
X77026553Y-63101990D01*
X77026540Y-63101983D01*
X76862667Y-63034106D01*
X76862658Y-63034103D01*
X76688694Y-62999500D01*
X76688691Y-62999500D01*
X76511309Y-62999500D01*
X76511306Y-62999500D01*
X76337341Y-63034103D01*
X76337332Y-63034106D01*
X76173459Y-63101983D01*
X76173446Y-63101990D01*
X76025965Y-63200535D01*
X76025961Y-63200538D01*
X75911681Y-63314819D01*
X75850358Y-63348304D01*
X75780666Y-63343320D01*
X75724733Y-63301448D01*
X75700316Y-63235984D01*
X75700000Y-63227138D01*
X75700000Y-55700000D01*
X72232559Y-52232559D01*
X72234535Y-52230582D01*
X72213356Y-52213513D01*
X72191293Y-52147218D01*
X72208574Y-52079520D01*
X72259713Y-52031911D01*
X72267750Y-52028239D01*
X72310547Y-52010513D01*
X72458035Y-51911964D01*
X72583464Y-51786535D01*
X72682013Y-51639047D01*
X72749894Y-51475166D01*
X72750106Y-51474103D01*
X72784499Y-51301195D01*
X72784500Y-51301193D01*
X72784500Y-51123806D01*
X72784499Y-51123804D01*
X72749896Y-50949841D01*
X72749893Y-50949832D01*
X72744966Y-50937938D01*
X72728710Y-50898690D01*
X72682016Y-50785959D01*
X72682009Y-50785946D01*
X72583464Y-50638465D01*
X72583461Y-50638461D01*
X72458038Y-50513038D01*
X72458034Y-50513035D01*
X72310553Y-50414490D01*
X72310540Y-50414483D01*
X72146667Y-50346606D01*
X72146658Y-50346603D01*
X71972694Y-50312000D01*
X71972691Y-50312000D01*
X71795309Y-50312000D01*
X71795306Y-50312000D01*
X71621341Y-50346603D01*
X71621332Y-50346606D01*
X71457459Y-50414483D01*
X71457446Y-50414490D01*
X71309965Y-50513035D01*
X71309961Y-50513038D01*
X71184538Y-50638461D01*
X71184535Y-50638465D01*
X71085990Y-50785946D01*
X71085983Y-50785959D01*
X71018106Y-50949832D01*
X71018103Y-50949841D01*
X70983500Y-51123804D01*
X70983500Y-51301195D01*
X71018103Y-51475158D01*
X71018106Y-51475167D01*
X71085983Y-51639040D01*
X71085990Y-51639053D01*
X71184535Y-51786534D01*
X71184538Y-51786538D01*
X71309961Y-51911961D01*
X71309965Y-51911964D01*
X71457446Y-52010509D01*
X71457450Y-52010511D01*
X71457453Y-52010513D01*
X71458571Y-52010976D01*
X71459688Y-52011439D01*
X71460677Y-52012236D01*
X71462823Y-52013383D01*
X71462605Y-52013790D01*
X71514091Y-52055280D01*
X71536156Y-52121575D01*
X71518876Y-52189274D01*
X71467739Y-52236884D01*
X71412235Y-52250000D01*
X63499999Y-52250000D01*
X61750000Y-53999999D01*
X61750000Y-62576000D01*
X61730315Y-62643039D01*
X61677511Y-62688794D01*
X61626000Y-62700000D01*
X57350000Y-62700000D01*
X56650000Y-63500000D01*
X56650000Y-63500001D01*
X56650000Y-64537999D01*
X56630315Y-64605038D01*
X56600400Y-64637199D01*
X56250000Y-64899999D01*
X56250000Y-68548500D01*
X56230315Y-68615539D01*
X56177511Y-68661294D01*
X56126000Y-68672500D01*
X54111281Y-68672500D01*
X54044242Y-68652815D01*
X54023600Y-68636181D01*
X51511818Y-66124399D01*
X51478333Y-66063076D01*
X51475499Y-66036718D01*
X51475499Y-64849998D01*
X51475498Y-64849981D01*
X51464999Y-64747203D01*
X51464998Y-64747200D01*
X51459137Y-64729514D01*
X51409814Y-64580666D01*
X51317712Y-64431344D01*
X51193656Y-64307288D01*
X51044334Y-64215186D01*
X51044333Y-64215185D01*
X51038878Y-64211821D01*
X50992154Y-64159873D01*
X50980931Y-64090910D01*
X51008775Y-64026828D01*
X51016272Y-64018623D01*
X51155104Y-63879792D01*
X51177373Y-63849142D01*
X51280048Y-63707820D01*
X51280047Y-63707820D01*
X51280051Y-63707816D01*
X51376557Y-63518412D01*
X51442246Y-63316243D01*
X51475500Y-63106287D01*
X51475500Y-62893713D01*
X51442246Y-62683757D01*
X51376557Y-62481588D01*
X51280051Y-62292184D01*
X51280049Y-62292181D01*
X51280048Y-62292179D01*
X51155109Y-62120213D01*
X51004790Y-61969894D01*
X51004785Y-61969890D01*
X50839781Y-61850008D01*
X50797115Y-61794678D01*
X50791136Y-61725065D01*
X50823741Y-61663270D01*
X50839781Y-61649371D01*
X51004466Y-61529721D01*
X51154723Y-61379464D01*
X51154727Y-61379459D01*
X51279620Y-61207557D01*
X51376095Y-61018217D01*
X51441757Y-60816129D01*
X51441757Y-60816126D01*
X51452231Y-60750000D01*
X50404146Y-60750000D01*
X50442630Y-60683343D01*
X50475000Y-60562535D01*
X50475000Y-60437465D01*
X50442630Y-60316657D01*
X50404146Y-60250000D01*
X51452231Y-60250000D01*
X51441757Y-60183873D01*
X51441757Y-60183870D01*
X51376095Y-59981782D01*
X51279620Y-59792442D01*
X51154727Y-59620540D01*
X51154723Y-59620535D01*
X51004464Y-59470276D01*
X51004459Y-59470272D01*
X50832557Y-59345379D01*
X50643217Y-59248904D01*
X50441128Y-59183242D01*
X50250000Y-59152969D01*
X50250000Y-60095854D01*
X50183343Y-60057370D01*
X50062535Y-60025000D01*
X49937465Y-60025000D01*
X49816657Y-60057370D01*
X49750000Y-60095854D01*
X49750000Y-59166703D01*
X49693266Y-59133309D01*
X49674173Y-59112945D01*
X49652817Y-59094967D01*
X49650603Y-59087806D01*
X49645477Y-59082339D01*
X49640424Y-59054884D01*
X49632179Y-59028215D01*
X49634187Y-59020994D01*
X49632831Y-59013623D01*
X49643423Y-58987795D01*
X49650905Y-58960902D01*
X49658242Y-58951663D01*
X49659343Y-58948979D01*
X49661662Y-58947356D01*
X49668477Y-58938775D01*
X61943434Y-46663819D01*
X62004757Y-46630334D01*
X62031115Y-46627500D01*
X87248500Y-46627500D01*
X87315539Y-46647185D01*
G37*
%TD.AperFunction*%
%TA.AperFunction,Conductor*%
G36*
X61693039Y-63019685D02*
G01*
X61738794Y-63072489D01*
X61750000Y-63124000D01*
X61750000Y-66400000D01*
X62650000Y-67300000D01*
X71636033Y-67300000D01*
X71703072Y-67319685D01*
X71748827Y-67372489D01*
X71758771Y-67441647D01*
X71739135Y-67492891D01*
X71691990Y-67563447D01*
X71691983Y-67563459D01*
X71624106Y-67727332D01*
X71624103Y-67727341D01*
X71589500Y-67901304D01*
X71589500Y-68078695D01*
X71624103Y-68252658D01*
X71624106Y-68252667D01*
X71691983Y-68416540D01*
X71691990Y-68416553D01*
X71734123Y-68479609D01*
X71755001Y-68546287D01*
X71736516Y-68613667D01*
X71684538Y-68660357D01*
X71631021Y-68672500D01*
X56674000Y-68672500D01*
X56606961Y-68652815D01*
X56561206Y-68600011D01*
X56550000Y-68548500D01*
X56550000Y-64962000D01*
X56569685Y-64894961D01*
X56599600Y-64862800D01*
X56950000Y-64600000D01*
X56950000Y-63543497D01*
X56969685Y-63476458D01*
X56977172Y-63466035D01*
X57312770Y-63046538D01*
X57370021Y-63006486D01*
X57409598Y-63000000D01*
X61626000Y-63000000D01*
X61693039Y-63019685D01*
G37*
%TD.AperFunction*%
%TA.AperFunction,Conductor*%
G36*
X95799075Y-56142993D02*
G01*
X95864901Y-56257007D01*
X95957993Y-56350099D01*
X96072007Y-56415925D01*
X96135590Y-56432962D01*
X95503282Y-57065269D01*
X95503282Y-57065270D01*
X95557452Y-57104626D01*
X95557451Y-57104626D01*
X95566495Y-57109234D01*
X95617292Y-57157208D01*
X95634087Y-57225029D01*
X95611550Y-57291164D01*
X95566499Y-57330202D01*
X95557182Y-57334949D01*
X95385213Y-57459890D01*
X95234890Y-57610213D01*
X95109949Y-57782182D01*
X95105484Y-57790946D01*
X95057509Y-57841742D01*
X94989688Y-57858536D01*
X94923553Y-57835998D01*
X94884516Y-57790946D01*
X94880050Y-57782182D01*
X94755109Y-57610213D01*
X94604786Y-57459890D01*
X94432820Y-57334951D01*
X94432115Y-57334591D01*
X94424054Y-57330485D01*
X94373259Y-57282512D01*
X94356463Y-57214692D01*
X94378999Y-57148556D01*
X94424054Y-57109515D01*
X94432816Y-57105051D01*
X94487572Y-57065269D01*
X94604786Y-56980109D01*
X94604788Y-56980106D01*
X94604792Y-56980104D01*
X94755104Y-56829792D01*
X94755106Y-56829788D01*
X94755109Y-56829786D01*
X94840890Y-56711717D01*
X94880051Y-56657816D01*
X94884793Y-56648508D01*
X94932763Y-56597711D01*
X95000583Y-56580911D01*
X95066719Y-56603445D01*
X95105763Y-56648500D01*
X95110373Y-56657547D01*
X95149728Y-56711716D01*
X95782037Y-56079408D01*
X95799075Y-56142993D01*
G37*
%TD.AperFunction*%
%TD*%
M02*
