%TF.GenerationSoftware,KiCad,Pcbnew,9.0.7*%
%TF.CreationDate,2026-03-16T17:27:03+01:00*%
%TF.ProjectId,BLDC-Control-Board,424c4443-2d43-46f6-9e74-726f6c2d426f,rev?*%
%TF.SameCoordinates,Original*%
%TF.FileFunction,Copper,L2,Inr*%
%TF.FilePolarity,Positive*%
%FSLAX46Y46*%
G04 Gerber Fmt 4.6, Leading zero omitted, Abs format (unit mm)*
G04 Created by KiCad (PCBNEW 9.0.7) date 2026-03-16 17:27:03*
%MOMM*%
%LPD*%
G01*
G04 APERTURE LIST*
G04 Aperture macros list*
%AMRoundRect*
0 Rectangle with rounded corners*
0 $1 Rounding radius*
0 $2 $3 $4 $5 $6 $7 $8 $9 X,Y pos of 4 corners*
0 Add a 4 corners polygon primitive as box body*
4,1,4,$2,$3,$4,$5,$6,$7,$8,$9,$2,$3,0*
0 Add four circle primitives for the rounded corners*
1,1,$1+$1,$2,$3*
1,1,$1+$1,$4,$5*
1,1,$1+$1,$6,$7*
1,1,$1+$1,$8,$9*
0 Add four rect primitives between the rounded corners*
20,1,$1+$1,$2,$3,$4,$5,0*
20,1,$1+$1,$4,$5,$6,$7,0*
20,1,$1+$1,$6,$7,$8,$9,0*
20,1,$1+$1,$8,$9,$2,$3,0*%
G04 Aperture macros list end*
%TA.AperFunction,ComponentPad*%
%ADD10C,5.600000*%
%TD*%
%TA.AperFunction,ComponentPad*%
%ADD11RoundRect,0.250000X0.725000X-0.600000X0.725000X0.600000X-0.725000X0.600000X-0.725000X-0.600000X0*%
%TD*%
%TA.AperFunction,ComponentPad*%
%ADD12O,1.950000X1.700000*%
%TD*%
%TA.AperFunction,ComponentPad*%
%ADD13R,1.700000X1.700000*%
%TD*%
%TA.AperFunction,ComponentPad*%
%ADD14C,1.700000*%
%TD*%
%TA.AperFunction,ViaPad*%
%ADD15C,0.800000*%
%TD*%
%TA.AperFunction,Conductor*%
%ADD16C,0.254000*%
%TD*%
G04 APERTURE END LIST*
D10*
%TO.N,Earth*%
%TO.C,H3*%
X95000000Y-105000000D03*
%TD*%
D11*
%TO.N,UART_RX*%
%TO.C,J4*%
X50000000Y-77500000D03*
D12*
%TO.N,UART_TX*%
X50000000Y-75000000D03*
%TO.N,Earth*%
X50000000Y-72500000D03*
%TD*%
D10*
%TO.N,Earth*%
%TO.C,H2*%
X95000000Y-45000000D03*
%TD*%
D13*
%TO.N,CAN_L*%
%TO.C,J6*%
X55275000Y-95000000D03*
D14*
%TO.N,Net-(J6-Pin_2)*%
X52735000Y-95000000D03*
%TD*%
D11*
%TO.N,CAN_H*%
%TO.C,J5*%
X50000000Y-89500000D03*
D12*
%TO.N,CAN_L*%
X50000000Y-87000000D03*
%TO.N,Earth*%
X50000000Y-84500000D03*
%TD*%
D10*
%TO.N,Earth*%
%TO.C,H4*%
X50000000Y-105000000D03*
%TD*%
%TO.N,Earth*%
%TO.C,H1*%
X50000000Y-45000000D03*
%TD*%
D11*
%TO.N,I2C-SDA*%
%TO.C,J1*%
X50000000Y-65500000D03*
D12*
%TO.N,I2C-SCL*%
X50000000Y-63000000D03*
%TO.N,Earth*%
X50000000Y-60500000D03*
%TD*%
D13*
%TO.N,VHALL*%
%TO.C,J3*%
X93725000Y-94050000D03*
D14*
%TO.N,Earth*%
X96265000Y-94050000D03*
%TO.N,GLS1*%
X93725000Y-91510000D03*
%TO.N,VSHUNT3N*%
X96265000Y-91510000D03*
%TO.N,GLS2*%
X93725000Y-88970000D03*
%TO.N,VSHUNT3P*%
X96265000Y-88970000D03*
%TO.N,GLS3*%
X93725000Y-86430000D03*
%TO.N,VSHUNT2N*%
X96265000Y-86430000D03*
%TO.N,BOOT3*%
X93725000Y-83890000D03*
%TO.N,VSHUNT2P*%
X96265000Y-83890000D03*
%TO.N,OUT3*%
X93725000Y-81350000D03*
%TO.N,VSHUNT1N*%
X96265000Y-81350000D03*
%TO.N,GHS3*%
X93725000Y-78810000D03*
%TO.N,VSHUNT1P*%
X96265000Y-78810000D03*
%TO.N,BOOT2*%
X93725000Y-76270000D03*
%TO.N,VOUT3*%
X96265000Y-76270000D03*
%TO.N,OUT2*%
X93725000Y-73730000D03*
%TO.N,Earth*%
X96265000Y-73730000D03*
%TO.N,GHS2*%
X93725000Y-71190000D03*
%TO.N,VOUT2*%
X96265000Y-71190000D03*
%TO.N,BOOT1*%
X93725000Y-68650000D03*
%TO.N,VOUT1*%
X96265000Y-68650000D03*
%TO.N,OUT1*%
X93725000Y-66110000D03*
%TO.N,VCOULING*%
X96265000Y-66110000D03*
%TO.N,GHS1*%
X93725000Y-63570000D03*
%TO.N,TEMP_SENSOR*%
X96265000Y-63570000D03*
%TO.N,HALL2*%
X93725000Y-61030000D03*
%TO.N,HALL1*%
X96265000Y-61030000D03*
%TO.N,HALL3*%
X93725000Y-58490000D03*
%TO.N,VBAT*%
X96265000Y-58490000D03*
%TO.N,VM*%
X93725000Y-55950000D03*
%TO.N,Earth*%
X96265000Y-55950000D03*
%TD*%
D15*
%TO.N,Earth*%
X80600000Y-75700000D03*
%TO.N,VHALL*%
X72600000Y-91494084D03*
%TO.N,VBAT*%
X63230000Y-80700000D03*
X84830000Y-83730000D03*
X74050000Y-70350000D03*
X55780000Y-85030000D03*
X75000000Y-91150000D03*
X71884000Y-51212500D03*
X76600000Y-63900000D03*
X90700000Y-91750000D03*
%TO.N,VM*%
X85781000Y-60762500D03*
X62500000Y-77000000D03*
%TO.N,OPO2*%
X73600000Y-80800000D03*
X82910000Y-88751000D03*
%TO.N,OPN2*%
X72800000Y-80100000D03*
X81230000Y-88750000D03*
%TO.N,OPO3*%
X84530000Y-88751000D03*
X77160000Y-82230000D03*
%TO.N,OPN3*%
X86250000Y-88751000D03*
X77877000Y-81170000D03*
%TO.N,REGIN*%
X71500000Y-98500000D03*
X72490000Y-67990000D03*
%TO.N,TEMP_SENSOR*%
X74871000Y-84031416D03*
%TO.N,OPP3*%
X76874000Y-79670000D03*
X87790000Y-88751000D03*
%TO.N,CAN_TX*%
X62600000Y-90150000D03*
X83513751Y-68340751D03*
%TO.N,HALL3*%
X77966753Y-65401168D03*
%TO.N,SWDIO-JTMS*%
X84198380Y-63200209D03*
X75320000Y-51540000D03*
%TO.N,VCOULING*%
X72820000Y-78970000D03*
%TO.N,CAN_STBY*%
X71470000Y-71569000D03*
X55770000Y-91610000D03*
%TO.N,I2C-SCL*%
X80500000Y-67492000D03*
%TO.N,I2C-SDA*%
X76900000Y-65200000D03*
%TO.N,SWCLK-JTCK*%
X81200000Y-51700000D03*
X84273000Y-62100000D03*
%TO.N,HALL1*%
X78200000Y-67485933D03*
%TO.N,CAN_RX*%
X61500000Y-85000000D03*
X84460400Y-67546000D03*
%TO.N,VOUT3*%
X74200000Y-75350003D03*
%TO.N,VOUT2*%
X74200000Y-74350000D03*
%TO.N,VOUT1*%
X74200000Y-73349997D03*
%TO.N,UART_TX*%
X88000000Y-46000000D03*
X87630000Y-63720000D03*
%TO.N,UART_RX*%
X88781000Y-48500000D03*
X86849000Y-62920000D03*
X86860966Y-51026629D03*
%TO.N,SWO-JTDO*%
X82930000Y-50810000D03*
X78682000Y-64471000D03*
%TO.N,HALL2*%
X78220000Y-66424294D03*
%TO.N,VSHUNT2N*%
X83000000Y-93950000D03*
%TO.N,VSHUNT1P*%
X68012728Y-84378227D03*
%TO.N,VSHUNT2P*%
X76077251Y-91931000D03*
%TO.N,VSHUNT1N*%
X67800000Y-83350000D03*
%TO.N,Earth*%
X65000000Y-42500000D03*
X62500000Y-102500000D03*
X62500000Y-50000000D03*
X60000000Y-92500000D03*
X55000000Y-55000000D03*
X82500000Y-95000000D03*
X75000000Y-97500000D03*
X67500000Y-100000000D03*
X90000000Y-105000000D03*
X77500000Y-97500000D03*
X60000000Y-60000000D03*
X72500000Y-97500000D03*
X60000000Y-107500000D03*
X80000000Y-107500000D03*
X60000000Y-50000000D03*
X95000000Y-52500000D03*
X65000000Y-105000000D03*
X87500000Y-97500000D03*
X80000000Y-55000000D03*
X57500000Y-107500000D03*
X75000000Y-107500000D03*
X92500000Y-100000000D03*
X80000000Y-102500000D03*
X92500000Y-50000000D03*
X77500000Y-105000000D03*
X52500000Y-50000000D03*
X75000000Y-100000000D03*
X75000000Y-95000000D03*
X50000000Y-55000000D03*
X65000000Y-102500000D03*
X65000000Y-107500000D03*
X82500000Y-102500000D03*
X75000000Y-102500000D03*
X87500000Y-102500000D03*
X62500000Y-100000000D03*
X90000000Y-95000000D03*
X81500000Y-62500000D03*
X57500000Y-100000000D03*
X62500000Y-95000000D03*
X92500000Y-97500000D03*
X60000000Y-80000000D03*
X81750000Y-78100002D03*
X52500000Y-97500000D03*
X75000000Y-105000000D03*
X95000000Y-100000000D03*
X85000000Y-100000000D03*
X90000000Y-80000000D03*
X85000000Y-105000000D03*
X90000000Y-52500000D03*
X50000000Y-97500000D03*
X67500000Y-102500000D03*
X47500000Y-52500000D03*
X95000000Y-50000000D03*
X60000000Y-102500000D03*
X55000000Y-105000000D03*
X72500000Y-100000000D03*
X78000000Y-76750000D03*
X60000000Y-97500000D03*
X82500000Y-82500000D03*
X90000000Y-102500000D03*
X87500000Y-100000000D03*
X82500000Y-100000000D03*
X80000000Y-95000000D03*
X57500000Y-82500000D03*
X54490000Y-92130000D03*
X57500000Y-60000000D03*
X97500000Y-100000000D03*
X92500000Y-52500000D03*
X57500000Y-105000000D03*
X77500000Y-102500000D03*
X95000000Y-97500000D03*
X57500000Y-57500000D03*
X62500000Y-97500000D03*
X57500000Y-77500000D03*
X80000000Y-57500000D03*
X82500000Y-55000000D03*
X85000000Y-82500000D03*
X85000000Y-102500000D03*
X87500000Y-95000000D03*
X50000000Y-100000000D03*
X77500000Y-87500000D03*
X47500000Y-95000000D03*
X62500000Y-72500000D03*
X72500000Y-95000000D03*
X77500000Y-95000000D03*
X70000000Y-102500000D03*
X62500000Y-107500000D03*
X90000000Y-60000000D03*
X57500000Y-42500000D03*
X80000000Y-97500000D03*
X70000000Y-105000000D03*
X60000000Y-105000000D03*
X82500000Y-97500000D03*
X77500000Y-107500000D03*
X62500000Y-105000000D03*
X97500000Y-97500000D03*
X82500000Y-105000000D03*
X75240000Y-80630000D03*
X90000000Y-42500000D03*
X55000000Y-75000000D03*
X70000000Y-107500000D03*
X59000000Y-68500000D03*
X47500000Y-55000000D03*
X60000000Y-100000000D03*
X47500000Y-100000000D03*
X60000000Y-55000000D03*
X82500000Y-107500000D03*
X57500000Y-47500000D03*
X61000000Y-64000000D03*
X87500000Y-107500000D03*
X82500000Y-57500000D03*
X55000000Y-50000000D03*
X55000000Y-42500000D03*
X90000000Y-45000000D03*
X67500000Y-105000000D03*
X80500000Y-74000000D03*
X57500000Y-45000000D03*
X57500000Y-52500000D03*
X77500000Y-55000000D03*
X57500000Y-55000000D03*
X85000000Y-107500000D03*
X62500000Y-82500000D03*
X72500000Y-107500000D03*
X55000000Y-107500000D03*
X55000000Y-45000000D03*
X57500000Y-102500000D03*
X80000000Y-100000000D03*
X55000000Y-47500000D03*
X57500000Y-97500000D03*
X55000000Y-102500000D03*
X90000000Y-47500000D03*
X52500000Y-52500000D03*
X52500000Y-100000000D03*
X80000000Y-105000000D03*
X50000000Y-52500000D03*
X47500000Y-50000000D03*
X77500000Y-57500000D03*
X65000000Y-100000000D03*
X87500000Y-105000000D03*
X60000000Y-57500000D03*
X55000000Y-97500000D03*
X60000000Y-95000000D03*
X63000000Y-68000000D03*
X97500000Y-50000000D03*
X47500000Y-97500000D03*
X60000000Y-45000000D03*
X72500000Y-105000000D03*
X90000000Y-107500000D03*
X60000000Y-52500000D03*
X67500000Y-107500000D03*
X72500000Y-102500000D03*
X57500000Y-80000000D03*
X50000000Y-50000000D03*
X67500000Y-50000000D03*
X65000000Y-50000000D03*
X77500000Y-100000000D03*
X87500000Y-85000000D03*
X85000000Y-97500000D03*
X90000000Y-100000000D03*
X90000000Y-50000000D03*
X55000000Y-100000000D03*
X97500000Y-52500000D03*
X90000000Y-97500000D03*
%TD*%
D16*
%TO.N,Earth*%
X95033000Y-72498000D02*
X92702000Y-72498000D01*
X96265000Y-73730000D02*
X95033000Y-72498000D01*
X95033000Y-74962000D02*
X92762000Y-74962000D01*
X96265000Y-73730000D02*
X95033000Y-74962000D01*
%TD*%
%TA.AperFunction,Conductor*%
%TO.N,Earth*%
G36*
X95002702Y-40300617D02*
G01*
X95404202Y-40318147D01*
X95414937Y-40319087D01*
X95810693Y-40371189D01*
X95821331Y-40373064D01*
X96211043Y-40459462D01*
X96221483Y-40462260D01*
X96602168Y-40582289D01*
X96612315Y-40585982D01*
X96981102Y-40738739D01*
X96990893Y-40743305D01*
X97344942Y-40927611D01*
X97354310Y-40933019D01*
X97690959Y-41147488D01*
X97699820Y-41153693D01*
X98016487Y-41396680D01*
X98024774Y-41403634D01*
X98319056Y-41673294D01*
X98326705Y-41680943D01*
X98596365Y-41975225D01*
X98603319Y-41983512D01*
X98846306Y-42300179D01*
X98852511Y-42309040D01*
X99066980Y-42645689D01*
X99072388Y-42655057D01*
X99256691Y-43009099D01*
X99261263Y-43018903D01*
X99414013Y-43387674D01*
X99417713Y-43397840D01*
X99537738Y-43778512D01*
X99540538Y-43788960D01*
X99626933Y-44178660D01*
X99628811Y-44189314D01*
X99680910Y-44585042D01*
X99681853Y-44595818D01*
X99699382Y-44997297D01*
X99699500Y-45002706D01*
X99699500Y-67076000D01*
X99679815Y-67143039D01*
X99627011Y-67188794D01*
X99575500Y-67200000D01*
X97384258Y-67200000D01*
X97317219Y-67180315D01*
X97271464Y-67127511D01*
X97261520Y-67058353D01*
X97290545Y-66994797D01*
X97293980Y-66991107D01*
X97295109Y-66989786D01*
X97420048Y-66817820D01*
X97420047Y-66817820D01*
X97420051Y-66817816D01*
X97516557Y-66628412D01*
X97582246Y-66426243D01*
X97615500Y-66216287D01*
X97615500Y-66003713D01*
X97582246Y-65793757D01*
X97516557Y-65591588D01*
X97420051Y-65402184D01*
X97420049Y-65402181D01*
X97420048Y-65402179D01*
X97295109Y-65230213D01*
X97144786Y-65079890D01*
X96972820Y-64954951D01*
X96972115Y-64954591D01*
X96964054Y-64950485D01*
X96913259Y-64902512D01*
X96896463Y-64834692D01*
X96918999Y-64768556D01*
X96964054Y-64729515D01*
X96972816Y-64725051D01*
X96994789Y-64709086D01*
X97144786Y-64600109D01*
X97144788Y-64600106D01*
X97144792Y-64600104D01*
X97295104Y-64449792D01*
X97295106Y-64449788D01*
X97295109Y-64449786D01*
X97420048Y-64277820D01*
X97420047Y-64277820D01*
X97420051Y-64277816D01*
X97516557Y-64088412D01*
X97582246Y-63886243D01*
X97615500Y-63676287D01*
X97615500Y-63463713D01*
X97582246Y-63253757D01*
X97516557Y-63051588D01*
X97420051Y-62862184D01*
X97420049Y-62862181D01*
X97420048Y-62862179D01*
X97295109Y-62690213D01*
X97144786Y-62539890D01*
X96972820Y-62414951D01*
X96972115Y-62414591D01*
X96964054Y-62410485D01*
X96913259Y-62362512D01*
X96896463Y-62294692D01*
X96918999Y-62228556D01*
X96964054Y-62189515D01*
X96972816Y-62185051D01*
X97059617Y-62121987D01*
X97144786Y-62060109D01*
X97144788Y-62060106D01*
X97144792Y-62060104D01*
X97295104Y-61909792D01*
X97295106Y-61909788D01*
X97295109Y-61909786D01*
X97420048Y-61737820D01*
X97420047Y-61737820D01*
X97420051Y-61737816D01*
X97516557Y-61548412D01*
X97582246Y-61346243D01*
X97615500Y-61136287D01*
X97615500Y-60923713D01*
X97582246Y-60713757D01*
X97516557Y-60511588D01*
X97420051Y-60322184D01*
X97420049Y-60322181D01*
X97420048Y-60322179D01*
X97295109Y-60150213D01*
X97144786Y-59999890D01*
X96972820Y-59874951D01*
X96972115Y-59874591D01*
X96964054Y-59870485D01*
X96913259Y-59822512D01*
X96896463Y-59754692D01*
X96918999Y-59688556D01*
X96964054Y-59649515D01*
X96972816Y-59645051D01*
X97006560Y-59620535D01*
X97144786Y-59520109D01*
X97144788Y-59520106D01*
X97144792Y-59520104D01*
X97295104Y-59369792D01*
X97295106Y-59369788D01*
X97295109Y-59369786D01*
X97420048Y-59197820D01*
X97420047Y-59197820D01*
X97420051Y-59197816D01*
X97516557Y-59008412D01*
X97582246Y-58806243D01*
X97615500Y-58596287D01*
X97615500Y-58383713D01*
X97582246Y-58173757D01*
X97516557Y-57971588D01*
X97420051Y-57782184D01*
X97420049Y-57782181D01*
X97420048Y-57782179D01*
X97295109Y-57610213D01*
X97144786Y-57459890D01*
X96972817Y-57334949D01*
X96963504Y-57330204D01*
X96912707Y-57282230D01*
X96895912Y-57214409D01*
X96918449Y-57148274D01*
X96963507Y-57109232D01*
X96972555Y-57104622D01*
X97026716Y-57065270D01*
X97026717Y-57065270D01*
X96394408Y-56432962D01*
X96457993Y-56415925D01*
X96572007Y-56350099D01*
X96665099Y-56257007D01*
X96730925Y-56142993D01*
X96747962Y-56079409D01*
X97380270Y-56711717D01*
X97380270Y-56711716D01*
X97419622Y-56657554D01*
X97516095Y-56468217D01*
X97581757Y-56266130D01*
X97581757Y-56266127D01*
X97615000Y-56056246D01*
X97615000Y-55843753D01*
X97581757Y-55633872D01*
X97581757Y-55633869D01*
X97516095Y-55431782D01*
X97419624Y-55242449D01*
X97380270Y-55188282D01*
X97380269Y-55188282D01*
X96747962Y-55820590D01*
X96730925Y-55757007D01*
X96665099Y-55642993D01*
X96572007Y-55549901D01*
X96457993Y-55484075D01*
X96394409Y-55467037D01*
X97026716Y-54834728D01*
X96972550Y-54795375D01*
X96783217Y-54698904D01*
X96581129Y-54633242D01*
X96371246Y-54600000D01*
X96158754Y-54600000D01*
X95948872Y-54633242D01*
X95948869Y-54633242D01*
X95746782Y-54698904D01*
X95557439Y-54795380D01*
X95503282Y-54834727D01*
X95503282Y-54834728D01*
X96135591Y-55467037D01*
X96072007Y-55484075D01*
X95957993Y-55549901D01*
X95864901Y-55642993D01*
X95799075Y-55757007D01*
X95782037Y-55820591D01*
X95149728Y-55188282D01*
X95149727Y-55188282D01*
X95110380Y-55242440D01*
X95110376Y-55242446D01*
X95105760Y-55251505D01*
X95057781Y-55302297D01*
X94989959Y-55319087D01*
X94923826Y-55296543D01*
X94884794Y-55251493D01*
X94880051Y-55242184D01*
X94880049Y-55242181D01*
X94880048Y-55242179D01*
X94755109Y-55070213D01*
X94604786Y-54919890D01*
X94432820Y-54794951D01*
X94243414Y-54698444D01*
X94243413Y-54698443D01*
X94243412Y-54698443D01*
X94041243Y-54632754D01*
X94041241Y-54632753D01*
X94041240Y-54632753D01*
X93879957Y-54607208D01*
X93831287Y-54599500D01*
X93618713Y-54599500D01*
X93570042Y-54607208D01*
X93408760Y-54632753D01*
X93206585Y-54698444D01*
X93017179Y-54794951D01*
X92845213Y-54919890D01*
X92694890Y-55070213D01*
X92569951Y-55242179D01*
X92473444Y-55431585D01*
X92407753Y-55633760D01*
X92374500Y-55843713D01*
X92374500Y-56056286D01*
X92407753Y-56266239D01*
X92473444Y-56468414D01*
X92569951Y-56657820D01*
X92694890Y-56829786D01*
X92845213Y-56980109D01*
X93017182Y-57105050D01*
X93025946Y-57109516D01*
X93076742Y-57157491D01*
X93093536Y-57225312D01*
X93070998Y-57291447D01*
X93025946Y-57330484D01*
X93017182Y-57334949D01*
X92845213Y-57459890D01*
X92694890Y-57610213D01*
X92569951Y-57782179D01*
X92473444Y-57971585D01*
X92407753Y-58173760D01*
X92374500Y-58383713D01*
X92374500Y-58596286D01*
X92407753Y-58806239D01*
X92473444Y-59008414D01*
X92569951Y-59197820D01*
X92694890Y-59369786D01*
X92845213Y-59520109D01*
X93017182Y-59645050D01*
X93025946Y-59649516D01*
X93076742Y-59697491D01*
X93093536Y-59765312D01*
X93070998Y-59831447D01*
X93025946Y-59870484D01*
X93017182Y-59874949D01*
X92845213Y-59999890D01*
X92694890Y-60150213D01*
X92569951Y-60322179D01*
X92473444Y-60511585D01*
X92407753Y-60713760D01*
X92385986Y-60851191D01*
X92374500Y-60923713D01*
X92374500Y-61136287D01*
X92407754Y-61346243D01*
X92466149Y-61525965D01*
X92473444Y-61548414D01*
X92569951Y-61737820D01*
X92694890Y-61909786D01*
X92845209Y-62060105D01*
X92845214Y-62060109D01*
X92866648Y-62075682D01*
X92909314Y-62131012D01*
X92915293Y-62200625D01*
X92882688Y-62262420D01*
X92821849Y-62296777D01*
X92793763Y-62300000D01*
X92400000Y-62300000D01*
X92400000Y-63292956D01*
X92398473Y-63312354D01*
X92374500Y-63463713D01*
X92374500Y-63676291D01*
X92385017Y-63742694D01*
X92376062Y-63811988D01*
X92350225Y-63849773D01*
X90100000Y-66099999D01*
X90100000Y-70333637D01*
X90080315Y-70400676D01*
X90044783Y-70436811D01*
X89831239Y-70579174D01*
X89764540Y-70599982D01*
X89762456Y-70600000D01*
X85199999Y-70600000D01*
X83836319Y-71963681D01*
X83774996Y-71997166D01*
X83748638Y-72000000D01*
X82600000Y-72000000D01*
X82600000Y-72200000D01*
X84000000Y-72200000D01*
X85163681Y-71036319D01*
X85225004Y-71002834D01*
X85251362Y-71000000D01*
X90100000Y-71000000D01*
X90500000Y-70600000D01*
X90500000Y-66351361D01*
X90519685Y-66284322D01*
X90536314Y-66263685D01*
X92447188Y-64352810D01*
X92508509Y-64319327D01*
X92578201Y-64324311D01*
X92634134Y-64366183D01*
X92635185Y-64367608D01*
X92694890Y-64449785D01*
X92694894Y-64449790D01*
X92845213Y-64600109D01*
X93017182Y-64725050D01*
X93025946Y-64729516D01*
X93076742Y-64777491D01*
X93093536Y-64845312D01*
X93070998Y-64911447D01*
X93025946Y-64950484D01*
X93017182Y-64954949D01*
X92845213Y-65079890D01*
X92694890Y-65230213D01*
X92569951Y-65402179D01*
X92473444Y-65591585D01*
X92407753Y-65793760D01*
X92375446Y-65997740D01*
X92374500Y-66003713D01*
X92374500Y-66216287D01*
X92380283Y-66252797D01*
X92406659Y-66419334D01*
X92407754Y-66426243D01*
X92454027Y-66568657D01*
X92473444Y-66628414D01*
X92569951Y-66817820D01*
X92694890Y-66989786D01*
X92845213Y-67140109D01*
X93017182Y-67265050D01*
X93025946Y-67269516D01*
X93076742Y-67317491D01*
X93093536Y-67385312D01*
X93070998Y-67451447D01*
X93025946Y-67490484D01*
X93017182Y-67494949D01*
X92845213Y-67619890D01*
X92694890Y-67770213D01*
X92569951Y-67942179D01*
X92473444Y-68131585D01*
X92407753Y-68333760D01*
X92374500Y-68543713D01*
X92374500Y-68756287D01*
X92407754Y-68966243D01*
X92463808Y-69138760D01*
X92473444Y-69168414D01*
X92569951Y-69357820D01*
X92694890Y-69529786D01*
X92845213Y-69680109D01*
X93017182Y-69805050D01*
X93025946Y-69809516D01*
X93076742Y-69857491D01*
X93093536Y-69925312D01*
X93070998Y-69991447D01*
X93025946Y-70030484D01*
X93017182Y-70034949D01*
X92845213Y-70159890D01*
X92694890Y-70310213D01*
X92569951Y-70482179D01*
X92473444Y-70671585D01*
X92407753Y-70873760D01*
X92374500Y-71083713D01*
X92374500Y-71296287D01*
X92382275Y-71345379D01*
X92403645Y-71480304D01*
X92407754Y-71506243D01*
X92456963Y-71657693D01*
X92473444Y-71708414D01*
X92569951Y-71897820D01*
X92694890Y-72069786D01*
X92845213Y-72220109D01*
X93017182Y-72345050D01*
X93025946Y-72349516D01*
X93076742Y-72397491D01*
X93093536Y-72465312D01*
X93070998Y-72531447D01*
X93025946Y-72570484D01*
X93017182Y-72574949D01*
X92845213Y-72699890D01*
X92694890Y-72850213D01*
X92569951Y-73022179D01*
X92473444Y-73211585D01*
X92407753Y-73413760D01*
X92389386Y-73529727D01*
X92374500Y-73623713D01*
X92374500Y-73836287D01*
X92376672Y-73849998D01*
X92407735Y-74046127D01*
X92407754Y-74046243D01*
X92431788Y-74120213D01*
X92473444Y-74248414D01*
X92569951Y-74437820D01*
X92694890Y-74609786D01*
X92845213Y-74760109D01*
X93017182Y-74885050D01*
X93025946Y-74889516D01*
X93076742Y-74937491D01*
X93093536Y-75005312D01*
X93070998Y-75071447D01*
X93025946Y-75110484D01*
X93017182Y-75114949D01*
X92845213Y-75239890D01*
X92694890Y-75390213D01*
X92569951Y-75562179D01*
X92473444Y-75751585D01*
X92407753Y-75953760D01*
X92374500Y-76163713D01*
X92374500Y-76376286D01*
X92406870Y-76580666D01*
X92407754Y-76586243D01*
X92460053Y-76747203D01*
X92473444Y-76788414D01*
X92569951Y-76977820D01*
X92694890Y-77149786D01*
X92845213Y-77300109D01*
X93017182Y-77425050D01*
X93025946Y-77429516D01*
X93076742Y-77477491D01*
X93093536Y-77545312D01*
X93070998Y-77611447D01*
X93025946Y-77650484D01*
X93017182Y-77654949D01*
X92845213Y-77779890D01*
X92694890Y-77930213D01*
X92569951Y-78102179D01*
X92473444Y-78291585D01*
X92407753Y-78493760D01*
X92374500Y-78703713D01*
X92374500Y-78916286D01*
X92402957Y-79095961D01*
X92407754Y-79126243D01*
X92442333Y-79232667D01*
X92473444Y-79328414D01*
X92569951Y-79517820D01*
X92694890Y-79689786D01*
X92845213Y-79840109D01*
X93017182Y-79965050D01*
X93025946Y-79969516D01*
X93076742Y-80017491D01*
X93093536Y-80085312D01*
X93070998Y-80151447D01*
X93025946Y-80190484D01*
X93017182Y-80194949D01*
X92845213Y-80319890D01*
X92694890Y-80470213D01*
X92569951Y-80642179D01*
X92473444Y-80831585D01*
X92407753Y-81033760D01*
X92374500Y-81243713D01*
X92374500Y-81456286D01*
X92407698Y-81665894D01*
X92407754Y-81666243D01*
X92452338Y-81803459D01*
X92473444Y-81868414D01*
X92569951Y-82057820D01*
X92694890Y-82229786D01*
X92845213Y-82380109D01*
X93017182Y-82505050D01*
X93025946Y-82509516D01*
X93076742Y-82557491D01*
X93093536Y-82625312D01*
X93070998Y-82691447D01*
X93025946Y-82730484D01*
X93017182Y-82734949D01*
X92845213Y-82859890D01*
X92694890Y-83010213D01*
X92569951Y-83182179D01*
X92473444Y-83371585D01*
X92407753Y-83573760D01*
X92374500Y-83783713D01*
X92374500Y-83996286D01*
X92401079Y-84164103D01*
X92407754Y-84206243D01*
X92448139Y-84330536D01*
X92473444Y-84408414D01*
X92569951Y-84597820D01*
X92694890Y-84769786D01*
X92845213Y-84920109D01*
X93017182Y-85045050D01*
X93025946Y-85049516D01*
X93076742Y-85097491D01*
X93093536Y-85165312D01*
X93070998Y-85231447D01*
X93025946Y-85270484D01*
X93017182Y-85274949D01*
X92845213Y-85399890D01*
X92694890Y-85550213D01*
X92569951Y-85722179D01*
X92473444Y-85911585D01*
X92473443Y-85911587D01*
X92473443Y-85911588D01*
X92440598Y-86012672D01*
X92407753Y-86113760D01*
X92374500Y-86323713D01*
X92374500Y-86536286D01*
X92397857Y-86683760D01*
X92407754Y-86746243D01*
X92409417Y-86751362D01*
X92473444Y-86948414D01*
X92569951Y-87137820D01*
X92694890Y-87309786D01*
X92845213Y-87460109D01*
X93017182Y-87585050D01*
X93025946Y-87589516D01*
X93076742Y-87637491D01*
X93093536Y-87705312D01*
X93070998Y-87771447D01*
X93025946Y-87810484D01*
X93017182Y-87814949D01*
X92845213Y-87939890D01*
X92694890Y-88090213D01*
X92569951Y-88262179D01*
X92473444Y-88451585D01*
X92407753Y-88653760D01*
X92374500Y-88863713D01*
X92374500Y-89076286D01*
X92407415Y-89284106D01*
X92407754Y-89286243D01*
X92461136Y-89450536D01*
X92473444Y-89488414D01*
X92569951Y-89677820D01*
X92694890Y-89849786D01*
X92845213Y-90000109D01*
X93017182Y-90125050D01*
X93025946Y-90129516D01*
X93076742Y-90177491D01*
X93093536Y-90245312D01*
X93070998Y-90311447D01*
X93025946Y-90350484D01*
X93017182Y-90354949D01*
X92845213Y-90479890D01*
X92694894Y-90630209D01*
X92651985Y-90689269D01*
X92596655Y-90731934D01*
X92527041Y-90737913D01*
X92465246Y-90705307D01*
X92457194Y-90696698D01*
X91430150Y-89488412D01*
X91129520Y-89134729D01*
X91101100Y-89070901D01*
X91100000Y-89054421D01*
X91100000Y-86500000D01*
X85900000Y-81300000D01*
X80751362Y-81300000D01*
X80684323Y-81280315D01*
X80663681Y-81263681D01*
X79336319Y-79936319D01*
X79302834Y-79874996D01*
X79300000Y-79848638D01*
X79300000Y-78800000D01*
X78900000Y-78800000D01*
X78900000Y-80100000D01*
X80500000Y-81700000D01*
X85648638Y-81700000D01*
X85715677Y-81719685D01*
X85736319Y-81736319D01*
X90663681Y-86663681D01*
X90697166Y-86725004D01*
X90700000Y-86751362D01*
X90700000Y-89299999D01*
X90700001Y-89300002D01*
X92355443Y-91247581D01*
X92383863Y-91311409D01*
X92383436Y-91347286D01*
X92374500Y-91403707D01*
X92374500Y-91403713D01*
X92374500Y-91616287D01*
X92396747Y-91756750D01*
X92398473Y-91767644D01*
X92400000Y-91787042D01*
X92400000Y-92800000D01*
X92410232Y-92810232D01*
X92443717Y-92871555D01*
X92438733Y-92941247D01*
X92431383Y-92957340D01*
X92431204Y-92957667D01*
X92380908Y-93092517D01*
X92374501Y-93152116D01*
X92374500Y-93152135D01*
X92374500Y-94947870D01*
X92374501Y-94947876D01*
X92380908Y-95007483D01*
X92431202Y-95142328D01*
X92431206Y-95142335D01*
X92517452Y-95257544D01*
X92517455Y-95257547D01*
X92632664Y-95343793D01*
X92632671Y-95343797D01*
X92767517Y-95394091D01*
X92767516Y-95394091D01*
X92774444Y-95394835D01*
X92827127Y-95400500D01*
X94622872Y-95400499D01*
X94682483Y-95394091D01*
X94817331Y-95343796D01*
X94932546Y-95257546D01*
X95018796Y-95142331D01*
X95069091Y-95007483D01*
X95075500Y-94947873D01*
X95075499Y-94923979D01*
X95078330Y-94910963D01*
X95088940Y-94891525D01*
X95095179Y-94870275D01*
X95111803Y-94849643D01*
X95111808Y-94849636D01*
X95111811Y-94849634D01*
X95111818Y-94849626D01*
X95782037Y-94179408D01*
X95799075Y-94242993D01*
X95864901Y-94357007D01*
X95957993Y-94450099D01*
X96072007Y-94515925D01*
X96135590Y-94532962D01*
X95503282Y-95165269D01*
X95503282Y-95165270D01*
X95557449Y-95204624D01*
X95746782Y-95301095D01*
X95948870Y-95366757D01*
X96158754Y-95400000D01*
X96371246Y-95400000D01*
X96581127Y-95366757D01*
X96581130Y-95366757D01*
X96783217Y-95301095D01*
X96972554Y-95204622D01*
X97026716Y-95165270D01*
X97026717Y-95165270D01*
X96394408Y-94532962D01*
X96457993Y-94515925D01*
X96572007Y-94450099D01*
X96665099Y-94357007D01*
X96730925Y-94242993D01*
X96747962Y-94179409D01*
X97380270Y-94811717D01*
X97380270Y-94811716D01*
X97419622Y-94757554D01*
X97516095Y-94568217D01*
X97581757Y-94366130D01*
X97581757Y-94366127D01*
X97615000Y-94156246D01*
X97615000Y-93943753D01*
X97581757Y-93733872D01*
X97581757Y-93733869D01*
X97516095Y-93531782D01*
X97419624Y-93342449D01*
X97380270Y-93288282D01*
X97380269Y-93288282D01*
X96747962Y-93920590D01*
X96730925Y-93857007D01*
X96665099Y-93742993D01*
X96572007Y-93649901D01*
X96457993Y-93584075D01*
X96394409Y-93567037D01*
X97026716Y-92934728D01*
X96972547Y-92895373D01*
X96972547Y-92895372D01*
X96963500Y-92890763D01*
X96912706Y-92842788D01*
X96895912Y-92774966D01*
X96918451Y-92708832D01*
X96963508Y-92669793D01*
X96972816Y-92665051D01*
X97097886Y-92574183D01*
X97144786Y-92540109D01*
X97144788Y-92540106D01*
X97144792Y-92540104D01*
X97295104Y-92389792D01*
X97295106Y-92389788D01*
X97295109Y-92389786D01*
X97420048Y-92217820D01*
X97420047Y-92217820D01*
X97420051Y-92217816D01*
X97516557Y-92028412D01*
X97582246Y-91826243D01*
X97615500Y-91616287D01*
X97615500Y-91403713D01*
X97582246Y-91193757D01*
X97516557Y-90991588D01*
X97420051Y-90802184D01*
X97420049Y-90802181D01*
X97420048Y-90802179D01*
X97295109Y-90630213D01*
X97144786Y-90479890D01*
X96972820Y-90354951D01*
X96972115Y-90354591D01*
X96964054Y-90350485D01*
X96913259Y-90302512D01*
X96896463Y-90234692D01*
X96918999Y-90168556D01*
X96964054Y-90129515D01*
X96972816Y-90125051D01*
X97087310Y-90041867D01*
X97144786Y-90000109D01*
X97144788Y-90000106D01*
X97144792Y-90000104D01*
X97295104Y-89849792D01*
X97295106Y-89849788D01*
X97295109Y-89849786D01*
X97420048Y-89677820D01*
X97420047Y-89677820D01*
X97420051Y-89677816D01*
X97516557Y-89488412D01*
X97582246Y-89286243D01*
X97615500Y-89076287D01*
X97615500Y-88863713D01*
X97582246Y-88653757D01*
X97516557Y-88451588D01*
X97420051Y-88262184D01*
X97420049Y-88262181D01*
X97420048Y-88262179D01*
X97295109Y-88090213D01*
X97144786Y-87939890D01*
X96972820Y-87814951D01*
X96972115Y-87814591D01*
X96964054Y-87810485D01*
X96913259Y-87762512D01*
X96896463Y-87694692D01*
X96918999Y-87628556D01*
X96964054Y-87589515D01*
X96972816Y-87585051D01*
X97064535Y-87518414D01*
X97144786Y-87460109D01*
X97144788Y-87460106D01*
X97144792Y-87460104D01*
X97295104Y-87309792D01*
X97295106Y-87309788D01*
X97295109Y-87309786D01*
X97420048Y-87137820D01*
X97420047Y-87137820D01*
X97420051Y-87137816D01*
X97516557Y-86948412D01*
X97582246Y-86746243D01*
X97615500Y-86536287D01*
X97615500Y-86323713D01*
X97582246Y-86113757D01*
X97516557Y-85911588D01*
X97420051Y-85722184D01*
X97420049Y-85722181D01*
X97420048Y-85722179D01*
X97295109Y-85550213D01*
X97144786Y-85399890D01*
X96972820Y-85274951D01*
X96972115Y-85274591D01*
X96964054Y-85270485D01*
X96913259Y-85222512D01*
X96896463Y-85154692D01*
X96918999Y-85088556D01*
X96964054Y-85049515D01*
X96972816Y-85045051D01*
X97100526Y-84952265D01*
X97144786Y-84920109D01*
X97144788Y-84920106D01*
X97144792Y-84920104D01*
X97295104Y-84769792D01*
X97295106Y-84769788D01*
X97295109Y-84769786D01*
X97415951Y-84603459D01*
X97420051Y-84597816D01*
X97516557Y-84408412D01*
X97582246Y-84206243D01*
X97615500Y-83996287D01*
X97615500Y-83783713D01*
X97582246Y-83573757D01*
X97516557Y-83371588D01*
X97420051Y-83182184D01*
X97420049Y-83182181D01*
X97420048Y-83182179D01*
X97295109Y-83010213D01*
X97144786Y-82859890D01*
X96972820Y-82734951D01*
X96972115Y-82734591D01*
X96964054Y-82730485D01*
X96913259Y-82682512D01*
X96896463Y-82614692D01*
X96918999Y-82548556D01*
X96964054Y-82509515D01*
X96972816Y-82505051D01*
X97087310Y-82421867D01*
X97144786Y-82380109D01*
X97144788Y-82380106D01*
X97144792Y-82380104D01*
X97295104Y-82229792D01*
X97295106Y-82229788D01*
X97295109Y-82229786D01*
X97420048Y-82057820D01*
X97420047Y-82057820D01*
X97420051Y-82057816D01*
X97516557Y-81868412D01*
X97582246Y-81666243D01*
X97615500Y-81456287D01*
X97615500Y-81243713D01*
X97582246Y-81033757D01*
X97516557Y-80831588D01*
X97420051Y-80642184D01*
X97420049Y-80642181D01*
X97420048Y-80642179D01*
X97295109Y-80470213D01*
X97144786Y-80319890D01*
X96972820Y-80194951D01*
X96972115Y-80194591D01*
X96964054Y-80190485D01*
X96913259Y-80142512D01*
X96896463Y-80074692D01*
X96918999Y-80008556D01*
X96964054Y-79969515D01*
X96972816Y-79965051D01*
X97005037Y-79941641D01*
X97144786Y-79840109D01*
X97144788Y-79840106D01*
X97144792Y-79840104D01*
X97295104Y-79689792D01*
X97295106Y-79689788D01*
X97295109Y-79689786D01*
X97420048Y-79517820D01*
X97420049Y-79517819D01*
X97420051Y-79517816D01*
X97516557Y-79328412D01*
X97582246Y-79126243D01*
X97615500Y-78916287D01*
X97615500Y-78703713D01*
X97582246Y-78493757D01*
X97516557Y-78291588D01*
X97420051Y-78102184D01*
X97396305Y-78069500D01*
X97343548Y-77996885D01*
X97320068Y-77931079D01*
X97335894Y-77863025D01*
X97386000Y-77814330D01*
X97443866Y-77800000D01*
X99575500Y-77800000D01*
X99642539Y-77819685D01*
X99688294Y-77872489D01*
X99699500Y-77924000D01*
X99699500Y-104997293D01*
X99699382Y-105002702D01*
X99681853Y-105404181D01*
X99680910Y-105414957D01*
X99628811Y-105810685D01*
X99626933Y-105821339D01*
X99540538Y-106211039D01*
X99537738Y-106221487D01*
X99417713Y-106602159D01*
X99414013Y-106612325D01*
X99261263Y-106981096D01*
X99256691Y-106990900D01*
X99072388Y-107344942D01*
X99066980Y-107354310D01*
X98852511Y-107690959D01*
X98846306Y-107699820D01*
X98603319Y-108016487D01*
X98596365Y-108024774D01*
X98326705Y-108319056D01*
X98319056Y-108326705D01*
X98024774Y-108596365D01*
X98016487Y-108603319D01*
X97699820Y-108846306D01*
X97690959Y-108852511D01*
X97354310Y-109066980D01*
X97344942Y-109072388D01*
X96990900Y-109256691D01*
X96981096Y-109261263D01*
X96612325Y-109414013D01*
X96602159Y-109417713D01*
X96221487Y-109537738D01*
X96211039Y-109540538D01*
X95821339Y-109626933D01*
X95810685Y-109628811D01*
X95414957Y-109680910D01*
X95404181Y-109681853D01*
X95002703Y-109699382D01*
X94997294Y-109699500D01*
X50002706Y-109699500D01*
X49997297Y-109699382D01*
X49595818Y-109681853D01*
X49585042Y-109680910D01*
X49189314Y-109628811D01*
X49178660Y-109626933D01*
X48788960Y-109540538D01*
X48778512Y-109537738D01*
X48397840Y-109417713D01*
X48387674Y-109414013D01*
X48018903Y-109261263D01*
X48009099Y-109256691D01*
X47655057Y-109072388D01*
X47645689Y-109066980D01*
X47309040Y-108852511D01*
X47300179Y-108846306D01*
X46983512Y-108603319D01*
X46975225Y-108596365D01*
X46680943Y-108326705D01*
X46673294Y-108319056D01*
X46403634Y-108024774D01*
X46396680Y-108016487D01*
X46153693Y-107699820D01*
X46147488Y-107690959D01*
X45933019Y-107354310D01*
X45927611Y-107344942D01*
X45743308Y-106990900D01*
X45738736Y-106981096D01*
X45585982Y-106612315D01*
X45582286Y-106602159D01*
X45462261Y-106221487D01*
X45459461Y-106211039D01*
X45373066Y-105821339D01*
X45371188Y-105810685D01*
X45350849Y-105656193D01*
X45319087Y-105414937D01*
X45318147Y-105404202D01*
X45300618Y-105002702D01*
X45300500Y-104997293D01*
X45300500Y-98411304D01*
X70599500Y-98411304D01*
X70599500Y-98588695D01*
X70634103Y-98762658D01*
X70634106Y-98762667D01*
X70701983Y-98926540D01*
X70701990Y-98926553D01*
X70800535Y-99074034D01*
X70800538Y-99074038D01*
X70925961Y-99199461D01*
X70925965Y-99199464D01*
X71073446Y-99298009D01*
X71073459Y-99298016D01*
X71196363Y-99348923D01*
X71237334Y-99365894D01*
X71237336Y-99365894D01*
X71237341Y-99365896D01*
X71411304Y-99400499D01*
X71411307Y-99400500D01*
X71411309Y-99400500D01*
X71588693Y-99400500D01*
X71588694Y-99400499D01*
X71646682Y-99388964D01*
X71762658Y-99365896D01*
X71762661Y-99365894D01*
X71762666Y-99365894D01*
X71926547Y-99298013D01*
X72074035Y-99199464D01*
X72199464Y-99074035D01*
X72298013Y-98926547D01*
X72365894Y-98762666D01*
X72400500Y-98588691D01*
X72400500Y-98411309D01*
X72400500Y-98411306D01*
X72400499Y-98411304D01*
X72365896Y-98237341D01*
X72365893Y-98237332D01*
X72298016Y-98073459D01*
X72298009Y-98073446D01*
X72199464Y-97925965D01*
X72199461Y-97925961D01*
X72074038Y-97800538D01*
X72074034Y-97800535D01*
X71926553Y-97701990D01*
X71926540Y-97701983D01*
X71762667Y-97634106D01*
X71762658Y-97634103D01*
X71588694Y-97599500D01*
X71588691Y-97599500D01*
X71411309Y-97599500D01*
X71411306Y-97599500D01*
X71237341Y-97634103D01*
X71237332Y-97634106D01*
X71073459Y-97701983D01*
X71073446Y-97701990D01*
X70925965Y-97800535D01*
X70925961Y-97800538D01*
X70800538Y-97925961D01*
X70800535Y-97925965D01*
X70701990Y-98073446D01*
X70701983Y-98073459D01*
X70634106Y-98237332D01*
X70634103Y-98237341D01*
X70599500Y-98411304D01*
X45300500Y-98411304D01*
X45300500Y-94893713D01*
X51384500Y-94893713D01*
X51384500Y-95106287D01*
X51393842Y-95165269D01*
X51415354Y-95301095D01*
X51417754Y-95316243D01*
X51445130Y-95400498D01*
X51483444Y-95518414D01*
X51579951Y-95707820D01*
X51704890Y-95879786D01*
X51855213Y-96030109D01*
X52027179Y-96155048D01*
X52027181Y-96155049D01*
X52027184Y-96155051D01*
X52216588Y-96251557D01*
X52418757Y-96317246D01*
X52628713Y-96350500D01*
X52628714Y-96350500D01*
X52841286Y-96350500D01*
X52841287Y-96350500D01*
X53051243Y-96317246D01*
X53253412Y-96251557D01*
X53442816Y-96155051D01*
X53614792Y-96030104D01*
X53728329Y-95916566D01*
X53789648Y-95883084D01*
X53859340Y-95888068D01*
X53915274Y-95929939D01*
X53932189Y-95960917D01*
X53981202Y-96092328D01*
X53981206Y-96092335D01*
X54067452Y-96207544D01*
X54067455Y-96207547D01*
X54182664Y-96293793D01*
X54182671Y-96293797D01*
X54317517Y-96344091D01*
X54317516Y-96344091D01*
X54324444Y-96344835D01*
X54377127Y-96350500D01*
X56172872Y-96350499D01*
X56232483Y-96344091D01*
X56367331Y-96293796D01*
X56482546Y-96207546D01*
X56568796Y-96092331D01*
X56619091Y-95957483D01*
X56625500Y-95897873D01*
X56625499Y-94102128D01*
X56619091Y-94042517D01*
X56617810Y-94039083D01*
X56568796Y-93907669D01*
X56568794Y-93907666D01*
X56534087Y-93861304D01*
X82099500Y-93861304D01*
X82099500Y-94038695D01*
X82134103Y-94212658D01*
X82134106Y-94212667D01*
X82201983Y-94376540D01*
X82201990Y-94376553D01*
X82300535Y-94524034D01*
X82300538Y-94524038D01*
X82425961Y-94649461D01*
X82425965Y-94649464D01*
X82573446Y-94748009D01*
X82573459Y-94748016D01*
X82696363Y-94798923D01*
X82737334Y-94815894D01*
X82737336Y-94815894D01*
X82737341Y-94815896D01*
X82911304Y-94850499D01*
X82911307Y-94850500D01*
X82911309Y-94850500D01*
X83088693Y-94850500D01*
X83088694Y-94850499D01*
X83146682Y-94838964D01*
X83262658Y-94815896D01*
X83262661Y-94815894D01*
X83262666Y-94815894D01*
X83426547Y-94748013D01*
X83574035Y-94649464D01*
X83699464Y-94524035D01*
X83798013Y-94376547D01*
X83865894Y-94212666D01*
X83900500Y-94038691D01*
X83900500Y-93861309D01*
X83900500Y-93861306D01*
X83900499Y-93861304D01*
X83865896Y-93687341D01*
X83865893Y-93687332D01*
X83863996Y-93682753D01*
X83801463Y-93531782D01*
X83798016Y-93523459D01*
X83798009Y-93523446D01*
X83699464Y-93375965D01*
X83699461Y-93375961D01*
X83574038Y-93250538D01*
X83574034Y-93250535D01*
X83426553Y-93151990D01*
X83426540Y-93151983D01*
X83262667Y-93084106D01*
X83262658Y-93084103D01*
X83088694Y-93049500D01*
X83088691Y-93049500D01*
X82911309Y-93049500D01*
X82911306Y-93049500D01*
X82737341Y-93084103D01*
X82737332Y-93084106D01*
X82573459Y-93151983D01*
X82573446Y-93151990D01*
X82425965Y-93250535D01*
X82425961Y-93250538D01*
X82300538Y-93375961D01*
X82300535Y-93375965D01*
X82201990Y-93523446D01*
X82201983Y-93523459D01*
X82134106Y-93687332D01*
X82134103Y-93687341D01*
X82099500Y-93861304D01*
X56534087Y-93861304D01*
X56482547Y-93792455D01*
X56482544Y-93792452D01*
X56367335Y-93706206D01*
X56367328Y-93706202D01*
X56232482Y-93655908D01*
X56232483Y-93655908D01*
X56172883Y-93649501D01*
X56172881Y-93649500D01*
X56172873Y-93649500D01*
X56172864Y-93649500D01*
X54377129Y-93649500D01*
X54377123Y-93649501D01*
X54317516Y-93655908D01*
X54182671Y-93706202D01*
X54182664Y-93706206D01*
X54067455Y-93792452D01*
X54067452Y-93792455D01*
X53981206Y-93907664D01*
X53981203Y-93907669D01*
X53932189Y-94039083D01*
X53890317Y-94095016D01*
X53824853Y-94119433D01*
X53756580Y-94104581D01*
X53728326Y-94083430D01*
X53614786Y-93969890D01*
X53442820Y-93844951D01*
X53253414Y-93748444D01*
X53253413Y-93748443D01*
X53253412Y-93748443D01*
X53051243Y-93682754D01*
X53051241Y-93682753D01*
X53051240Y-93682753D01*
X52889957Y-93657208D01*
X52841287Y-93649500D01*
X52628713Y-93649500D01*
X52580042Y-93657208D01*
X52418760Y-93682753D01*
X52216585Y-93748444D01*
X52027179Y-93844951D01*
X51855213Y-93969890D01*
X51704890Y-94120213D01*
X51579951Y-94292179D01*
X51483444Y-94481585D01*
X51417753Y-94683760D01*
X51396825Y-94815894D01*
X51384500Y-94893713D01*
X45300500Y-94893713D01*
X45300500Y-91521304D01*
X54869500Y-91521304D01*
X54869500Y-91698695D01*
X54904103Y-91872658D01*
X54904106Y-91872667D01*
X54971983Y-92036540D01*
X54971990Y-92036553D01*
X55070535Y-92184034D01*
X55070538Y-92184038D01*
X55195961Y-92309461D01*
X55195965Y-92309464D01*
X55343446Y-92408009D01*
X55343459Y-92408016D01*
X55466363Y-92458923D01*
X55507334Y-92475894D01*
X55507336Y-92475894D01*
X55507341Y-92475896D01*
X55681304Y-92510499D01*
X55681307Y-92510500D01*
X55681309Y-92510500D01*
X55858693Y-92510500D01*
X55858694Y-92510499D01*
X55916682Y-92498964D01*
X56032658Y-92475896D01*
X56032661Y-92475894D01*
X56032666Y-92475894D01*
X56196547Y-92408013D01*
X56344035Y-92309464D01*
X56469464Y-92184035D01*
X56568013Y-92036547D01*
X56635894Y-91872666D01*
X56640510Y-91849464D01*
X56670499Y-91698695D01*
X56670500Y-91698693D01*
X56670500Y-91521306D01*
X56651043Y-91423493D01*
X56651043Y-91423492D01*
X56647442Y-91405388D01*
X71699500Y-91405388D01*
X71699500Y-91582779D01*
X71734103Y-91756742D01*
X71734106Y-91756751D01*
X71801983Y-91920624D01*
X71801990Y-91920637D01*
X71900535Y-92068118D01*
X71900538Y-92068122D01*
X72025961Y-92193545D01*
X72025965Y-92193548D01*
X72173446Y-92292093D01*
X72173459Y-92292100D01*
X72250559Y-92324035D01*
X72337334Y-92359978D01*
X72337336Y-92359978D01*
X72337341Y-92359980D01*
X72511304Y-92394583D01*
X72511307Y-92394584D01*
X72511309Y-92394584D01*
X72688693Y-92394584D01*
X72688694Y-92394583D01*
X72746682Y-92383048D01*
X72862658Y-92359980D01*
X72862661Y-92359978D01*
X72862666Y-92359978D01*
X73026547Y-92292097D01*
X73174035Y-92193548D01*
X73299464Y-92068119D01*
X73398013Y-91920631D01*
X73465894Y-91756750D01*
X73472402Y-91724035D01*
X73500499Y-91582779D01*
X73500500Y-91582777D01*
X73500500Y-91405390D01*
X73500499Y-91405388D01*
X73465896Y-91231425D01*
X73465893Y-91231416D01*
X73398013Y-91067537D01*
X73398009Y-91067530D01*
X73393849Y-91061304D01*
X74099500Y-91061304D01*
X74099500Y-91238695D01*
X74134103Y-91412658D01*
X74134106Y-91412667D01*
X74201983Y-91576540D01*
X74201990Y-91576553D01*
X74300535Y-91724034D01*
X74300538Y-91724038D01*
X74425961Y-91849461D01*
X74425965Y-91849464D01*
X74573446Y-91948009D01*
X74573459Y-91948016D01*
X74696363Y-91998923D01*
X74737334Y-92015894D01*
X74737336Y-92015894D01*
X74737341Y-92015896D01*
X74911304Y-92050499D01*
X74911307Y-92050500D01*
X75081115Y-92050500D01*
X75148154Y-92070185D01*
X75193909Y-92122989D01*
X75202732Y-92150308D01*
X75211355Y-92193659D01*
X75211357Y-92193667D01*
X75279234Y-92357540D01*
X75279241Y-92357553D01*
X75377786Y-92505034D01*
X75377789Y-92505038D01*
X75503212Y-92630461D01*
X75503216Y-92630464D01*
X75650697Y-92729009D01*
X75650710Y-92729016D01*
X75773614Y-92779923D01*
X75814585Y-92796894D01*
X75814587Y-92796894D01*
X75814592Y-92796896D01*
X75988555Y-92831499D01*
X75988558Y-92831500D01*
X75988560Y-92831500D01*
X76165944Y-92831500D01*
X76165945Y-92831499D01*
X76241256Y-92816519D01*
X76339909Y-92796896D01*
X76339912Y-92796894D01*
X76339917Y-92796894D01*
X76503798Y-92729013D01*
X76651286Y-92630464D01*
X76776715Y-92505035D01*
X76875264Y-92357547D01*
X76943145Y-92193666D01*
X76943145Y-92193661D01*
X76943147Y-92193658D01*
X76974398Y-92036547D01*
X76977751Y-92019691D01*
X76977751Y-91842309D01*
X76977751Y-91842306D01*
X76945348Y-91679409D01*
X76945347Y-91679406D01*
X76943145Y-91668335D01*
X76943144Y-91668332D01*
X76940233Y-91661304D01*
X89799500Y-91661304D01*
X89799500Y-91838695D01*
X89834103Y-92012658D01*
X89834106Y-92012667D01*
X89901983Y-92176540D01*
X89901990Y-92176553D01*
X90000535Y-92324034D01*
X90000538Y-92324038D01*
X90125961Y-92449461D01*
X90125965Y-92449464D01*
X90273446Y-92548009D01*
X90273459Y-92548016D01*
X90396363Y-92598923D01*
X90437334Y-92615894D01*
X90437336Y-92615894D01*
X90437341Y-92615896D01*
X90611304Y-92650499D01*
X90611307Y-92650500D01*
X90611309Y-92650500D01*
X90788693Y-92650500D01*
X90788694Y-92650499D01*
X90853312Y-92637646D01*
X90962658Y-92615896D01*
X90962661Y-92615894D01*
X90962666Y-92615894D01*
X91126547Y-92548013D01*
X91274035Y-92449464D01*
X91399464Y-92324035D01*
X91498013Y-92176547D01*
X91565894Y-92012666D01*
X91578755Y-91948013D01*
X91593742Y-91872666D01*
X91600500Y-91838691D01*
X91600500Y-91661309D01*
X91600500Y-91661306D01*
X91600499Y-91661304D01*
X91565896Y-91487341D01*
X91565893Y-91487332D01*
X91498016Y-91323459D01*
X91498009Y-91323446D01*
X91399464Y-91175965D01*
X91399461Y-91175961D01*
X91274038Y-91050538D01*
X91274034Y-91050535D01*
X91126553Y-90951990D01*
X91126540Y-90951983D01*
X90962667Y-90884106D01*
X90962658Y-90884103D01*
X90788694Y-90849500D01*
X90788691Y-90849500D01*
X90611309Y-90849500D01*
X90611306Y-90849500D01*
X90437341Y-90884103D01*
X90437332Y-90884106D01*
X90273459Y-90951983D01*
X90273446Y-90951990D01*
X90125965Y-91050535D01*
X90125961Y-91050538D01*
X90000538Y-91175961D01*
X90000535Y-91175965D01*
X89901990Y-91323446D01*
X89901983Y-91323459D01*
X89834106Y-91487332D01*
X89834103Y-91487341D01*
X89799500Y-91661304D01*
X76940233Y-91661304D01*
X76875267Y-91504459D01*
X76875260Y-91504446D01*
X76776715Y-91356965D01*
X76776712Y-91356961D01*
X76651289Y-91231538D01*
X76651285Y-91231535D01*
X76503804Y-91132990D01*
X76503791Y-91132983D01*
X76339918Y-91065106D01*
X76339909Y-91065103D01*
X76165945Y-91030500D01*
X76165942Y-91030500D01*
X75996136Y-91030500D01*
X75929097Y-91010815D01*
X75883342Y-90958011D01*
X75874519Y-90930692D01*
X75865895Y-90887340D01*
X75865894Y-90887334D01*
X75846287Y-90839998D01*
X75798016Y-90723459D01*
X75798009Y-90723446D01*
X75699464Y-90575965D01*
X75699461Y-90575961D01*
X75574038Y-90450538D01*
X75574034Y-90450535D01*
X75426553Y-90351990D01*
X75426540Y-90351983D01*
X75262667Y-90284106D01*
X75262658Y-90284103D01*
X75088694Y-90249500D01*
X75088691Y-90249500D01*
X74911309Y-90249500D01*
X74911306Y-90249500D01*
X74737341Y-90284103D01*
X74737332Y-90284106D01*
X74573459Y-90351983D01*
X74573446Y-90351990D01*
X74425965Y-90450535D01*
X74425961Y-90450538D01*
X74300538Y-90575961D01*
X74300535Y-90575965D01*
X74201990Y-90723446D01*
X74201983Y-90723459D01*
X74134106Y-90887332D01*
X74134103Y-90887341D01*
X74099500Y-91061304D01*
X73393849Y-91061304D01*
X73299464Y-90920049D01*
X73299461Y-90920045D01*
X73174038Y-90794622D01*
X73174034Y-90794619D01*
X73026553Y-90696074D01*
X73026540Y-90696067D01*
X72862667Y-90628190D01*
X72862658Y-90628187D01*
X72688694Y-90593584D01*
X72688691Y-90593584D01*
X72511309Y-90593584D01*
X72511306Y-90593584D01*
X72337341Y-90628187D01*
X72337332Y-90628190D01*
X72173459Y-90696067D01*
X72173446Y-90696074D01*
X72025965Y-90794619D01*
X72025961Y-90794622D01*
X71900538Y-90920045D01*
X71900535Y-90920049D01*
X71801990Y-91067530D01*
X71801983Y-91067543D01*
X71734106Y-91231416D01*
X71734103Y-91231425D01*
X71699500Y-91405388D01*
X56647442Y-91405388D01*
X56635896Y-91347341D01*
X56635893Y-91347332D01*
X56568016Y-91183459D01*
X56568009Y-91183446D01*
X56469464Y-91035965D01*
X56469461Y-91035961D01*
X56344038Y-90910538D01*
X56344034Y-90910535D01*
X56196553Y-90811990D01*
X56196540Y-90811983D01*
X56032667Y-90744106D01*
X56032658Y-90744103D01*
X55858694Y-90709500D01*
X55858691Y-90709500D01*
X55681309Y-90709500D01*
X55681306Y-90709500D01*
X55507341Y-90744103D01*
X55507332Y-90744106D01*
X55343459Y-90811983D01*
X55343446Y-90811990D01*
X55195965Y-90910535D01*
X55195961Y-90910538D01*
X55070538Y-91035961D01*
X55070535Y-91035965D01*
X54971990Y-91183446D01*
X54971983Y-91183459D01*
X54904106Y-91347332D01*
X54904103Y-91347341D01*
X54869500Y-91521304D01*
X45300500Y-91521304D01*
X45300500Y-86893713D01*
X48524500Y-86893713D01*
X48524500Y-87106287D01*
X48557754Y-87316243D01*
X48618067Y-87501867D01*
X48623444Y-87518414D01*
X48719951Y-87707820D01*
X48844890Y-87879786D01*
X48983705Y-88018601D01*
X49017190Y-88079924D01*
X49012206Y-88149616D01*
X48970334Y-88205549D01*
X48961121Y-88211821D01*
X48806342Y-88307289D01*
X48682289Y-88431342D01*
X48590187Y-88580663D01*
X48590185Y-88580668D01*
X48563134Y-88662304D01*
X48535001Y-88747203D01*
X48535001Y-88747204D01*
X48535000Y-88747204D01*
X48524500Y-88849983D01*
X48524500Y-90150001D01*
X48524501Y-90150018D01*
X48535000Y-90252796D01*
X48535001Y-90252799D01*
X48574200Y-90371093D01*
X48590186Y-90419334D01*
X48682288Y-90568656D01*
X48806344Y-90692712D01*
X48955666Y-90784814D01*
X49122203Y-90839999D01*
X49224991Y-90850500D01*
X50775008Y-90850499D01*
X50785170Y-90849461D01*
X50792895Y-90848671D01*
X50877797Y-90839999D01*
X51044334Y-90784814D01*
X51193656Y-90692712D01*
X51317712Y-90568656D01*
X51409814Y-90419334D01*
X51464999Y-90252797D01*
X51475500Y-90150009D01*
X51475500Y-90061304D01*
X61699500Y-90061304D01*
X61699500Y-90238695D01*
X61734103Y-90412658D01*
X61734106Y-90412667D01*
X61801983Y-90576540D01*
X61801990Y-90576553D01*
X61900535Y-90724034D01*
X61900538Y-90724038D01*
X62025961Y-90849461D01*
X62025965Y-90849464D01*
X62173446Y-90948009D01*
X62173459Y-90948016D01*
X62278646Y-90991585D01*
X62337334Y-91015894D01*
X62337336Y-91015894D01*
X62337341Y-91015896D01*
X62511304Y-91050499D01*
X62511307Y-91050500D01*
X62511309Y-91050500D01*
X62688693Y-91050500D01*
X62688694Y-91050499D01*
X62761783Y-91035961D01*
X62862658Y-91015896D01*
X62862661Y-91015894D01*
X62862666Y-91015894D01*
X63016953Y-90951987D01*
X63026540Y-90948016D01*
X63026540Y-90948015D01*
X63026547Y-90948013D01*
X63174035Y-90849464D01*
X63299464Y-90724035D01*
X63398013Y-90576547D01*
X63465894Y-90412666D01*
X63472719Y-90378358D01*
X63497694Y-90252796D01*
X63500500Y-90238691D01*
X63500500Y-90061309D01*
X63500500Y-90061306D01*
X63500499Y-90061304D01*
X63465896Y-89887341D01*
X63465893Y-89887332D01*
X63398016Y-89723459D01*
X63398009Y-89723446D01*
X63299464Y-89575965D01*
X63299461Y-89575961D01*
X63174038Y-89450538D01*
X63174034Y-89450535D01*
X63026553Y-89351990D01*
X63026540Y-89351983D01*
X62862667Y-89284106D01*
X62862658Y-89284103D01*
X62688694Y-89249500D01*
X62688691Y-89249500D01*
X62511309Y-89249500D01*
X62511306Y-89249500D01*
X62337341Y-89284103D01*
X62337332Y-89284106D01*
X62173459Y-89351983D01*
X62173446Y-89351990D01*
X62025965Y-89450535D01*
X62025961Y-89450538D01*
X61900538Y-89575961D01*
X61900535Y-89575965D01*
X61801990Y-89723446D01*
X61801983Y-89723459D01*
X61734106Y-89887332D01*
X61734103Y-89887341D01*
X61699500Y-90061304D01*
X51475500Y-90061304D01*
X51475499Y-89488414D01*
X51475499Y-88849998D01*
X51475498Y-88849981D01*
X51464999Y-88747203D01*
X51464998Y-88747199D01*
X51447443Y-88694221D01*
X51436535Y-88661304D01*
X80329500Y-88661304D01*
X80329500Y-88838695D01*
X80364103Y-89012658D01*
X80364106Y-89012667D01*
X80431983Y-89176540D01*
X80431990Y-89176553D01*
X80530535Y-89324034D01*
X80530538Y-89324038D01*
X80655961Y-89449461D01*
X80655965Y-89449464D01*
X80803446Y-89548009D01*
X80803459Y-89548016D01*
X80926363Y-89598923D01*
X80967334Y-89615894D01*
X80967336Y-89615894D01*
X80967341Y-89615896D01*
X81141304Y-89650499D01*
X81141307Y-89650500D01*
X81141309Y-89650500D01*
X81318693Y-89650500D01*
X81318694Y-89650499D01*
X81376682Y-89638964D01*
X81492658Y-89615896D01*
X81492661Y-89615894D01*
X81492666Y-89615894D01*
X81654133Y-89549013D01*
X81656540Y-89548016D01*
X81656540Y-89548015D01*
X81656547Y-89548013D01*
X81804035Y-89449464D01*
X81929464Y-89324035D01*
X81956146Y-89284103D01*
X81966564Y-89268512D01*
X82020176Y-89223706D01*
X82089501Y-89214999D01*
X82152528Y-89245153D01*
X82172765Y-89268508D01*
X82198483Y-89306996D01*
X82210537Y-89325037D01*
X82335961Y-89450461D01*
X82335965Y-89450464D01*
X82483446Y-89549009D01*
X82483459Y-89549016D01*
X82606363Y-89599923D01*
X82647334Y-89616894D01*
X82647336Y-89616894D01*
X82647341Y-89616896D01*
X82821304Y-89651499D01*
X82821307Y-89651500D01*
X82821309Y-89651500D01*
X82998693Y-89651500D01*
X82998694Y-89651499D01*
X83056682Y-89639964D01*
X83172658Y-89616896D01*
X83172661Y-89616894D01*
X83172666Y-89616894D01*
X83336547Y-89549013D01*
X83484035Y-89450464D01*
X83609464Y-89325035D01*
X83616897Y-89313909D01*
X83670508Y-89269105D01*
X83739832Y-89260396D01*
X83802861Y-89290550D01*
X83823100Y-89313906D01*
X83830536Y-89325035D01*
X83830539Y-89325039D01*
X83955961Y-89450461D01*
X83955965Y-89450464D01*
X84103446Y-89549009D01*
X84103459Y-89549016D01*
X84226363Y-89599923D01*
X84267334Y-89616894D01*
X84267336Y-89616894D01*
X84267341Y-89616896D01*
X84441304Y-89651499D01*
X84441307Y-89651500D01*
X84441309Y-89651500D01*
X84618693Y-89651500D01*
X84618694Y-89651499D01*
X84676682Y-89639964D01*
X84792658Y-89616896D01*
X84792661Y-89616894D01*
X84792666Y-89616894D01*
X84956547Y-89549013D01*
X85104035Y-89450464D01*
X85229464Y-89325035D01*
X85286898Y-89239080D01*
X85340510Y-89194275D01*
X85409835Y-89185568D01*
X85472863Y-89215723D01*
X85493102Y-89239080D01*
X85550535Y-89325034D01*
X85550538Y-89325038D01*
X85675961Y-89450461D01*
X85675965Y-89450464D01*
X85823446Y-89549009D01*
X85823459Y-89549016D01*
X85946363Y-89599923D01*
X85987334Y-89616894D01*
X85987336Y-89616894D01*
X85987341Y-89616896D01*
X86161304Y-89651499D01*
X86161307Y-89651500D01*
X86161309Y-89651500D01*
X86338693Y-89651500D01*
X86338694Y-89651499D01*
X86396682Y-89639964D01*
X86512658Y-89616896D01*
X86512661Y-89616894D01*
X86512666Y-89616894D01*
X86676547Y-89549013D01*
X86824035Y-89450464D01*
X86825038Y-89449461D01*
X86932319Y-89342181D01*
X86993642Y-89308696D01*
X87063334Y-89313680D01*
X87107681Y-89342181D01*
X87215961Y-89450461D01*
X87215965Y-89450464D01*
X87363446Y-89549009D01*
X87363459Y-89549016D01*
X87486363Y-89599923D01*
X87527334Y-89616894D01*
X87527336Y-89616894D01*
X87527341Y-89616896D01*
X87701304Y-89651499D01*
X87701307Y-89651500D01*
X87701309Y-89651500D01*
X87878693Y-89651500D01*
X87878694Y-89651499D01*
X87936682Y-89639964D01*
X88052658Y-89616896D01*
X88052661Y-89616894D01*
X88052666Y-89616894D01*
X88216547Y-89549013D01*
X88364035Y-89450464D01*
X88489464Y-89325035D01*
X88588013Y-89177547D01*
X88655894Y-89013666D01*
X88690500Y-88839691D01*
X88690500Y-88662309D01*
X88690500Y-88662306D01*
X88690499Y-88662304D01*
X88655896Y-88488341D01*
X88655893Y-88488332D01*
X88588016Y-88324459D01*
X88588009Y-88324446D01*
X88489464Y-88176965D01*
X88489461Y-88176961D01*
X88364038Y-88051538D01*
X88364034Y-88051535D01*
X88216553Y-87952990D01*
X88216540Y-87952983D01*
X88052667Y-87885106D01*
X88052658Y-87885103D01*
X87878694Y-87850500D01*
X87878691Y-87850500D01*
X87701309Y-87850500D01*
X87701306Y-87850500D01*
X87527341Y-87885103D01*
X87527332Y-87885106D01*
X87363459Y-87952983D01*
X87363446Y-87952990D01*
X87215965Y-88051535D01*
X87215961Y-88051538D01*
X87107681Y-88159819D01*
X87046358Y-88193304D01*
X86976666Y-88188320D01*
X86932319Y-88159819D01*
X86824038Y-88051538D01*
X86824034Y-88051535D01*
X86676553Y-87952990D01*
X86676540Y-87952983D01*
X86512667Y-87885106D01*
X86512658Y-87885103D01*
X86338694Y-87850500D01*
X86338691Y-87850500D01*
X86161309Y-87850500D01*
X86161306Y-87850500D01*
X85987341Y-87885103D01*
X85987332Y-87885106D01*
X85823459Y-87952983D01*
X85823446Y-87952990D01*
X85675965Y-88051535D01*
X85675961Y-88051538D01*
X85550538Y-88176961D01*
X85493102Y-88262920D01*
X85439489Y-88307724D01*
X85370164Y-88316431D01*
X85307137Y-88286276D01*
X85286898Y-88262920D01*
X85229461Y-88176961D01*
X85104038Y-88051538D01*
X85104034Y-88051535D01*
X84956553Y-87952990D01*
X84956540Y-87952983D01*
X84792667Y-87885106D01*
X84792658Y-87885103D01*
X84618694Y-87850500D01*
X84618691Y-87850500D01*
X84441309Y-87850500D01*
X84441306Y-87850500D01*
X84267341Y-87885103D01*
X84267332Y-87885106D01*
X84103459Y-87952983D01*
X84103446Y-87952990D01*
X83955965Y-88051535D01*
X83955961Y-88051538D01*
X83830538Y-88176961D01*
X83823102Y-88188091D01*
X83769489Y-88232895D01*
X83700164Y-88241602D01*
X83637137Y-88211447D01*
X83616898Y-88188091D01*
X83609461Y-88176961D01*
X83484038Y-88051538D01*
X83484034Y-88051535D01*
X83336553Y-87952990D01*
X83336540Y-87952983D01*
X83172667Y-87885106D01*
X83172658Y-87885103D01*
X82998694Y-87850500D01*
X82998691Y-87850500D01*
X82821309Y-87850500D01*
X82821306Y-87850500D01*
X82647341Y-87885103D01*
X82647332Y-87885106D01*
X82483459Y-87952983D01*
X82483446Y-87952990D01*
X82335965Y-88051535D01*
X82335961Y-88051538D01*
X82210538Y-88176961D01*
X82210535Y-88176965D01*
X82173436Y-88232488D01*
X82119823Y-88277293D01*
X82050498Y-88286000D01*
X81987471Y-88255845D01*
X81967232Y-88232488D01*
X81929464Y-88175965D01*
X81929461Y-88175961D01*
X81804038Y-88050538D01*
X81804034Y-88050535D01*
X81656553Y-87951990D01*
X81656540Y-87951983D01*
X81492667Y-87884106D01*
X81492658Y-87884103D01*
X81318694Y-87849500D01*
X81318691Y-87849500D01*
X81141309Y-87849500D01*
X81141306Y-87849500D01*
X80967341Y-87884103D01*
X80967332Y-87884106D01*
X80803459Y-87951983D01*
X80803446Y-87951990D01*
X80655965Y-88050535D01*
X80655961Y-88050538D01*
X80530538Y-88175961D01*
X80530535Y-88175965D01*
X80431990Y-88323446D01*
X80431983Y-88323459D01*
X80364106Y-88487332D01*
X80364103Y-88487341D01*
X80329500Y-88661304D01*
X51436535Y-88661304D01*
X51434034Y-88653757D01*
X51409814Y-88580666D01*
X51317712Y-88431344D01*
X51193656Y-88307288D01*
X51044334Y-88215186D01*
X51044333Y-88215185D01*
X51038878Y-88211821D01*
X50992154Y-88159873D01*
X50980931Y-88090910D01*
X51008775Y-88026828D01*
X51016272Y-88018623D01*
X51155104Y-87879792D01*
X51280051Y-87707816D01*
X51376557Y-87518412D01*
X51442246Y-87316243D01*
X51475500Y-87106287D01*
X51475500Y-86893713D01*
X51442246Y-86683757D01*
X51376557Y-86481588D01*
X51280051Y-86292184D01*
X51280049Y-86292181D01*
X51280048Y-86292179D01*
X51155109Y-86120213D01*
X51004790Y-85969894D01*
X51004785Y-85969890D01*
X50839781Y-85850008D01*
X50797115Y-85794678D01*
X50791136Y-85725065D01*
X50823741Y-85663270D01*
X50839781Y-85649371D01*
X51004466Y-85529721D01*
X51154723Y-85379464D01*
X51154727Y-85379459D01*
X51279620Y-85207557D01*
X51376095Y-85018217D01*
X51401086Y-84941304D01*
X54879500Y-84941304D01*
X54879500Y-85118695D01*
X54914103Y-85292658D01*
X54914106Y-85292667D01*
X54981983Y-85456540D01*
X54981990Y-85456553D01*
X55080535Y-85604034D01*
X55080538Y-85604038D01*
X55205961Y-85729461D01*
X55205965Y-85729464D01*
X55353446Y-85828009D01*
X55353459Y-85828016D01*
X55476363Y-85878923D01*
X55517334Y-85895894D01*
X55517336Y-85895894D01*
X55517341Y-85895896D01*
X55691304Y-85930499D01*
X55691307Y-85930500D01*
X55691309Y-85930500D01*
X55868693Y-85930500D01*
X55868694Y-85930499D01*
X55926682Y-85918964D01*
X56042658Y-85895896D01*
X56042661Y-85895894D01*
X56042666Y-85895894D01*
X56206547Y-85828013D01*
X56354035Y-85729464D01*
X56479464Y-85604035D01*
X56578013Y-85456547D01*
X56645894Y-85292666D01*
X56650307Y-85270484D01*
X56670456Y-85169185D01*
X56680500Y-85118691D01*
X56680500Y-84941309D01*
X56674532Y-84911304D01*
X60599500Y-84911304D01*
X60599500Y-85088695D01*
X60634103Y-85262658D01*
X60634106Y-85262667D01*
X60701983Y-85426540D01*
X60701990Y-85426553D01*
X60800535Y-85574034D01*
X60800538Y-85574038D01*
X60925961Y-85699461D01*
X60925965Y-85699464D01*
X61073446Y-85798009D01*
X61073459Y-85798016D01*
X61145880Y-85828013D01*
X61237334Y-85865894D01*
X61237336Y-85865894D01*
X61237341Y-85865896D01*
X61411304Y-85900499D01*
X61411307Y-85900500D01*
X61411309Y-85900500D01*
X61588693Y-85900500D01*
X61588694Y-85900499D01*
X61646682Y-85888964D01*
X61762658Y-85865896D01*
X61762661Y-85865894D01*
X61762666Y-85865894D01*
X61926547Y-85798013D01*
X62074035Y-85699464D01*
X62199464Y-85574035D01*
X62298013Y-85426547D01*
X62365894Y-85262666D01*
X62369583Y-85244123D01*
X62394532Y-85118693D01*
X62400500Y-85088691D01*
X62400500Y-84911309D01*
X62400500Y-84911306D01*
X62400499Y-84911304D01*
X62365896Y-84737341D01*
X62365893Y-84737332D01*
X62359443Y-84721761D01*
X62325944Y-84640885D01*
X62298016Y-84573459D01*
X62298009Y-84573446D01*
X62199464Y-84425965D01*
X62199461Y-84425961D01*
X62074038Y-84300538D01*
X62074034Y-84300535D01*
X61926553Y-84201990D01*
X61926540Y-84201983D01*
X61762667Y-84134106D01*
X61762658Y-84134103D01*
X61588694Y-84099500D01*
X61588691Y-84099500D01*
X61411309Y-84099500D01*
X61411306Y-84099500D01*
X61237341Y-84134103D01*
X61237332Y-84134106D01*
X61073459Y-84201983D01*
X61073446Y-84201990D01*
X60925965Y-84300535D01*
X60925961Y-84300538D01*
X60800538Y-84425961D01*
X60800535Y-84425965D01*
X60701990Y-84573446D01*
X60701983Y-84573459D01*
X60634106Y-84737332D01*
X60634103Y-84737341D01*
X60599500Y-84911304D01*
X56674532Y-84911304D01*
X56671854Y-84897843D01*
X56645896Y-84767341D01*
X56645893Y-84767332D01*
X56578016Y-84603459D01*
X56578009Y-84603446D01*
X56479464Y-84455965D01*
X56479461Y-84455961D01*
X56354038Y-84330538D01*
X56354034Y-84330535D01*
X56206553Y-84231990D01*
X56206540Y-84231983D01*
X56042667Y-84164106D01*
X56042658Y-84164103D01*
X55868694Y-84129500D01*
X55868691Y-84129500D01*
X55691309Y-84129500D01*
X55691306Y-84129500D01*
X55517341Y-84164103D01*
X55517332Y-84164106D01*
X55353459Y-84231983D01*
X55353446Y-84231990D01*
X55205965Y-84330535D01*
X55205961Y-84330538D01*
X55080538Y-84455961D01*
X55080535Y-84455965D01*
X54981990Y-84603446D01*
X54981983Y-84603459D01*
X54914106Y-84767332D01*
X54914103Y-84767341D01*
X54879500Y-84941304D01*
X51401086Y-84941304D01*
X51415514Y-84896899D01*
X51441757Y-84816129D01*
X51441757Y-84816126D01*
X51452231Y-84750000D01*
X50404146Y-84750000D01*
X50442630Y-84683343D01*
X50475000Y-84562535D01*
X50475000Y-84437465D01*
X50442630Y-84316657D01*
X50404146Y-84250000D01*
X51452231Y-84250000D01*
X51441757Y-84183873D01*
X51441757Y-84183870D01*
X51376095Y-83981782D01*
X51279620Y-83792442D01*
X51154727Y-83620540D01*
X51154723Y-83620535D01*
X51004464Y-83470276D01*
X51004459Y-83470272D01*
X50846551Y-83355546D01*
X50846535Y-83355535D01*
X50832554Y-83345377D01*
X50667553Y-83261304D01*
X66899500Y-83261304D01*
X66899500Y-83438695D01*
X66934103Y-83612658D01*
X66934106Y-83612667D01*
X67001983Y-83776540D01*
X67001990Y-83776553D01*
X67100535Y-83924034D01*
X67100538Y-83924038D01*
X67130782Y-83954282D01*
X67164267Y-84015605D01*
X67159283Y-84085297D01*
X67157664Y-84089411D01*
X67146834Y-84115559D01*
X67146832Y-84115564D01*
X67112228Y-84289531D01*
X67112228Y-84466922D01*
X67146831Y-84640885D01*
X67146834Y-84640894D01*
X67214711Y-84804767D01*
X67214718Y-84804780D01*
X67313263Y-84952261D01*
X67313266Y-84952265D01*
X67438689Y-85077688D01*
X67438693Y-85077691D01*
X67586174Y-85176236D01*
X67586187Y-85176243D01*
X67697893Y-85222512D01*
X67750062Y-85244121D01*
X67750064Y-85244121D01*
X67750069Y-85244123D01*
X67924032Y-85278726D01*
X67924035Y-85278727D01*
X67924037Y-85278727D01*
X68101421Y-85278727D01*
X68101422Y-85278726D01*
X68182203Y-85262658D01*
X68275386Y-85244123D01*
X68275389Y-85244121D01*
X68275394Y-85244121D01*
X68415263Y-85186185D01*
X68439268Y-85176243D01*
X68439268Y-85176242D01*
X68439275Y-85176240D01*
X68586763Y-85077691D01*
X68712192Y-84952262D01*
X68810741Y-84804774D01*
X68878622Y-84640893D01*
X68880690Y-84630500D01*
X68913227Y-84466922D01*
X68913228Y-84466920D01*
X68913228Y-84289533D01*
X68913227Y-84289531D01*
X68878624Y-84115568D01*
X68878621Y-84115559D01*
X68824164Y-83984085D01*
X68810744Y-83951686D01*
X68810737Y-83951673D01*
X68804755Y-83942720D01*
X73970500Y-83942720D01*
X73970500Y-84120111D01*
X74005103Y-84294074D01*
X74005106Y-84294083D01*
X74072983Y-84457956D01*
X74072990Y-84457969D01*
X74171535Y-84605450D01*
X74171538Y-84605454D01*
X74296961Y-84730877D01*
X74296965Y-84730880D01*
X74444446Y-84829425D01*
X74444459Y-84829432D01*
X74566773Y-84880095D01*
X74608334Y-84897310D01*
X74608336Y-84897310D01*
X74608341Y-84897312D01*
X74782304Y-84931915D01*
X74782307Y-84931916D01*
X74782309Y-84931916D01*
X74959693Y-84931916D01*
X74959694Y-84931915D01*
X75039143Y-84916112D01*
X75133658Y-84897312D01*
X75133661Y-84897310D01*
X75133666Y-84897310D01*
X75297547Y-84829429D01*
X75445035Y-84730880D01*
X75570464Y-84605451D01*
X75669013Y-84457963D01*
X75736894Y-84294082D01*
X75737799Y-84289536D01*
X75768716Y-84134103D01*
X75771500Y-84120107D01*
X75771500Y-83942725D01*
X75771500Y-83942722D01*
X75771499Y-83942720D01*
X75736896Y-83768757D01*
X75736894Y-83768754D01*
X75736894Y-83768750D01*
X75701237Y-83682665D01*
X75684105Y-83641304D01*
X83929500Y-83641304D01*
X83929500Y-83818695D01*
X83964103Y-83992658D01*
X83964106Y-83992667D01*
X84031983Y-84156540D01*
X84031990Y-84156553D01*
X84130535Y-84304034D01*
X84130538Y-84304038D01*
X84255961Y-84429461D01*
X84255965Y-84429464D01*
X84403446Y-84528009D01*
X84403459Y-84528016D01*
X84526363Y-84578923D01*
X84567334Y-84595894D01*
X84567336Y-84595894D01*
X84567341Y-84595896D01*
X84741304Y-84630499D01*
X84741307Y-84630500D01*
X84741309Y-84630500D01*
X84918693Y-84630500D01*
X84918694Y-84630499D01*
X84976682Y-84618964D01*
X85092658Y-84595896D01*
X85092661Y-84595894D01*
X85092666Y-84595894D01*
X85256547Y-84528013D01*
X85404035Y-84429464D01*
X85529464Y-84304035D01*
X85628013Y-84156547D01*
X85695894Y-83992666D01*
X85704046Y-83951686D01*
X85730499Y-83818695D01*
X85730500Y-83818693D01*
X85730500Y-83641306D01*
X85730499Y-83641304D01*
X85695896Y-83467341D01*
X85695893Y-83467332D01*
X85628016Y-83303459D01*
X85628009Y-83303446D01*
X85529464Y-83155965D01*
X85529461Y-83155961D01*
X85404038Y-83030538D01*
X85404034Y-83030535D01*
X85256553Y-82931990D01*
X85256540Y-82931983D01*
X85092667Y-82864106D01*
X85092658Y-82864103D01*
X84918694Y-82829500D01*
X84918691Y-82829500D01*
X84741309Y-82829500D01*
X84741306Y-82829500D01*
X84567341Y-82864103D01*
X84567332Y-82864106D01*
X84403459Y-82931983D01*
X84403446Y-82931990D01*
X84255965Y-83030535D01*
X84255961Y-83030538D01*
X84130538Y-83155961D01*
X84130535Y-83155965D01*
X84031990Y-83303446D01*
X84031983Y-83303459D01*
X83964106Y-83467332D01*
X83964103Y-83467341D01*
X83929500Y-83641304D01*
X75684105Y-83641304D01*
X75669016Y-83604875D01*
X75669009Y-83604862D01*
X75570464Y-83457381D01*
X75570461Y-83457377D01*
X75445038Y-83331954D01*
X75445034Y-83331951D01*
X75297553Y-83233406D01*
X75297540Y-83233399D01*
X75133667Y-83165522D01*
X75133658Y-83165519D01*
X74959694Y-83130916D01*
X74959691Y-83130916D01*
X74782309Y-83130916D01*
X74782306Y-83130916D01*
X74608341Y-83165519D01*
X74608332Y-83165522D01*
X74444459Y-83233399D01*
X74444446Y-83233406D01*
X74296965Y-83331951D01*
X74296961Y-83331954D01*
X74171538Y-83457377D01*
X74171535Y-83457381D01*
X74072990Y-83604862D01*
X74072983Y-83604875D01*
X74005106Y-83768748D01*
X74005103Y-83768757D01*
X73970500Y-83942720D01*
X68804755Y-83942720D01*
X68712192Y-83804192D01*
X68712189Y-83804188D01*
X68681944Y-83773943D01*
X68648459Y-83712620D01*
X68653443Y-83642928D01*
X68655043Y-83638862D01*
X68665894Y-83612666D01*
X68667447Y-83604862D01*
X68694801Y-83467341D01*
X68700500Y-83438691D01*
X68700500Y-83261309D01*
X68700500Y-83261306D01*
X68700499Y-83261304D01*
X68665896Y-83087341D01*
X68665893Y-83087332D01*
X68598016Y-82923459D01*
X68598009Y-82923446D01*
X68499464Y-82775965D01*
X68499461Y-82775961D01*
X68374038Y-82650538D01*
X68374034Y-82650535D01*
X68226553Y-82551990D01*
X68226540Y-82551983D01*
X68062667Y-82484106D01*
X68062658Y-82484103D01*
X67888694Y-82449500D01*
X67888691Y-82449500D01*
X67711309Y-82449500D01*
X67711306Y-82449500D01*
X67537341Y-82484103D01*
X67537332Y-82484106D01*
X67373459Y-82551983D01*
X67373446Y-82551990D01*
X67225965Y-82650535D01*
X67225961Y-82650538D01*
X67100538Y-82775961D01*
X67100535Y-82775965D01*
X67001990Y-82923446D01*
X67001983Y-82923459D01*
X66934106Y-83087332D01*
X66934103Y-83087341D01*
X66899500Y-83261304D01*
X50667553Y-83261304D01*
X50643217Y-83248904D01*
X50441128Y-83183242D01*
X50250000Y-83152969D01*
X50250000Y-84095854D01*
X50183343Y-84057370D01*
X50062535Y-84025000D01*
X49937465Y-84025000D01*
X49816657Y-84057370D01*
X49750000Y-84095854D01*
X49750000Y-83152969D01*
X49558872Y-83183242D01*
X49558869Y-83183242D01*
X49356782Y-83248904D01*
X49167442Y-83345379D01*
X48995540Y-83470272D01*
X48995535Y-83470276D01*
X48845276Y-83620535D01*
X48845272Y-83620540D01*
X48720379Y-83792442D01*
X48623904Y-83981782D01*
X48558242Y-84183870D01*
X48558242Y-84183873D01*
X48547769Y-84250000D01*
X49595854Y-84250000D01*
X49557370Y-84316657D01*
X49525000Y-84437465D01*
X49525000Y-84562535D01*
X49557370Y-84683343D01*
X49595854Y-84750000D01*
X48547769Y-84750000D01*
X48558242Y-84816126D01*
X48558242Y-84816129D01*
X48623904Y-85018217D01*
X48720379Y-85207557D01*
X48845272Y-85379459D01*
X48845276Y-85379464D01*
X48995535Y-85529723D01*
X48995540Y-85529727D01*
X49160218Y-85649372D01*
X49202884Y-85704701D01*
X49208863Y-85774315D01*
X49176258Y-85836110D01*
X49160218Y-85850008D01*
X48995214Y-85969890D01*
X48995209Y-85969894D01*
X48844890Y-86120213D01*
X48719951Y-86292179D01*
X48623444Y-86481585D01*
X48557753Y-86683760D01*
X48547857Y-86746243D01*
X48524500Y-86893713D01*
X45300500Y-86893713D01*
X45300500Y-80611304D01*
X62329500Y-80611304D01*
X62329500Y-80788695D01*
X62364103Y-80962658D01*
X62364106Y-80962667D01*
X62431983Y-81126540D01*
X62431990Y-81126553D01*
X62530535Y-81274034D01*
X62530538Y-81274038D01*
X62655961Y-81399461D01*
X62655965Y-81399464D01*
X62803446Y-81498009D01*
X62803459Y-81498016D01*
X62881971Y-81530536D01*
X62967334Y-81565894D01*
X62967336Y-81565894D01*
X62967341Y-81565896D01*
X63141304Y-81600499D01*
X63141307Y-81600500D01*
X63141309Y-81600500D01*
X63318693Y-81600500D01*
X63318694Y-81600499D01*
X63376682Y-81588964D01*
X63492658Y-81565896D01*
X63492661Y-81565894D01*
X63492666Y-81565894D01*
X63656547Y-81498013D01*
X63804035Y-81399464D01*
X63929464Y-81274035D01*
X64028013Y-81126547D01*
X64095894Y-80962666D01*
X64106901Y-80907334D01*
X64130499Y-80788695D01*
X64130500Y-80788693D01*
X64130500Y-80611306D01*
X64130499Y-80611304D01*
X64095896Y-80437341D01*
X64095893Y-80437332D01*
X64028016Y-80273459D01*
X64028009Y-80273446D01*
X63929464Y-80125965D01*
X63929461Y-80125961D01*
X63814804Y-80011304D01*
X71899500Y-80011304D01*
X71899500Y-80188695D01*
X71934103Y-80362658D01*
X71934106Y-80362667D01*
X72001983Y-80526540D01*
X72001990Y-80526553D01*
X72100535Y-80674034D01*
X72100538Y-80674038D01*
X72225961Y-80799461D01*
X72225965Y-80799464D01*
X72373446Y-80898009D01*
X72373459Y-80898016D01*
X72496363Y-80948923D01*
X72537334Y-80965894D01*
X72643084Y-80986929D01*
X72704995Y-81019313D01*
X72733454Y-81061094D01*
X72801983Y-81226540D01*
X72801990Y-81226553D01*
X72900535Y-81374034D01*
X72900538Y-81374038D01*
X73025961Y-81499461D01*
X73025965Y-81499464D01*
X73173446Y-81598009D01*
X73173459Y-81598016D01*
X73296363Y-81648923D01*
X73337334Y-81665894D01*
X73337336Y-81665894D01*
X73337341Y-81665896D01*
X73511304Y-81700499D01*
X73511307Y-81700500D01*
X73511309Y-81700500D01*
X73688693Y-81700500D01*
X73688694Y-81700499D01*
X73746682Y-81688964D01*
X73862658Y-81665896D01*
X73862661Y-81665894D01*
X73862666Y-81665894D01*
X74026547Y-81598013D01*
X74174035Y-81499464D01*
X74299464Y-81374035D01*
X74398013Y-81226547D01*
X74465894Y-81062666D01*
X74471645Y-81033757D01*
X74498646Y-80898013D01*
X74500500Y-80888691D01*
X74500500Y-80711309D01*
X74500500Y-80711306D01*
X74500499Y-80711304D01*
X74465896Y-80537341D01*
X74465893Y-80537332D01*
X74465297Y-80535894D01*
X74448923Y-80496363D01*
X74398016Y-80373459D01*
X74398009Y-80373446D01*
X74299464Y-80225965D01*
X74299461Y-80225961D01*
X74174038Y-80100538D01*
X74174034Y-80100535D01*
X74026553Y-80001990D01*
X74026540Y-80001983D01*
X73862667Y-79934106D01*
X73862659Y-79934104D01*
X73756914Y-79913070D01*
X73752049Y-79910525D01*
X73746557Y-79910543D01*
X73721417Y-79894502D01*
X73695004Y-79880685D01*
X73691060Y-79875131D01*
X73687656Y-79872959D01*
X73674848Y-79852299D01*
X73668479Y-79843329D01*
X73666028Y-79838007D01*
X73665894Y-79837334D01*
X73598013Y-79673453D01*
X73561532Y-79618856D01*
X73549773Y-79581304D01*
X75973500Y-79581304D01*
X75973500Y-79758695D01*
X76008103Y-79932658D01*
X76008106Y-79932667D01*
X76075983Y-80096540D01*
X76075990Y-80096553D01*
X76174535Y-80244034D01*
X76174538Y-80244038D01*
X76299961Y-80369461D01*
X76299965Y-80369464D01*
X76447446Y-80468009D01*
X76447459Y-80468016D01*
X76568708Y-80518238D01*
X76611334Y-80535894D01*
X76611336Y-80535894D01*
X76611341Y-80535896D01*
X76785304Y-80570499D01*
X76785307Y-80570500D01*
X76965047Y-80570500D01*
X77032086Y-80590185D01*
X77077841Y-80642989D01*
X77087785Y-80712147D01*
X77079608Y-80741952D01*
X77011106Y-80907332D01*
X77011103Y-80907341D01*
X76976500Y-81081304D01*
X76976500Y-81248460D01*
X76956815Y-81315499D01*
X76904011Y-81361254D01*
X76899952Y-81363021D01*
X76733459Y-81431983D01*
X76733446Y-81431990D01*
X76585965Y-81530535D01*
X76585961Y-81530538D01*
X76460538Y-81655961D01*
X76460535Y-81655965D01*
X76361990Y-81803446D01*
X76361983Y-81803459D01*
X76294106Y-81967332D01*
X76294103Y-81967341D01*
X76259500Y-82141304D01*
X76259500Y-82318695D01*
X76294103Y-82492658D01*
X76294106Y-82492667D01*
X76361983Y-82656540D01*
X76361990Y-82656553D01*
X76460535Y-82804034D01*
X76460538Y-82804038D01*
X76585961Y-82929461D01*
X76585965Y-82929464D01*
X76733446Y-83028009D01*
X76733459Y-83028016D01*
X76806423Y-83058238D01*
X76897334Y-83095894D01*
X76897336Y-83095894D01*
X76897341Y-83095896D01*
X77071304Y-83130499D01*
X77071307Y-83130500D01*
X77071309Y-83130500D01*
X77248693Y-83130500D01*
X77248694Y-83130499D01*
X77306682Y-83118964D01*
X77422658Y-83095896D01*
X77422661Y-83095894D01*
X77422666Y-83095894D01*
X77586547Y-83028013D01*
X77734035Y-82929464D01*
X77859464Y-82804035D01*
X77958013Y-82656547D01*
X78025894Y-82492666D01*
X78027598Y-82484103D01*
X78060499Y-82318695D01*
X78060500Y-82318693D01*
X78060500Y-82151539D01*
X78080185Y-82084500D01*
X78132989Y-82038745D01*
X78137048Y-82036978D01*
X78139664Y-82035894D01*
X78139666Y-82035894D01*
X78209790Y-82006847D01*
X78303541Y-81968016D01*
X78303544Y-81968014D01*
X78303547Y-81968013D01*
X78451035Y-81869464D01*
X78576464Y-81744035D01*
X78675013Y-81596547D01*
X78742894Y-81432666D01*
X78743029Y-81431990D01*
X78777499Y-81258695D01*
X78777500Y-81258693D01*
X78777500Y-81081306D01*
X78777499Y-81081304D01*
X78742896Y-80907341D01*
X78742893Y-80907332D01*
X78739031Y-80898009D01*
X78711518Y-80831585D01*
X78675016Y-80743459D01*
X78675009Y-80743446D01*
X78576464Y-80595965D01*
X78576461Y-80595961D01*
X78451038Y-80470538D01*
X78451034Y-80470535D01*
X78303553Y-80371990D01*
X78303540Y-80371983D01*
X78139667Y-80304106D01*
X78139658Y-80304103D01*
X77965694Y-80269500D01*
X77965691Y-80269500D01*
X77788309Y-80269500D01*
X77785953Y-80269500D01*
X77718914Y-80249815D01*
X77673159Y-80197011D01*
X77663215Y-80127853D01*
X77671392Y-80098048D01*
X77714189Y-79994725D01*
X77739894Y-79932666D01*
X77745997Y-79901987D01*
X77762964Y-79816682D01*
X77774500Y-79758691D01*
X77774500Y-79581309D01*
X77774500Y-79581306D01*
X77774499Y-79581304D01*
X77739896Y-79407341D01*
X77739893Y-79407332D01*
X77672016Y-79243459D01*
X77672009Y-79243446D01*
X77573464Y-79095965D01*
X77573461Y-79095961D01*
X77448038Y-78970538D01*
X77448034Y-78970535D01*
X77300553Y-78871990D01*
X77300540Y-78871983D01*
X77136667Y-78804106D01*
X77136658Y-78804103D01*
X76962694Y-78769500D01*
X76962691Y-78769500D01*
X76785309Y-78769500D01*
X76785306Y-78769500D01*
X76611341Y-78804103D01*
X76611332Y-78804106D01*
X76447459Y-78871983D01*
X76447446Y-78871990D01*
X76299965Y-78970535D01*
X76299961Y-78970538D01*
X76174538Y-79095961D01*
X76174535Y-79095965D01*
X76075990Y-79243446D01*
X76075983Y-79243459D01*
X76008106Y-79407332D01*
X76008103Y-79407341D01*
X75973500Y-79581304D01*
X73549773Y-79581304D01*
X73540654Y-79552182D01*
X73559137Y-79484802D01*
X73561533Y-79481074D01*
X73581534Y-79451142D01*
X73618013Y-79396547D01*
X73685894Y-79232666D01*
X73720500Y-79058691D01*
X73720500Y-78881309D01*
X73720500Y-78881306D01*
X73720499Y-78881304D01*
X73685896Y-78707341D01*
X73685893Y-78707332D01*
X73679836Y-78692710D01*
X73628453Y-78568657D01*
X73618016Y-78543459D01*
X73618009Y-78543446D01*
X73519464Y-78395965D01*
X73519461Y-78395961D01*
X73394038Y-78270538D01*
X73394034Y-78270535D01*
X73246553Y-78171990D01*
X73246540Y-78171983D01*
X73082667Y-78104106D01*
X73082658Y-78104103D01*
X72908694Y-78069500D01*
X72908691Y-78069500D01*
X72731309Y-78069500D01*
X72731306Y-78069500D01*
X72557341Y-78104103D01*
X72557332Y-78104106D01*
X72393459Y-78171983D01*
X72393446Y-78171990D01*
X72245965Y-78270535D01*
X72245961Y-78270538D01*
X72120538Y-78395961D01*
X72120535Y-78395965D01*
X72021990Y-78543446D01*
X72021983Y-78543459D01*
X71954106Y-78707332D01*
X71954103Y-78707341D01*
X71919500Y-78881304D01*
X71919500Y-79058695D01*
X71954103Y-79232658D01*
X71954106Y-79232667D01*
X72021984Y-79396542D01*
X72021985Y-79396543D01*
X72021987Y-79396547D01*
X72058467Y-79451142D01*
X72079345Y-79517819D01*
X72060861Y-79585199D01*
X72058467Y-79588924D01*
X72001990Y-79673446D01*
X72001983Y-79673459D01*
X71934106Y-79837332D01*
X71934103Y-79837341D01*
X71899500Y-80011304D01*
X63814804Y-80011304D01*
X63804038Y-80000538D01*
X63804034Y-80000535D01*
X63656553Y-79901990D01*
X63656540Y-79901983D01*
X63492667Y-79834106D01*
X63492658Y-79834103D01*
X63318694Y-79799500D01*
X63318691Y-79799500D01*
X63141309Y-79799500D01*
X63141306Y-79799500D01*
X62967341Y-79834103D01*
X62967332Y-79834106D01*
X62803459Y-79901983D01*
X62803446Y-79901990D01*
X62655965Y-80000535D01*
X62655961Y-80000538D01*
X62530538Y-80125961D01*
X62530535Y-80125965D01*
X62431990Y-80273446D01*
X62431983Y-80273459D01*
X62364106Y-80437332D01*
X62364103Y-80437341D01*
X62329500Y-80611304D01*
X45300500Y-80611304D01*
X45300500Y-74893713D01*
X48524500Y-74893713D01*
X48524500Y-75106287D01*
X48525165Y-75110484D01*
X48549053Y-75261312D01*
X48557754Y-75316243D01*
X48597542Y-75438698D01*
X48623444Y-75518414D01*
X48719951Y-75707820D01*
X48844890Y-75879786D01*
X48983705Y-76018601D01*
X49017190Y-76079924D01*
X49012206Y-76149616D01*
X48970334Y-76205549D01*
X48961121Y-76211821D01*
X48806342Y-76307289D01*
X48682289Y-76431342D01*
X48590187Y-76580663D01*
X48590186Y-76580666D01*
X48535001Y-76747203D01*
X48535001Y-76747204D01*
X48535000Y-76747204D01*
X48524500Y-76849983D01*
X48524500Y-78150001D01*
X48524501Y-78150018D01*
X48535000Y-78252796D01*
X48535001Y-78252799D01*
X48547854Y-78291585D01*
X48590186Y-78419334D01*
X48682288Y-78568656D01*
X48806344Y-78692712D01*
X48955666Y-78784814D01*
X49122203Y-78839999D01*
X49224991Y-78850500D01*
X50775008Y-78850499D01*
X50877797Y-78839999D01*
X51044334Y-78784814D01*
X51193656Y-78692712D01*
X51317712Y-78568656D01*
X51409814Y-78419334D01*
X51464999Y-78252797D01*
X51475500Y-78150009D01*
X51475499Y-76911304D01*
X61599500Y-76911304D01*
X61599500Y-77088695D01*
X61634103Y-77262658D01*
X61634106Y-77262667D01*
X61701983Y-77426540D01*
X61701990Y-77426553D01*
X61800535Y-77574034D01*
X61800538Y-77574038D01*
X61925961Y-77699461D01*
X61925965Y-77699464D01*
X62073446Y-77798009D01*
X62073459Y-77798016D01*
X62125774Y-77819685D01*
X62237334Y-77865894D01*
X62237336Y-77865894D01*
X62237341Y-77865896D01*
X62411304Y-77900499D01*
X62411307Y-77900500D01*
X62411309Y-77900500D01*
X62588693Y-77900500D01*
X62588694Y-77900499D01*
X62646682Y-77888964D01*
X62762658Y-77865896D01*
X62762661Y-77865894D01*
X62762666Y-77865894D01*
X62926547Y-77798013D01*
X63074035Y-77699464D01*
X63199464Y-77574035D01*
X63298013Y-77426547D01*
X63365894Y-77262666D01*
X63400500Y-77088691D01*
X63400500Y-76911309D01*
X63400500Y-76911306D01*
X63400499Y-76911304D01*
X63365896Y-76737341D01*
X63365893Y-76737332D01*
X63363539Y-76731650D01*
X63303311Y-76586243D01*
X63298016Y-76573459D01*
X63298009Y-76573446D01*
X63199464Y-76425965D01*
X63199461Y-76425961D01*
X63074038Y-76300538D01*
X63074034Y-76300535D01*
X62926553Y-76201990D01*
X62926540Y-76201983D01*
X62762667Y-76134106D01*
X62762658Y-76134103D01*
X62588694Y-76099500D01*
X62588691Y-76099500D01*
X62411309Y-76099500D01*
X62411306Y-76099500D01*
X62237341Y-76134103D01*
X62237332Y-76134106D01*
X62073459Y-76201983D01*
X62073446Y-76201990D01*
X61925965Y-76300535D01*
X61925961Y-76300538D01*
X61800538Y-76425961D01*
X61800535Y-76425965D01*
X61701990Y-76573446D01*
X61701983Y-76573459D01*
X61634106Y-76737332D01*
X61634103Y-76737341D01*
X61599500Y-76911304D01*
X51475499Y-76911304D01*
X51475499Y-76849992D01*
X51464999Y-76747203D01*
X51409814Y-76580666D01*
X51317712Y-76431344D01*
X51193656Y-76307288D01*
X51044334Y-76215186D01*
X51044333Y-76215185D01*
X51038878Y-76211821D01*
X50992154Y-76159873D01*
X50980931Y-76090910D01*
X51008775Y-76026828D01*
X51016272Y-76018623D01*
X51155104Y-75879792D01*
X51280051Y-75707816D01*
X51376557Y-75518412D01*
X51442246Y-75316243D01*
X51475500Y-75106287D01*
X51475500Y-74893713D01*
X51442246Y-74683757D01*
X51376557Y-74481588D01*
X51280051Y-74292184D01*
X51280049Y-74292181D01*
X51280048Y-74292179D01*
X51155109Y-74120213D01*
X51004790Y-73969894D01*
X51004785Y-73969890D01*
X50839781Y-73850008D01*
X50797115Y-73794678D01*
X50791136Y-73725065D01*
X50823741Y-73663270D01*
X50839781Y-73649371D01*
X51004466Y-73529721D01*
X51154723Y-73379464D01*
X51154727Y-73379459D01*
X51240573Y-73261301D01*
X73299500Y-73261301D01*
X73299500Y-73438692D01*
X73334103Y-73612655D01*
X73334106Y-73612664D01*
X73401984Y-73776539D01*
X73401987Y-73776544D01*
X73405037Y-73781109D01*
X73425914Y-73847787D01*
X73407428Y-73915167D01*
X73405039Y-73918885D01*
X73401990Y-73923447D01*
X73401983Y-73923460D01*
X73334106Y-74087332D01*
X73334103Y-74087341D01*
X73299500Y-74261304D01*
X73299500Y-74438695D01*
X73334103Y-74612658D01*
X73334106Y-74612667D01*
X73401984Y-74776542D01*
X73401987Y-74776547D01*
X73405037Y-74781112D01*
X73425914Y-74847790D01*
X73407428Y-74915170D01*
X73405039Y-74918888D01*
X73401990Y-74923450D01*
X73401983Y-74923463D01*
X73334106Y-75087335D01*
X73334103Y-75087344D01*
X73299500Y-75261307D01*
X73299500Y-75438698D01*
X73334103Y-75612661D01*
X73334106Y-75612670D01*
X73401983Y-75776543D01*
X73401990Y-75776556D01*
X73500535Y-75924037D01*
X73500538Y-75924041D01*
X73625961Y-76049464D01*
X73625965Y-76049467D01*
X73773446Y-76148012D01*
X73773459Y-76148019D01*
X73896363Y-76198926D01*
X73937334Y-76215897D01*
X73937336Y-76215897D01*
X73937341Y-76215899D01*
X74111304Y-76250502D01*
X74111307Y-76250503D01*
X74111309Y-76250503D01*
X74288693Y-76250503D01*
X74288694Y-76250502D01*
X74346682Y-76238967D01*
X74462658Y-76215899D01*
X74462661Y-76215897D01*
X74462666Y-76215897D01*
X74626547Y-76148016D01*
X74774035Y-76049467D01*
X74899464Y-75924038D01*
X74998013Y-75776550D01*
X75065894Y-75612669D01*
X75074194Y-75570946D01*
X75100499Y-75438698D01*
X75100500Y-75438696D01*
X75100500Y-75261309D01*
X75100499Y-75261307D01*
X75065896Y-75087344D01*
X75065893Y-75087335D01*
X74998016Y-74923462D01*
X74998014Y-74923459D01*
X74998013Y-74923456D01*
X74994961Y-74918888D01*
X74974085Y-74852215D01*
X74992569Y-74784835D01*
X74994952Y-74781126D01*
X74998013Y-74776547D01*
X75065894Y-74612666D01*
X75100500Y-74438691D01*
X75100500Y-74261309D01*
X75100500Y-74261306D01*
X75100499Y-74261304D01*
X75065896Y-74087341D01*
X75065893Y-74087332D01*
X74998016Y-73923459D01*
X74998014Y-73923456D01*
X74998013Y-73923453D01*
X74994961Y-73918885D01*
X74974085Y-73852212D01*
X74992569Y-73784832D01*
X74994952Y-73781123D01*
X74998013Y-73776544D01*
X75065894Y-73612663D01*
X75100500Y-73438688D01*
X75100500Y-73261306D01*
X75100500Y-73261303D01*
X75100499Y-73261301D01*
X75065896Y-73087338D01*
X75065893Y-73087329D01*
X75061425Y-73076543D01*
X75038910Y-73022184D01*
X74998016Y-72923456D01*
X74998009Y-72923443D01*
X74899464Y-72775962D01*
X74899461Y-72775958D01*
X74774038Y-72650535D01*
X74774034Y-72650532D01*
X74626553Y-72551987D01*
X74626540Y-72551980D01*
X74462667Y-72484103D01*
X74462658Y-72484100D01*
X74288694Y-72449497D01*
X74288691Y-72449497D01*
X74111309Y-72449497D01*
X74111306Y-72449497D01*
X73937341Y-72484100D01*
X73937332Y-72484103D01*
X73773459Y-72551980D01*
X73773446Y-72551987D01*
X73625965Y-72650532D01*
X73625961Y-72650535D01*
X73500538Y-72775958D01*
X73500535Y-72775962D01*
X73401990Y-72923443D01*
X73401983Y-72923456D01*
X73334106Y-73087329D01*
X73334103Y-73087338D01*
X73299500Y-73261301D01*
X51240573Y-73261301D01*
X51279620Y-73207557D01*
X51376095Y-73018217D01*
X51441757Y-72816129D01*
X51441757Y-72816126D01*
X51452231Y-72750000D01*
X50404146Y-72750000D01*
X50442630Y-72683343D01*
X50475000Y-72562535D01*
X50475000Y-72437465D01*
X50442630Y-72316657D01*
X50404146Y-72250000D01*
X51452231Y-72250000D01*
X51441757Y-72183873D01*
X51441757Y-72183870D01*
X51376095Y-71981782D01*
X51279620Y-71792442D01*
X51154727Y-71620540D01*
X51154723Y-71620535D01*
X51004464Y-71470276D01*
X51004459Y-71470272D01*
X50832557Y-71345379D01*
X50643217Y-71248904D01*
X50441128Y-71183242D01*
X50250000Y-71152969D01*
X50250000Y-72095854D01*
X50183343Y-72057370D01*
X50062535Y-72025000D01*
X49937465Y-72025000D01*
X49816657Y-72057370D01*
X49750000Y-72095854D01*
X49750000Y-71152969D01*
X49558872Y-71183242D01*
X49558869Y-71183242D01*
X49356782Y-71248904D01*
X49167442Y-71345379D01*
X48995540Y-71470272D01*
X48995535Y-71470276D01*
X48845276Y-71620535D01*
X48845272Y-71620540D01*
X48720379Y-71792442D01*
X48623904Y-71981782D01*
X48558242Y-72183870D01*
X48558242Y-72183873D01*
X48547769Y-72250000D01*
X49595854Y-72250000D01*
X49557370Y-72316657D01*
X49525000Y-72437465D01*
X49525000Y-72562535D01*
X49557370Y-72683343D01*
X49595854Y-72750000D01*
X48547769Y-72750000D01*
X48558242Y-72816126D01*
X48558242Y-72816129D01*
X48623904Y-73018217D01*
X48720379Y-73207557D01*
X48845272Y-73379459D01*
X48845276Y-73379464D01*
X48995535Y-73529723D01*
X48995540Y-73529727D01*
X49160218Y-73649372D01*
X49202884Y-73704701D01*
X49208863Y-73774315D01*
X49176258Y-73836110D01*
X49160218Y-73850008D01*
X48995214Y-73969890D01*
X48995209Y-73969894D01*
X48844890Y-74120213D01*
X48719951Y-74292179D01*
X48623444Y-74481585D01*
X48557753Y-74683760D01*
X48531423Y-74850001D01*
X48524500Y-74893713D01*
X45300500Y-74893713D01*
X45300500Y-62893713D01*
X48524500Y-62893713D01*
X48524500Y-63106287D01*
X48530784Y-63145961D01*
X48555410Y-63301448D01*
X48557754Y-63316243D01*
X48615523Y-63494038D01*
X48623444Y-63518414D01*
X48719951Y-63707820D01*
X48844890Y-63879786D01*
X48983705Y-64018601D01*
X49017190Y-64079924D01*
X49012206Y-64149616D01*
X48970334Y-64205549D01*
X48961121Y-64211821D01*
X48806342Y-64307289D01*
X48682289Y-64431342D01*
X48590187Y-64580663D01*
X48590185Y-64580668D01*
X48576986Y-64620500D01*
X48535001Y-64747203D01*
X48535001Y-64747204D01*
X48535000Y-64747204D01*
X48524500Y-64849983D01*
X48524500Y-66150001D01*
X48524501Y-66150018D01*
X48535000Y-66252796D01*
X48535001Y-66252799D01*
X48562439Y-66335600D01*
X48590186Y-66419334D01*
X48682288Y-66568656D01*
X48806344Y-66692712D01*
X48955666Y-66784814D01*
X49122203Y-66839999D01*
X49224991Y-66850500D01*
X50775008Y-66850499D01*
X50877797Y-66839999D01*
X51044334Y-66784814D01*
X51193656Y-66692712D01*
X51317712Y-66568656D01*
X51409814Y-66419334D01*
X51464999Y-66252797D01*
X51475500Y-66150009D01*
X51475499Y-64899999D01*
X56250000Y-64899999D01*
X56250000Y-64900000D01*
X56250000Y-71200000D01*
X56703462Y-71562770D01*
X56743514Y-71620019D01*
X56750000Y-71659597D01*
X56750000Y-72600000D01*
X57350000Y-73200000D01*
X60350000Y-73200000D01*
X61000000Y-72550000D01*
X61000000Y-71480304D01*
X70569500Y-71480304D01*
X70569500Y-71657695D01*
X70604103Y-71831658D01*
X70604106Y-71831667D01*
X70671983Y-71995540D01*
X70671990Y-71995553D01*
X70770535Y-72143034D01*
X70770538Y-72143038D01*
X70895961Y-72268461D01*
X70895965Y-72268464D01*
X71043446Y-72367009D01*
X71043459Y-72367016D01*
X71096129Y-72388832D01*
X71207334Y-72434894D01*
X71207336Y-72434894D01*
X71207341Y-72434896D01*
X71381304Y-72469499D01*
X71381307Y-72469500D01*
X71381309Y-72469500D01*
X71558693Y-72469500D01*
X71558694Y-72469499D01*
X71631758Y-72454966D01*
X71732658Y-72434896D01*
X71732661Y-72434894D01*
X71732666Y-72434894D01*
X71896547Y-72367013D01*
X72044035Y-72268464D01*
X72169464Y-72143035D01*
X72268013Y-71995547D01*
X72335894Y-71831666D01*
X72370500Y-71657691D01*
X72370500Y-71480309D01*
X72370500Y-71480306D01*
X72370499Y-71480304D01*
X72335896Y-71306341D01*
X72335893Y-71306332D01*
X72268016Y-71142459D01*
X72268009Y-71142446D01*
X72169464Y-70994965D01*
X72169461Y-70994961D01*
X72044038Y-70869538D01*
X72044034Y-70869535D01*
X71896553Y-70770990D01*
X71896540Y-70770983D01*
X71732667Y-70703106D01*
X71732658Y-70703103D01*
X71558694Y-70668500D01*
X71558691Y-70668500D01*
X71381309Y-70668500D01*
X71381306Y-70668500D01*
X71207341Y-70703103D01*
X71207332Y-70703106D01*
X71043459Y-70770983D01*
X71043446Y-70770990D01*
X70895965Y-70869535D01*
X70895961Y-70869538D01*
X70770538Y-70994961D01*
X70770535Y-70994965D01*
X70671990Y-71142446D01*
X70671983Y-71142459D01*
X70604106Y-71306332D01*
X70604103Y-71306341D01*
X70569500Y-71480304D01*
X61000000Y-71480304D01*
X61000000Y-71200000D01*
X60700000Y-71200000D01*
X60700000Y-72498638D01*
X60680315Y-72565677D01*
X60663681Y-72586319D01*
X60386319Y-72863681D01*
X60324996Y-72897166D01*
X60298638Y-72900000D01*
X57401362Y-72900000D01*
X57334323Y-72880315D01*
X57313681Y-72863681D01*
X57086319Y-72636319D01*
X57052834Y-72574996D01*
X57050000Y-72548638D01*
X57050000Y-71600000D01*
X56596538Y-71237230D01*
X56556486Y-71179979D01*
X56550000Y-71140402D01*
X56550000Y-70261304D01*
X73149500Y-70261304D01*
X73149500Y-70438695D01*
X73184103Y-70612658D01*
X73184106Y-70612667D01*
X73251983Y-70776540D01*
X73251990Y-70776553D01*
X73350535Y-70924034D01*
X73350538Y-70924038D01*
X73475961Y-71049461D01*
X73475965Y-71049464D01*
X73623446Y-71148009D01*
X73623459Y-71148016D01*
X73708504Y-71183242D01*
X73787334Y-71215894D01*
X73787336Y-71215894D01*
X73787341Y-71215896D01*
X73961304Y-71250499D01*
X73961307Y-71250500D01*
X73961309Y-71250500D01*
X74138693Y-71250500D01*
X74138694Y-71250499D01*
X74196682Y-71238964D01*
X74312658Y-71215896D01*
X74312661Y-71215894D01*
X74312666Y-71215894D01*
X74476547Y-71148013D01*
X74624035Y-71049464D01*
X74749464Y-70924035D01*
X74848013Y-70776547D01*
X74915894Y-70612666D01*
X74918414Y-70600000D01*
X74950499Y-70438695D01*
X74950500Y-70438693D01*
X74950500Y-70261306D01*
X74950499Y-70261304D01*
X74915896Y-70087341D01*
X74915893Y-70087332D01*
X74848016Y-69923459D01*
X74848009Y-69923446D01*
X74749464Y-69775965D01*
X74749461Y-69775961D01*
X74624038Y-69650538D01*
X74624034Y-69650535D01*
X74476553Y-69551990D01*
X74476540Y-69551983D01*
X74312667Y-69484106D01*
X74312658Y-69484103D01*
X74138694Y-69449500D01*
X74138691Y-69449500D01*
X73961309Y-69449500D01*
X73961306Y-69449500D01*
X73787341Y-69484103D01*
X73787332Y-69484106D01*
X73623459Y-69551983D01*
X73623446Y-69551990D01*
X73475965Y-69650535D01*
X73475961Y-69650538D01*
X73350538Y-69775961D01*
X73350535Y-69775965D01*
X73251990Y-69923446D01*
X73251983Y-69923459D01*
X73184106Y-70087332D01*
X73184103Y-70087341D01*
X73149500Y-70261304D01*
X56550000Y-70261304D01*
X56550000Y-64962000D01*
X56569685Y-64894961D01*
X56599600Y-64862800D01*
X56950000Y-64600000D01*
X56950000Y-63543497D01*
X56969685Y-63476458D01*
X56977172Y-63466035D01*
X57312770Y-63046538D01*
X57370021Y-63006486D01*
X57409598Y-63000000D01*
X61626000Y-63000000D01*
X61693039Y-63019685D01*
X61738794Y-63072489D01*
X61750000Y-63124000D01*
X61750000Y-66400000D01*
X62650000Y-67300000D01*
X71636033Y-67300000D01*
X71703072Y-67319685D01*
X71748827Y-67372489D01*
X71758771Y-67441647D01*
X71739135Y-67492891D01*
X71691990Y-67563447D01*
X71691983Y-67563459D01*
X71624106Y-67727332D01*
X71624103Y-67727341D01*
X71589500Y-67901304D01*
X71589500Y-68078695D01*
X71624103Y-68252658D01*
X71624106Y-68252667D01*
X71691983Y-68416540D01*
X71691990Y-68416553D01*
X71790535Y-68564034D01*
X71790538Y-68564038D01*
X71915961Y-68689461D01*
X71915965Y-68689464D01*
X72063446Y-68788009D01*
X72063459Y-68788016D01*
X72186363Y-68838923D01*
X72227334Y-68855894D01*
X72227336Y-68855894D01*
X72227341Y-68855896D01*
X72401304Y-68890499D01*
X72401307Y-68890500D01*
X72401309Y-68890500D01*
X72578693Y-68890500D01*
X72578694Y-68890499D01*
X72636682Y-68878964D01*
X72752658Y-68855896D01*
X72752661Y-68855894D01*
X72752666Y-68855894D01*
X72916547Y-68788013D01*
X73064035Y-68689464D01*
X73189464Y-68564035D01*
X73288013Y-68416547D01*
X73346013Y-68276520D01*
X73389849Y-68222122D01*
X73456143Y-68200056D01*
X73523843Y-68217334D01*
X73548252Y-68236296D01*
X73811956Y-68500000D01*
X75700000Y-68500000D01*
X75700000Y-64572862D01*
X75719685Y-64505823D01*
X75772489Y-64460068D01*
X75841647Y-64450124D01*
X75905203Y-64479149D01*
X75911681Y-64485181D01*
X76025962Y-64599462D01*
X76025965Y-64599464D01*
X76057340Y-64620428D01*
X76102144Y-64674039D01*
X76110852Y-64743364D01*
X76103010Y-64770982D01*
X76034106Y-64937332D01*
X76034103Y-64937341D01*
X75999500Y-65111304D01*
X75999500Y-65288695D01*
X76034103Y-65462658D01*
X76034106Y-65462667D01*
X76101983Y-65626540D01*
X76101990Y-65626553D01*
X76200535Y-65774034D01*
X76200538Y-65774038D01*
X76325961Y-65899461D01*
X76325965Y-65899464D01*
X76473446Y-65998009D01*
X76473459Y-65998016D01*
X76596363Y-66048923D01*
X76637334Y-66065894D01*
X76637336Y-66065894D01*
X76637341Y-66065896D01*
X76811304Y-66100499D01*
X76811307Y-66100500D01*
X76811309Y-66100500D01*
X76988693Y-66100500D01*
X76988694Y-66100499D01*
X77162666Y-66065894D01*
X77177717Y-66059659D01*
X77247182Y-66052188D01*
X77309663Y-66083460D01*
X77345318Y-66143548D01*
X77346788Y-66198410D01*
X77319500Y-66335598D01*
X77319500Y-66512989D01*
X77354103Y-66686952D01*
X77354106Y-66686961D01*
X77421984Y-66850836D01*
X77421986Y-66850839D01*
X77435627Y-66871254D01*
X77456506Y-66937931D01*
X77438022Y-67005311D01*
X77435629Y-67009036D01*
X77401987Y-67059384D01*
X77401987Y-67059385D01*
X77334106Y-67223265D01*
X77334103Y-67223274D01*
X77299500Y-67397237D01*
X77299500Y-67574628D01*
X77334103Y-67748591D01*
X77334106Y-67748600D01*
X77401983Y-67912473D01*
X77401990Y-67912486D01*
X77500535Y-68059967D01*
X77500538Y-68059971D01*
X77625961Y-68185394D01*
X77625965Y-68185397D01*
X77773446Y-68283942D01*
X77773459Y-68283949D01*
X77893709Y-68333757D01*
X77937334Y-68351827D01*
X77937336Y-68351827D01*
X77937341Y-68351829D01*
X78111304Y-68386432D01*
X78111307Y-68386433D01*
X78111309Y-68386433D01*
X78288693Y-68386433D01*
X78288694Y-68386432D01*
X78346682Y-68374897D01*
X78462658Y-68351829D01*
X78462661Y-68351827D01*
X78462666Y-68351827D01*
X78611900Y-68290013D01*
X78626540Y-68283949D01*
X78626540Y-68283948D01*
X78626547Y-68283946D01*
X78774035Y-68185397D01*
X78899464Y-68059968D01*
X78998013Y-67912480D01*
X79065894Y-67748599D01*
X79069380Y-67731078D01*
X79099293Y-67580691D01*
X79100500Y-67574624D01*
X79100500Y-67403305D01*
X79599500Y-67403305D01*
X79599500Y-67580695D01*
X79634103Y-67754658D01*
X79634106Y-67754667D01*
X79701983Y-67918540D01*
X79701990Y-67918553D01*
X79800535Y-68066034D01*
X79800538Y-68066038D01*
X79925961Y-68191461D01*
X79925965Y-68191464D01*
X80073446Y-68290009D01*
X80073459Y-68290016D01*
X80179061Y-68333757D01*
X80237334Y-68357894D01*
X80237336Y-68357894D01*
X80237341Y-68357896D01*
X80411304Y-68392499D01*
X80411307Y-68392500D01*
X80411309Y-68392500D01*
X80588693Y-68392500D01*
X80588694Y-68392499D01*
X80646682Y-68380964D01*
X80762658Y-68357896D01*
X80762661Y-68357894D01*
X80762666Y-68357894D01*
X80926547Y-68290013D01*
X80983355Y-68252055D01*
X82613251Y-68252055D01*
X82613251Y-68429446D01*
X82647854Y-68603409D01*
X82647857Y-68603418D01*
X82715734Y-68767291D01*
X82715741Y-68767304D01*
X82814286Y-68914785D01*
X82814289Y-68914789D01*
X82939712Y-69040212D01*
X82939716Y-69040215D01*
X83087197Y-69138760D01*
X83087210Y-69138767D01*
X83158781Y-69168412D01*
X83251085Y-69206645D01*
X83251087Y-69206645D01*
X83251092Y-69206647D01*
X83425055Y-69241250D01*
X83425058Y-69241251D01*
X83425060Y-69241251D01*
X83602444Y-69241251D01*
X83602445Y-69241250D01*
X83660433Y-69229715D01*
X83776409Y-69206647D01*
X83776412Y-69206645D01*
X83776417Y-69206645D01*
X83940298Y-69138764D01*
X84087786Y-69040215D01*
X84213215Y-68914786D01*
X84311764Y-68767298D01*
X84379645Y-68603417D01*
X84391005Y-68546309D01*
X84423390Y-68484398D01*
X84484105Y-68449824D01*
X84512622Y-68446500D01*
X84549093Y-68446500D01*
X84549094Y-68446499D01*
X84634847Y-68429442D01*
X84723058Y-68411896D01*
X84723061Y-68411894D01*
X84723066Y-68411894D01*
X84886947Y-68344013D01*
X85034435Y-68245464D01*
X85159864Y-68120035D01*
X85258413Y-67972547D01*
X85326294Y-67808666D01*
X85328638Y-67796885D01*
X85355264Y-67663025D01*
X85360900Y-67634691D01*
X85360900Y-67457309D01*
X85360900Y-67457306D01*
X85360899Y-67457304D01*
X85326296Y-67283341D01*
X85326293Y-67283332D01*
X85258416Y-67119459D01*
X85258409Y-67119446D01*
X85159864Y-66971965D01*
X85159861Y-66971961D01*
X85034438Y-66846538D01*
X85034434Y-66846535D01*
X84886953Y-66747990D01*
X84886940Y-66747983D01*
X84723067Y-66680106D01*
X84723058Y-66680103D01*
X84549094Y-66645500D01*
X84549091Y-66645500D01*
X84371709Y-66645500D01*
X84371706Y-66645500D01*
X84197741Y-66680103D01*
X84197732Y-66680106D01*
X84033859Y-66747983D01*
X84033846Y-66747990D01*
X83886365Y-66846535D01*
X83886361Y-66846538D01*
X83760938Y-66971961D01*
X83760935Y-66971965D01*
X83662390Y-67119446D01*
X83662383Y-67119459D01*
X83594506Y-67283332D01*
X83594503Y-67283341D01*
X83583146Y-67340442D01*
X83550761Y-67402353D01*
X83490046Y-67436927D01*
X83461529Y-67440251D01*
X83425057Y-67440251D01*
X83251092Y-67474854D01*
X83251083Y-67474857D01*
X83087210Y-67542734D01*
X83087197Y-67542741D01*
X82939716Y-67641286D01*
X82939712Y-67641289D01*
X82814289Y-67766712D01*
X82814286Y-67766716D01*
X82715741Y-67914197D01*
X82715734Y-67914210D01*
X82647857Y-68078083D01*
X82647854Y-68078092D01*
X82613251Y-68252055D01*
X80983355Y-68252055D01*
X81074035Y-68191464D01*
X81080105Y-68185394D01*
X81107213Y-68158287D01*
X81199461Y-68066038D01*
X81199464Y-68066035D01*
X81298013Y-67918547D01*
X81299810Y-67914210D01*
X81343526Y-67808667D01*
X81365894Y-67754666D01*
X81367103Y-67748591D01*
X81392703Y-67619890D01*
X81400500Y-67580691D01*
X81400500Y-67403309D01*
X81400500Y-67403305D01*
X81365896Y-67229341D01*
X81365893Y-67229332D01*
X81298016Y-67065459D01*
X81298009Y-67065446D01*
X81199464Y-66917965D01*
X81199461Y-66917961D01*
X81074038Y-66792538D01*
X81074034Y-66792535D01*
X80926553Y-66693990D01*
X80926540Y-66693983D01*
X80762667Y-66626106D01*
X80762658Y-66626103D01*
X80588694Y-66591500D01*
X80588691Y-66591500D01*
X80411309Y-66591500D01*
X80411306Y-66591500D01*
X80237341Y-66626103D01*
X80237332Y-66626106D01*
X80073459Y-66693983D01*
X80073446Y-66693990D01*
X79925965Y-66792535D01*
X79925961Y-66792538D01*
X79800538Y-66917961D01*
X79800535Y-66917965D01*
X79701990Y-67065446D01*
X79701983Y-67065459D01*
X79634106Y-67229332D01*
X79634103Y-67229341D01*
X79599500Y-67403305D01*
X79100500Y-67403305D01*
X79100500Y-67397242D01*
X79100500Y-67397239D01*
X79100499Y-67397237D01*
X79065896Y-67223274D01*
X79065893Y-67223265D01*
X79056256Y-67200000D01*
X79022893Y-67119453D01*
X78998015Y-67059390D01*
X78998014Y-67059389D01*
X78998013Y-67059386D01*
X78984370Y-67038969D01*
X78963493Y-66972293D01*
X78981977Y-66904913D01*
X78984372Y-66901187D01*
X79018013Y-66850841D01*
X79085894Y-66686960D01*
X79087258Y-66680106D01*
X79120499Y-66512989D01*
X79120500Y-66512987D01*
X79120500Y-66335600D01*
X79120499Y-66335598D01*
X79085896Y-66161635D01*
X79085893Y-66161626D01*
X79018016Y-65997753D01*
X79018009Y-65997740D01*
X78919464Y-65850259D01*
X78919461Y-65850255D01*
X78862018Y-65792812D01*
X78828533Y-65731489D01*
X78831040Y-65669131D01*
X78832645Y-65663838D01*
X78832647Y-65663834D01*
X78867253Y-65489859D01*
X78867253Y-65451813D01*
X78886938Y-65384774D01*
X78939742Y-65339019D01*
X78943801Y-65337252D01*
X78944664Y-65336894D01*
X78944666Y-65336894D01*
X79003280Y-65312615D01*
X79108541Y-65269016D01*
X79108544Y-65269014D01*
X79108547Y-65269013D01*
X79256035Y-65170464D01*
X79381464Y-65045035D01*
X79480013Y-64897547D01*
X79547894Y-64733666D01*
X79548720Y-64729516D01*
X79582499Y-64559695D01*
X79582500Y-64559693D01*
X79582500Y-64382306D01*
X79582499Y-64382304D01*
X79547896Y-64208341D01*
X79547893Y-64208332D01*
X79480016Y-64044459D01*
X79480009Y-64044446D01*
X79381464Y-63896965D01*
X79381461Y-63896961D01*
X79256038Y-63771538D01*
X79256034Y-63771535D01*
X79108553Y-63672990D01*
X79108540Y-63672983D01*
X78944667Y-63605106D01*
X78944658Y-63605103D01*
X78770694Y-63570500D01*
X78770691Y-63570500D01*
X78593309Y-63570500D01*
X78593306Y-63570500D01*
X78419341Y-63605103D01*
X78419332Y-63605106D01*
X78255459Y-63672983D01*
X78255446Y-63672990D01*
X78107965Y-63771535D01*
X78107961Y-63771538D01*
X77982538Y-63896961D01*
X77982535Y-63896965D01*
X77883990Y-64044446D01*
X77883983Y-64044459D01*
X77816106Y-64208332D01*
X77816103Y-64208341D01*
X77781500Y-64382304D01*
X77781500Y-64420354D01*
X77775867Y-64439534D01*
X77775154Y-64459515D01*
X77766224Y-64472375D01*
X77761815Y-64487393D01*
X77746709Y-64500482D01*
X77735305Y-64516907D01*
X77711356Y-64531115D01*
X77709011Y-64533148D01*
X77704951Y-64534916D01*
X77642524Y-64560773D01*
X77573055Y-64568240D01*
X77510576Y-64536965D01*
X77507392Y-64533892D01*
X77474038Y-64500538D01*
X77474032Y-64500533D01*
X77442659Y-64479570D01*
X77397855Y-64425958D01*
X77389148Y-64356633D01*
X77396990Y-64329017D01*
X77406731Y-64305498D01*
X77465894Y-64162666D01*
X77466425Y-64160001D01*
X77494551Y-64018600D01*
X77500500Y-63988691D01*
X77500500Y-63811309D01*
X77500500Y-63811306D01*
X77500499Y-63811304D01*
X77465896Y-63637341D01*
X77465893Y-63637332D01*
X77461509Y-63626749D01*
X77427026Y-63543497D01*
X77398016Y-63473459D01*
X77398009Y-63473446D01*
X77299464Y-63325965D01*
X77299461Y-63325961D01*
X77174038Y-63200538D01*
X77174034Y-63200535D01*
X77040805Y-63111513D01*
X83297880Y-63111513D01*
X83297880Y-63288904D01*
X83332483Y-63462867D01*
X83332486Y-63462876D01*
X83400363Y-63626749D01*
X83400370Y-63626762D01*
X83498915Y-63774243D01*
X83498918Y-63774247D01*
X83624341Y-63899670D01*
X83624345Y-63899673D01*
X83771826Y-63998218D01*
X83771839Y-63998225D01*
X83894743Y-64049132D01*
X83935714Y-64066103D01*
X83935716Y-64066103D01*
X83935721Y-64066105D01*
X84109684Y-64100708D01*
X84109687Y-64100709D01*
X84109689Y-64100709D01*
X84287073Y-64100709D01*
X84287074Y-64100708D01*
X84391564Y-64079924D01*
X84461038Y-64066105D01*
X84461041Y-64066103D01*
X84461046Y-64066103D01*
X84624927Y-63998222D01*
X84772415Y-63899673D01*
X84897844Y-63774244D01*
X84996393Y-63626756D01*
X85064274Y-63462875D01*
X85065377Y-63457334D01*
X85098879Y-63288904D01*
X85098880Y-63288902D01*
X85098880Y-63111515D01*
X85098879Y-63111513D01*
X85064276Y-62937550D01*
X85064274Y-62937547D01*
X85064274Y-62937543D01*
X85020269Y-62831304D01*
X85948500Y-62831304D01*
X85948500Y-63008695D01*
X85983103Y-63182658D01*
X85983106Y-63182667D01*
X86050983Y-63346540D01*
X86050990Y-63346553D01*
X86149535Y-63494034D01*
X86149538Y-63494038D01*
X86274961Y-63619461D01*
X86274965Y-63619464D01*
X86422446Y-63718009D01*
X86422459Y-63718016D01*
X86545363Y-63768923D01*
X86586334Y-63785894D01*
X86649416Y-63798441D01*
X86711324Y-63830825D01*
X86745899Y-63891540D01*
X86746840Y-63895867D01*
X86764103Y-63982658D01*
X86764106Y-63982667D01*
X86831983Y-64146540D01*
X86831990Y-64146553D01*
X86930535Y-64294034D01*
X86930538Y-64294038D01*
X87055961Y-64419461D01*
X87055965Y-64419464D01*
X87203446Y-64518009D01*
X87203459Y-64518016D01*
X87304083Y-64559695D01*
X87367334Y-64585894D01*
X87367336Y-64585894D01*
X87367341Y-64585896D01*
X87541304Y-64620499D01*
X87541307Y-64620500D01*
X87541309Y-64620500D01*
X87718693Y-64620500D01*
X87718694Y-64620499D01*
X87776682Y-64608964D01*
X87892658Y-64585896D01*
X87892661Y-64585894D01*
X87892666Y-64585894D01*
X88056547Y-64518013D01*
X88204035Y-64419464D01*
X88329464Y-64294035D01*
X88428013Y-64146547D01*
X88495894Y-63982666D01*
X88512403Y-63899673D01*
X88526097Y-63830825D01*
X88530500Y-63808691D01*
X88530500Y-63631309D01*
X88530500Y-63631306D01*
X88530499Y-63631304D01*
X88495896Y-63457341D01*
X88495893Y-63457332D01*
X88428016Y-63293459D01*
X88428009Y-63293446D01*
X88329464Y-63145965D01*
X88329461Y-63145961D01*
X88204038Y-63020538D01*
X88204034Y-63020535D01*
X88056553Y-62921990D01*
X88056540Y-62921983D01*
X87892667Y-62854106D01*
X87892661Y-62854104D01*
X87829583Y-62841557D01*
X87767673Y-62809171D01*
X87733099Y-62748455D01*
X87732159Y-62744131D01*
X87716052Y-62663157D01*
X87714894Y-62657334D01*
X87666248Y-62539890D01*
X87647016Y-62493459D01*
X87647009Y-62493446D01*
X87548464Y-62345965D01*
X87548461Y-62345961D01*
X87423038Y-62220538D01*
X87423034Y-62220535D01*
X87275553Y-62121990D01*
X87275540Y-62121983D01*
X87111667Y-62054106D01*
X87111658Y-62054103D01*
X86937694Y-62019500D01*
X86937691Y-62019500D01*
X86760309Y-62019500D01*
X86760306Y-62019500D01*
X86586341Y-62054103D01*
X86586332Y-62054106D01*
X86422459Y-62121983D01*
X86422446Y-62121990D01*
X86274965Y-62220535D01*
X86274961Y-62220538D01*
X86149538Y-62345961D01*
X86149535Y-62345965D01*
X86050990Y-62493446D01*
X86050983Y-62493459D01*
X85983106Y-62657332D01*
X85983103Y-62657341D01*
X85948500Y-62831304D01*
X85020269Y-62831304D01*
X84996393Y-62773662D01*
X84990955Y-62765523D01*
X84986501Y-62755245D01*
X84983525Y-62731239D01*
X84976298Y-62708158D01*
X84979305Y-62697192D01*
X84977907Y-62685906D01*
X84988382Y-62664101D01*
X84994781Y-62640777D01*
X84997176Y-62637051D01*
X85071013Y-62526547D01*
X85138894Y-62362666D01*
X85150303Y-62305312D01*
X85173499Y-62188695D01*
X85173500Y-62188693D01*
X85173500Y-62011306D01*
X85173499Y-62011304D01*
X85138896Y-61837341D01*
X85138893Y-61837332D01*
X85071016Y-61673459D01*
X85071008Y-61673444D01*
X85052408Y-61645608D01*
X85031529Y-61578931D01*
X85050013Y-61511550D01*
X85101991Y-61464860D01*
X85170961Y-61453683D01*
X85224400Y-61473614D01*
X85308370Y-61529721D01*
X85354453Y-61560513D01*
X85354455Y-61560514D01*
X85354459Y-61560516D01*
X85398918Y-61578931D01*
X85518334Y-61628394D01*
X85518336Y-61628394D01*
X85518341Y-61628396D01*
X85692304Y-61662999D01*
X85692307Y-61663000D01*
X85692309Y-61663000D01*
X85869693Y-61663000D01*
X85869694Y-61662999D01*
X85957126Y-61645608D01*
X86043658Y-61628396D01*
X86043661Y-61628394D01*
X86043666Y-61628394D01*
X86207547Y-61560513D01*
X86355035Y-61461964D01*
X86480464Y-61336535D01*
X86579013Y-61189047D01*
X86646894Y-61025166D01*
X86648277Y-61018217D01*
X86669964Y-60909182D01*
X86681500Y-60851191D01*
X86681500Y-60673809D01*
X86681500Y-60673806D01*
X86681499Y-60673804D01*
X86646896Y-60499841D01*
X86646893Y-60499832D01*
X86579016Y-60335959D01*
X86579009Y-60335946D01*
X86480464Y-60188465D01*
X86480461Y-60188461D01*
X86355038Y-60063038D01*
X86355034Y-60063035D01*
X86207553Y-59964490D01*
X86207540Y-59964483D01*
X86043667Y-59896606D01*
X86043658Y-59896603D01*
X85869694Y-59862000D01*
X85869691Y-59862000D01*
X85692309Y-59862000D01*
X85692306Y-59862000D01*
X85518341Y-59896603D01*
X85518332Y-59896606D01*
X85354459Y-59964483D01*
X85354446Y-59964490D01*
X85206965Y-60063035D01*
X85206961Y-60063038D01*
X85081538Y-60188461D01*
X85081535Y-60188465D01*
X84982990Y-60335946D01*
X84982983Y-60335959D01*
X84915106Y-60499832D01*
X84915103Y-60499841D01*
X84880500Y-60673804D01*
X84880500Y-60851195D01*
X84915103Y-61025158D01*
X84915106Y-61025167D01*
X84982983Y-61189040D01*
X84982990Y-61189052D01*
X85001592Y-61216892D01*
X85022470Y-61283569D01*
X85003986Y-61350949D01*
X84952007Y-61397640D01*
X84883037Y-61408816D01*
X84829599Y-61388885D01*
X84699553Y-61301990D01*
X84699540Y-61301983D01*
X84535667Y-61234106D01*
X84535658Y-61234103D01*
X84361694Y-61199500D01*
X84361691Y-61199500D01*
X84184309Y-61199500D01*
X84184306Y-61199500D01*
X84010341Y-61234103D01*
X84010332Y-61234106D01*
X83846459Y-61301983D01*
X83846446Y-61301990D01*
X83698965Y-61400535D01*
X83698961Y-61400538D01*
X83573538Y-61525961D01*
X83573535Y-61525965D01*
X83474990Y-61673446D01*
X83474983Y-61673459D01*
X83407106Y-61837332D01*
X83407103Y-61837341D01*
X83372500Y-62011304D01*
X83372500Y-62188695D01*
X83407103Y-62362658D01*
X83407106Y-62362667D01*
X83474983Y-62526539D01*
X83477860Y-62531921D01*
X83476483Y-62532656D01*
X83495082Y-62592050D01*
X83476599Y-62659431D01*
X83474204Y-62663157D01*
X83400370Y-62773655D01*
X83400363Y-62773668D01*
X83332486Y-62937541D01*
X83332483Y-62937550D01*
X83297880Y-63111513D01*
X77040805Y-63111513D01*
X77026553Y-63101990D01*
X77026540Y-63101983D01*
X76862667Y-63034106D01*
X76862658Y-63034103D01*
X76688694Y-62999500D01*
X76688691Y-62999500D01*
X76511309Y-62999500D01*
X76511306Y-62999500D01*
X76337341Y-63034103D01*
X76337332Y-63034106D01*
X76173459Y-63101983D01*
X76173446Y-63101990D01*
X76025965Y-63200535D01*
X76025961Y-63200538D01*
X75911681Y-63314819D01*
X75850358Y-63348304D01*
X75780666Y-63343320D01*
X75724733Y-63301448D01*
X75700316Y-63235984D01*
X75700000Y-63227138D01*
X75700000Y-55700000D01*
X72232559Y-52232559D01*
X72234535Y-52230582D01*
X72213356Y-52213513D01*
X72191293Y-52147218D01*
X72208574Y-52079520D01*
X72259713Y-52031911D01*
X72267750Y-52028239D01*
X72310547Y-52010513D01*
X72458035Y-51911964D01*
X72583464Y-51786535D01*
X72682013Y-51639047D01*
X72749894Y-51475166D01*
X72754270Y-51453169D01*
X72754641Y-51451304D01*
X74419500Y-51451304D01*
X74419500Y-51628695D01*
X74454103Y-51802658D01*
X74454106Y-51802667D01*
X74521983Y-51966540D01*
X74521990Y-51966553D01*
X74620535Y-52114034D01*
X74620538Y-52114038D01*
X74745961Y-52239461D01*
X74745965Y-52239464D01*
X74893446Y-52338009D01*
X74893459Y-52338016D01*
X75016363Y-52388923D01*
X75057334Y-52405894D01*
X75057336Y-52405894D01*
X75057341Y-52405896D01*
X75231304Y-52440499D01*
X75231307Y-52440500D01*
X75231309Y-52440500D01*
X75408693Y-52440500D01*
X75408694Y-52440499D01*
X75466682Y-52428964D01*
X75582658Y-52405896D01*
X75582661Y-52405894D01*
X75582666Y-52405894D01*
X75746547Y-52338013D01*
X75894035Y-52239464D01*
X76019464Y-52114035D01*
X76118013Y-51966547D01*
X76185894Y-51802666D01*
X76188674Y-51788693D01*
X76220499Y-51628695D01*
X76220500Y-51628693D01*
X76220500Y-51611304D01*
X80299500Y-51611304D01*
X80299500Y-51788695D01*
X80334103Y-51962658D01*
X80334106Y-51962667D01*
X80401983Y-52126540D01*
X80401990Y-52126553D01*
X80500535Y-52274034D01*
X80500538Y-52274038D01*
X80625961Y-52399461D01*
X80625965Y-52399464D01*
X80773446Y-52498009D01*
X80773459Y-52498016D01*
X80896363Y-52548923D01*
X80937334Y-52565894D01*
X80937336Y-52565894D01*
X80937341Y-52565896D01*
X81111304Y-52600499D01*
X81111307Y-52600500D01*
X81111309Y-52600500D01*
X81288693Y-52600500D01*
X81288694Y-52600499D01*
X81346682Y-52588964D01*
X81462658Y-52565896D01*
X81462661Y-52565894D01*
X81462666Y-52565894D01*
X81626547Y-52498013D01*
X81774035Y-52399464D01*
X81899464Y-52274035D01*
X81998013Y-52126547D01*
X82000073Y-52121575D01*
X82044718Y-52013790D01*
X82065894Y-51962666D01*
X82075980Y-51911964D01*
X82100499Y-51788695D01*
X82100500Y-51788693D01*
X82100500Y-51611306D01*
X82091527Y-51566198D01*
X82097754Y-51496606D01*
X82140617Y-51441429D01*
X82206506Y-51418184D01*
X82274503Y-51434251D01*
X82300825Y-51454325D01*
X82355961Y-51509461D01*
X82355965Y-51509464D01*
X82503446Y-51608009D01*
X82503459Y-51608016D01*
X82578391Y-51639053D01*
X82667334Y-51675894D01*
X82667336Y-51675894D01*
X82667341Y-51675896D01*
X82841304Y-51710499D01*
X82841307Y-51710500D01*
X82841309Y-51710500D01*
X83018693Y-51710500D01*
X83018694Y-51710499D01*
X83076682Y-51698964D01*
X83192658Y-51675896D01*
X83192661Y-51675894D01*
X83192666Y-51675894D01*
X83356547Y-51608013D01*
X83504035Y-51509464D01*
X83629464Y-51384035D01*
X83728013Y-51236547D01*
X83795894Y-51072666D01*
X83810242Y-51000535D01*
X83822695Y-50937933D01*
X85960466Y-50937933D01*
X85960466Y-51115324D01*
X85995069Y-51289287D01*
X85995072Y-51289296D01*
X86062949Y-51453169D01*
X86062956Y-51453182D01*
X86161501Y-51600663D01*
X86161504Y-51600667D01*
X86286927Y-51726090D01*
X86286931Y-51726093D01*
X86434412Y-51824638D01*
X86434425Y-51824645D01*
X86557329Y-51875552D01*
X86598300Y-51892523D01*
X86598302Y-51892523D01*
X86598307Y-51892525D01*
X86772270Y-51927128D01*
X86772273Y-51927129D01*
X86772275Y-51927129D01*
X86949659Y-51927129D01*
X86949660Y-51927128D01*
X87025896Y-51911964D01*
X87123624Y-51892525D01*
X87123627Y-51892523D01*
X87123632Y-51892523D01*
X87287513Y-51824642D01*
X87435001Y-51726093D01*
X87560430Y-51600664D01*
X87658979Y-51453176D01*
X87726860Y-51289295D01*
X87729240Y-51277334D01*
X87749930Y-51173311D01*
X87761466Y-51115320D01*
X87761466Y-50937938D01*
X87761466Y-50937935D01*
X87761465Y-50937933D01*
X87726862Y-50763970D01*
X87726859Y-50763961D01*
X87658982Y-50600088D01*
X87658975Y-50600075D01*
X87560430Y-50452594D01*
X87560427Y-50452590D01*
X87435004Y-50327167D01*
X87435000Y-50327164D01*
X87287519Y-50228619D01*
X87287506Y-50228612D01*
X87123633Y-50160735D01*
X87123624Y-50160732D01*
X86949660Y-50126129D01*
X86949657Y-50126129D01*
X86772275Y-50126129D01*
X86772272Y-50126129D01*
X86598307Y-50160732D01*
X86598298Y-50160735D01*
X86434425Y-50228612D01*
X86434412Y-50228619D01*
X86286931Y-50327164D01*
X86286927Y-50327167D01*
X86161504Y-50452590D01*
X86161501Y-50452594D01*
X86062956Y-50600075D01*
X86062949Y-50600088D01*
X85995072Y-50763961D01*
X85995069Y-50763970D01*
X85960466Y-50937933D01*
X83822695Y-50937933D01*
X83828718Y-50907654D01*
X83830500Y-50898693D01*
X83830500Y-50721306D01*
X83830499Y-50721304D01*
X83795896Y-50547341D01*
X83795893Y-50547332D01*
X83728016Y-50383459D01*
X83728009Y-50383446D01*
X83629464Y-50235965D01*
X83629461Y-50235961D01*
X83504038Y-50110538D01*
X83504034Y-50110535D01*
X83356553Y-50011990D01*
X83356540Y-50011983D01*
X83192667Y-49944106D01*
X83192658Y-49944103D01*
X83018694Y-49909500D01*
X83018691Y-49909500D01*
X82841309Y-49909500D01*
X82841306Y-49909500D01*
X82667341Y-49944103D01*
X82667332Y-49944106D01*
X82503459Y-50011983D01*
X82503446Y-50011990D01*
X82355965Y-50110535D01*
X82355961Y-50110538D01*
X82230538Y-50235961D01*
X82230535Y-50235965D01*
X82131990Y-50383446D01*
X82131983Y-50383459D01*
X82064106Y-50547332D01*
X82064103Y-50547341D01*
X82029500Y-50721304D01*
X82029500Y-50721309D01*
X82029500Y-50898691D01*
X82030155Y-50901983D01*
X82038473Y-50943803D01*
X82032244Y-51013394D01*
X81989381Y-51068571D01*
X81923491Y-51091815D01*
X81855494Y-51075747D01*
X81829174Y-51055674D01*
X81774038Y-51000538D01*
X81774034Y-51000535D01*
X81626553Y-50901990D01*
X81626540Y-50901983D01*
X81462667Y-50834106D01*
X81462658Y-50834103D01*
X81288694Y-50799500D01*
X81288691Y-50799500D01*
X81111309Y-50799500D01*
X81111306Y-50799500D01*
X80937341Y-50834103D01*
X80937332Y-50834106D01*
X80773459Y-50901983D01*
X80773446Y-50901990D01*
X80625965Y-51000535D01*
X80625961Y-51000538D01*
X80500538Y-51125961D01*
X80500535Y-51125965D01*
X80401990Y-51273446D01*
X80401983Y-51273459D01*
X80334106Y-51437332D01*
X80334103Y-51437341D01*
X80299500Y-51611304D01*
X76220500Y-51611304D01*
X76220500Y-51451306D01*
X76220499Y-51451304D01*
X76185896Y-51277341D01*
X76185893Y-51277332D01*
X76184283Y-51273446D01*
X76122303Y-51123809D01*
X76118016Y-51113459D01*
X76118009Y-51113446D01*
X76019464Y-50965965D01*
X76019461Y-50965961D01*
X75894038Y-50840538D01*
X75894034Y-50840535D01*
X75746553Y-50741990D01*
X75746540Y-50741983D01*
X75582667Y-50674106D01*
X75582658Y-50674103D01*
X75408694Y-50639500D01*
X75408691Y-50639500D01*
X75231309Y-50639500D01*
X75231306Y-50639500D01*
X75057341Y-50674103D01*
X75057332Y-50674106D01*
X74893459Y-50741983D01*
X74893446Y-50741990D01*
X74745965Y-50840535D01*
X74745961Y-50840538D01*
X74620538Y-50965961D01*
X74620535Y-50965965D01*
X74521990Y-51113446D01*
X74521983Y-51113459D01*
X74454106Y-51277332D01*
X74454103Y-51277341D01*
X74419500Y-51451304D01*
X72754641Y-51451304D01*
X72760664Y-51421025D01*
X72760664Y-51421024D01*
X72784499Y-51301195D01*
X72784500Y-51301193D01*
X72784500Y-51123806D01*
X72784499Y-51123804D01*
X72749896Y-50949841D01*
X72749893Y-50949832D01*
X72744966Y-50937938D01*
X72704622Y-50840536D01*
X72682016Y-50785959D01*
X72682009Y-50785946D01*
X72583464Y-50638465D01*
X72583461Y-50638461D01*
X72458038Y-50513038D01*
X72458034Y-50513035D01*
X72310553Y-50414490D01*
X72310540Y-50414483D01*
X72146667Y-50346606D01*
X72146658Y-50346603D01*
X71972694Y-50312000D01*
X71972691Y-50312000D01*
X71795309Y-50312000D01*
X71795306Y-50312000D01*
X71621341Y-50346603D01*
X71621332Y-50346606D01*
X71457459Y-50414483D01*
X71457446Y-50414490D01*
X71309965Y-50513035D01*
X71309961Y-50513038D01*
X71184538Y-50638461D01*
X71184535Y-50638465D01*
X71085990Y-50785946D01*
X71085983Y-50785959D01*
X71018106Y-50949832D01*
X71018103Y-50949841D01*
X70983500Y-51123804D01*
X70983500Y-51301195D01*
X71018103Y-51475158D01*
X71018106Y-51475167D01*
X71085983Y-51639040D01*
X71085990Y-51639053D01*
X71184535Y-51786534D01*
X71184538Y-51786538D01*
X71309961Y-51911961D01*
X71309965Y-51911964D01*
X71457446Y-52010509D01*
X71457450Y-52010511D01*
X71457453Y-52010513D01*
X71458571Y-52010976D01*
X71459688Y-52011439D01*
X71460677Y-52012236D01*
X71462823Y-52013383D01*
X71462605Y-52013790D01*
X71514091Y-52055280D01*
X71536156Y-52121575D01*
X71518876Y-52189274D01*
X71467739Y-52236884D01*
X71412235Y-52250000D01*
X63499999Y-52250000D01*
X61750000Y-53999999D01*
X61750000Y-62576000D01*
X61730315Y-62643039D01*
X61677511Y-62688794D01*
X61626000Y-62700000D01*
X57350000Y-62700000D01*
X56650000Y-63500000D01*
X56650000Y-63500001D01*
X56650000Y-64537999D01*
X56630315Y-64605038D01*
X56600400Y-64637199D01*
X56250000Y-64899999D01*
X51475499Y-64899999D01*
X51475499Y-64849992D01*
X51464999Y-64747203D01*
X51409814Y-64580666D01*
X51317712Y-64431344D01*
X51193656Y-64307288D01*
X51044334Y-64215186D01*
X51044333Y-64215185D01*
X51038878Y-64211821D01*
X50992154Y-64159873D01*
X50980931Y-64090910D01*
X51008775Y-64026828D01*
X51016272Y-64018623D01*
X51155104Y-63879792D01*
X51204860Y-63811309D01*
X51280048Y-63707820D01*
X51280047Y-63707820D01*
X51280051Y-63707816D01*
X51376557Y-63518412D01*
X51442246Y-63316243D01*
X51475500Y-63106287D01*
X51475500Y-62893713D01*
X51442246Y-62683757D01*
X51376557Y-62481588D01*
X51280051Y-62292184D01*
X51280049Y-62292181D01*
X51280048Y-62292179D01*
X51155109Y-62120213D01*
X51004790Y-61969894D01*
X51004785Y-61969890D01*
X50839781Y-61850008D01*
X50797115Y-61794678D01*
X50791136Y-61725065D01*
X50823741Y-61663270D01*
X50839781Y-61649371D01*
X51004466Y-61529721D01*
X51154723Y-61379464D01*
X51154727Y-61379459D01*
X51279620Y-61207557D01*
X51376095Y-61018217D01*
X51441757Y-60816129D01*
X51441757Y-60816126D01*
X51452231Y-60750000D01*
X50404146Y-60750000D01*
X50442630Y-60683343D01*
X50475000Y-60562535D01*
X50475000Y-60437465D01*
X50442630Y-60316657D01*
X50404146Y-60250000D01*
X51452231Y-60250000D01*
X51441757Y-60183873D01*
X51441757Y-60183870D01*
X51376095Y-59981782D01*
X51279620Y-59792442D01*
X51154727Y-59620540D01*
X51154723Y-59620535D01*
X51004464Y-59470276D01*
X51004459Y-59470272D01*
X50832557Y-59345379D01*
X50643217Y-59248904D01*
X50441128Y-59183242D01*
X50250000Y-59152969D01*
X50250000Y-60095854D01*
X50183343Y-60057370D01*
X50062535Y-60025000D01*
X49937465Y-60025000D01*
X49816657Y-60057370D01*
X49750000Y-60095854D01*
X49750000Y-59152969D01*
X49558872Y-59183242D01*
X49558869Y-59183242D01*
X49356782Y-59248904D01*
X49167442Y-59345379D01*
X48995540Y-59470272D01*
X48995535Y-59470276D01*
X48845276Y-59620535D01*
X48845272Y-59620540D01*
X48720379Y-59792442D01*
X48623904Y-59981782D01*
X48558242Y-60183870D01*
X48558242Y-60183873D01*
X48547769Y-60250000D01*
X49595854Y-60250000D01*
X49557370Y-60316657D01*
X49525000Y-60437465D01*
X49525000Y-60562535D01*
X49557370Y-60683343D01*
X49595854Y-60750000D01*
X48547769Y-60750000D01*
X48558242Y-60816126D01*
X48558242Y-60816129D01*
X48623904Y-61018217D01*
X48720379Y-61207557D01*
X48845272Y-61379459D01*
X48845276Y-61379464D01*
X48995535Y-61529723D01*
X48995540Y-61529727D01*
X49160218Y-61649372D01*
X49202884Y-61704701D01*
X49208863Y-61774315D01*
X49176258Y-61836110D01*
X49160218Y-61850008D01*
X48995214Y-61969890D01*
X48995209Y-61969894D01*
X48844890Y-62120213D01*
X48719951Y-62292179D01*
X48623444Y-62481585D01*
X48623443Y-62481587D01*
X48623443Y-62481588D01*
X48592767Y-62576000D01*
X48557753Y-62683760D01*
X48529494Y-62862184D01*
X48524500Y-62893713D01*
X45300500Y-62893713D01*
X45300500Y-48411304D01*
X87880500Y-48411304D01*
X87880500Y-48588695D01*
X87915103Y-48762658D01*
X87915106Y-48762667D01*
X87982983Y-48926540D01*
X87982990Y-48926553D01*
X88081535Y-49074034D01*
X88081538Y-49074038D01*
X88206961Y-49199461D01*
X88206965Y-49199464D01*
X88354446Y-49298009D01*
X88354459Y-49298016D01*
X88477363Y-49348923D01*
X88518334Y-49365894D01*
X88518336Y-49365894D01*
X88518341Y-49365896D01*
X88692304Y-49400499D01*
X88692307Y-49400500D01*
X88692309Y-49400500D01*
X88869693Y-49400500D01*
X88869694Y-49400499D01*
X88927682Y-49388964D01*
X89043658Y-49365896D01*
X89043661Y-49365894D01*
X89043666Y-49365894D01*
X89207547Y-49298013D01*
X89355035Y-49199464D01*
X89480464Y-49074035D01*
X89579013Y-48926547D01*
X89646894Y-48762666D01*
X89681500Y-48588691D01*
X89681500Y-48411309D01*
X89681500Y-48411306D01*
X89681499Y-48411304D01*
X89646896Y-48237341D01*
X89646893Y-48237332D01*
X89579016Y-48073459D01*
X89579009Y-48073446D01*
X89480464Y-47925965D01*
X89480461Y-47925961D01*
X89355038Y-47800538D01*
X89355034Y-47800535D01*
X89207553Y-47701990D01*
X89207540Y-47701983D01*
X89043667Y-47634106D01*
X89043658Y-47634103D01*
X88869694Y-47599500D01*
X88869691Y-47599500D01*
X88692309Y-47599500D01*
X88692306Y-47599500D01*
X88518341Y-47634103D01*
X88518332Y-47634106D01*
X88354459Y-47701983D01*
X88354446Y-47701990D01*
X88206965Y-47800535D01*
X88206961Y-47800538D01*
X88081538Y-47925961D01*
X88081535Y-47925965D01*
X87982990Y-48073446D01*
X87982983Y-48073459D01*
X87915106Y-48237332D01*
X87915103Y-48237341D01*
X87880500Y-48411304D01*
X45300500Y-48411304D01*
X45300500Y-45911304D01*
X87099500Y-45911304D01*
X87099500Y-46088695D01*
X87134103Y-46262658D01*
X87134106Y-46262667D01*
X87201983Y-46426540D01*
X87201990Y-46426553D01*
X87300535Y-46574034D01*
X87300538Y-46574038D01*
X87425961Y-46699461D01*
X87425965Y-46699464D01*
X87573446Y-46798009D01*
X87573459Y-46798016D01*
X87696363Y-46848923D01*
X87737334Y-46865894D01*
X87737336Y-46865894D01*
X87737341Y-46865896D01*
X87911304Y-46900499D01*
X87911307Y-46900500D01*
X87911309Y-46900500D01*
X88088693Y-46900500D01*
X88088694Y-46900499D01*
X88146682Y-46888964D01*
X88262658Y-46865896D01*
X88262661Y-46865894D01*
X88262666Y-46865894D01*
X88426547Y-46798013D01*
X88574035Y-46699464D01*
X88699464Y-46574035D01*
X88798013Y-46426547D01*
X88865894Y-46262666D01*
X88900500Y-46088691D01*
X88900500Y-45911309D01*
X88900500Y-45911306D01*
X88900499Y-45911304D01*
X88865896Y-45737341D01*
X88865893Y-45737332D01*
X88798016Y-45573459D01*
X88798009Y-45573446D01*
X88699464Y-45425965D01*
X88699461Y-45425961D01*
X88574038Y-45300538D01*
X88574034Y-45300535D01*
X88426553Y-45201990D01*
X88426540Y-45201983D01*
X88262667Y-45134106D01*
X88262658Y-45134103D01*
X88088694Y-45099500D01*
X88088691Y-45099500D01*
X87911309Y-45099500D01*
X87911306Y-45099500D01*
X87737341Y-45134103D01*
X87737332Y-45134106D01*
X87573459Y-45201983D01*
X87573446Y-45201990D01*
X87425965Y-45300535D01*
X87425961Y-45300538D01*
X87300538Y-45425961D01*
X87300535Y-45425965D01*
X87201990Y-45573446D01*
X87201983Y-45573459D01*
X87134106Y-45737332D01*
X87134103Y-45737341D01*
X87099500Y-45911304D01*
X45300500Y-45911304D01*
X45300500Y-45002706D01*
X45300618Y-44997297D01*
X45302227Y-44960438D01*
X45318147Y-44595795D01*
X45319087Y-44585064D01*
X45371189Y-44189302D01*
X45373063Y-44178672D01*
X45459463Y-43788950D01*
X45462261Y-43778512D01*
X45582291Y-43397823D01*
X45585979Y-43387691D01*
X45738742Y-43018888D01*
X45743300Y-43009114D01*
X45927617Y-42655045D01*
X45933012Y-42645700D01*
X46147495Y-42309029D01*
X46153685Y-42300189D01*
X46396687Y-41983503D01*
X46403625Y-41975234D01*
X46673304Y-41680932D01*
X46680932Y-41673304D01*
X46975234Y-41403625D01*
X46983503Y-41396687D01*
X47300189Y-41153685D01*
X47309029Y-41147495D01*
X47645700Y-40933012D01*
X47655045Y-40927617D01*
X48009114Y-40743300D01*
X48018888Y-40738742D01*
X48387691Y-40585979D01*
X48397823Y-40582291D01*
X48778521Y-40462258D01*
X48788950Y-40459463D01*
X49178672Y-40373063D01*
X49189302Y-40371189D01*
X49585064Y-40319087D01*
X49595795Y-40318147D01*
X49997297Y-40300617D01*
X50002706Y-40300500D01*
X50047595Y-40300500D01*
X94952405Y-40300500D01*
X94997294Y-40300500D01*
X95002702Y-40300617D01*
G37*
%TD.AperFunction*%
%TA.AperFunction,Conductor*%
G36*
X95354093Y-92531119D02*
G01*
X95364045Y-92531550D01*
X95393203Y-92546678D01*
X95395486Y-92547586D01*
X95396183Y-92548078D01*
X95557184Y-92665051D01*
X95574422Y-92673834D01*
X95581687Y-92678960D01*
X95598095Y-92699638D01*
X95617290Y-92717766D01*
X95619472Y-92726580D01*
X95625117Y-92733693D01*
X95627740Y-92759963D01*
X95634087Y-92785587D01*
X95631158Y-92794181D01*
X95632061Y-92803216D01*
X95620066Y-92826732D01*
X95611552Y-92851722D01*
X95603970Y-92858291D01*
X95600316Y-92865458D01*
X95586207Y-92873685D01*
X95566505Y-92890760D01*
X95557446Y-92895376D01*
X95557440Y-92895380D01*
X95503282Y-92934727D01*
X95503282Y-92934728D01*
X96135591Y-93567037D01*
X96072007Y-93584075D01*
X95957993Y-93649901D01*
X95864901Y-93742993D01*
X95799075Y-93857007D01*
X95782037Y-93920591D01*
X95111818Y-93250372D01*
X95079350Y-93193354D01*
X95075499Y-93178264D01*
X95075499Y-93152128D01*
X95069091Y-93092517D01*
X95020079Y-92961109D01*
X95018434Y-92954663D01*
X95019454Y-92926126D01*
X95017417Y-92897641D01*
X95020686Y-92891653D01*
X95020930Y-92884838D01*
X95037214Y-92861385D01*
X95050902Y-92836318D01*
X95056889Y-92833048D01*
X95060779Y-92827447D01*
X95087162Y-92816519D01*
X95112226Y-92802834D01*
X95122999Y-92801675D01*
X95125331Y-92800710D01*
X95127813Y-92801157D01*
X95138583Y-92800000D01*
X95200000Y-92800000D01*
X95200000Y-92648906D01*
X95203306Y-92637646D01*
X95202140Y-92625970D01*
X95212969Y-92604736D01*
X95219685Y-92581867D01*
X95228552Y-92574183D01*
X95233885Y-92563728D01*
X95254477Y-92551718D01*
X95272489Y-92536112D01*
X95284103Y-92534442D01*
X95294241Y-92528530D01*
X95318054Y-92529560D01*
X95341647Y-92526168D01*
X95354093Y-92531119D01*
G37*
%TD.AperFunction*%
%TA.AperFunction,Conductor*%
G36*
X99642539Y-67619685D02*
G01*
X99688294Y-67672489D01*
X99699500Y-67724000D01*
X99699500Y-77276000D01*
X99679815Y-77343039D01*
X99627011Y-77388794D01*
X99575500Y-77400000D01*
X97344258Y-77400000D01*
X97277219Y-77380315D01*
X97231464Y-77327511D01*
X97221520Y-77258353D01*
X97250545Y-77194797D01*
X97256577Y-77188319D01*
X97295104Y-77149792D01*
X97295106Y-77149788D01*
X97295109Y-77149786D01*
X97420048Y-76977820D01*
X97420047Y-76977820D01*
X97420051Y-76977816D01*
X97516557Y-76788412D01*
X97582246Y-76586243D01*
X97615500Y-76376287D01*
X97615500Y-76163713D01*
X97582246Y-75953757D01*
X97516557Y-75751588D01*
X97420051Y-75562184D01*
X97420049Y-75562181D01*
X97420048Y-75562179D01*
X97295109Y-75390213D01*
X97144786Y-75239890D01*
X96972817Y-75114949D01*
X96963504Y-75110204D01*
X96912707Y-75062230D01*
X96895912Y-74994409D01*
X96918449Y-74928274D01*
X96963507Y-74889232D01*
X96972555Y-74884622D01*
X97026716Y-74845270D01*
X97026717Y-74845270D01*
X96394408Y-74212962D01*
X96457993Y-74195925D01*
X96572007Y-74130099D01*
X96665099Y-74037007D01*
X96730925Y-73922993D01*
X96747962Y-73859409D01*
X97380270Y-74491717D01*
X97380270Y-74491716D01*
X97419622Y-74437554D01*
X97516095Y-74248217D01*
X97581757Y-74046130D01*
X97581757Y-74046127D01*
X97615000Y-73836246D01*
X97615000Y-73623753D01*
X97581757Y-73413872D01*
X97581757Y-73413869D01*
X97516095Y-73211782D01*
X97419624Y-73022449D01*
X97380270Y-72968282D01*
X97380269Y-72968282D01*
X96747962Y-73600590D01*
X96730925Y-73537007D01*
X96665099Y-73422993D01*
X96572007Y-73329901D01*
X96457993Y-73264075D01*
X96394409Y-73247037D01*
X97026716Y-72614728D01*
X96972547Y-72575373D01*
X96972547Y-72575372D01*
X96963500Y-72570763D01*
X96912706Y-72522788D01*
X96895912Y-72454966D01*
X96918451Y-72388832D01*
X96963508Y-72349793D01*
X96972816Y-72345051D01*
X97078234Y-72268461D01*
X97144786Y-72220109D01*
X97144788Y-72220106D01*
X97144792Y-72220104D01*
X97295104Y-72069792D01*
X97295106Y-72069788D01*
X97295109Y-72069786D01*
X97420048Y-71897820D01*
X97420047Y-71897820D01*
X97420051Y-71897816D01*
X97516557Y-71708412D01*
X97582246Y-71506243D01*
X97615500Y-71296287D01*
X97615500Y-71083713D01*
X97582246Y-70873757D01*
X97516557Y-70671588D01*
X97420051Y-70482184D01*
X97420049Y-70482181D01*
X97420048Y-70482179D01*
X97295109Y-70310213D01*
X97144786Y-70159890D01*
X96972820Y-70034951D01*
X96972115Y-70034591D01*
X96964054Y-70030485D01*
X96913259Y-69982512D01*
X96896463Y-69914692D01*
X96918999Y-69848556D01*
X96964054Y-69809515D01*
X96972816Y-69805051D01*
X97012855Y-69775961D01*
X97144786Y-69680109D01*
X97144788Y-69680106D01*
X97144792Y-69680104D01*
X97295104Y-69529792D01*
X97295106Y-69529788D01*
X97295109Y-69529786D01*
X97420048Y-69357820D01*
X97420047Y-69357820D01*
X97420051Y-69357816D01*
X97516557Y-69168412D01*
X97582246Y-68966243D01*
X97615500Y-68756287D01*
X97615500Y-68543713D01*
X97582246Y-68333757D01*
X97516557Y-68131588D01*
X97420051Y-67942184D01*
X97420049Y-67942181D01*
X97420048Y-67942179D01*
X97314487Y-67796885D01*
X97291007Y-67731078D01*
X97306833Y-67663025D01*
X97356939Y-67614330D01*
X97414805Y-67600000D01*
X99575500Y-67600000D01*
X99642539Y-67619685D01*
G37*
%TD.AperFunction*%
%TA.AperFunction,Conductor*%
G36*
X95799075Y-73922993D02*
G01*
X95864901Y-74037007D01*
X95957993Y-74130099D01*
X96072007Y-74195925D01*
X96135590Y-74212962D01*
X95503282Y-74845269D01*
X95503282Y-74845270D01*
X95557452Y-74884626D01*
X95557451Y-74884626D01*
X95566495Y-74889234D01*
X95617292Y-74937208D01*
X95634087Y-75005029D01*
X95611550Y-75071164D01*
X95566499Y-75110202D01*
X95557182Y-75114949D01*
X95385213Y-75239890D01*
X95234890Y-75390213D01*
X95109949Y-75562182D01*
X95105484Y-75570946D01*
X95057509Y-75621742D01*
X94989688Y-75638536D01*
X94923553Y-75615998D01*
X94884516Y-75570946D01*
X94880050Y-75562182D01*
X94755109Y-75390213D01*
X94604786Y-75239890D01*
X94432820Y-75114951D01*
X94432115Y-75114591D01*
X94424054Y-75110485D01*
X94373259Y-75062512D01*
X94356463Y-74994692D01*
X94378999Y-74928556D01*
X94424054Y-74889515D01*
X94432816Y-74885051D01*
X94487572Y-74845269D01*
X94604786Y-74760109D01*
X94604788Y-74760106D01*
X94604792Y-74760104D01*
X94755104Y-74609792D01*
X94755106Y-74609788D01*
X94755109Y-74609786D01*
X94840890Y-74491717D01*
X94880051Y-74437816D01*
X94884793Y-74428508D01*
X94932763Y-74377711D01*
X95000583Y-74360911D01*
X95066719Y-74383445D01*
X95105763Y-74428500D01*
X95110373Y-74437547D01*
X95149728Y-74491716D01*
X95782037Y-73859408D01*
X95799075Y-73922993D01*
G37*
%TD.AperFunction*%
%TA.AperFunction,Conductor*%
G36*
X95066444Y-71843999D02*
G01*
X95105486Y-71889056D01*
X95109951Y-71897820D01*
X95234890Y-72069786D01*
X95385213Y-72220109D01*
X95557179Y-72345048D01*
X95557181Y-72345049D01*
X95557184Y-72345051D01*
X95566493Y-72349794D01*
X95617290Y-72397766D01*
X95634087Y-72465587D01*
X95611552Y-72531722D01*
X95566505Y-72570760D01*
X95557446Y-72575376D01*
X95557440Y-72575380D01*
X95503282Y-72614727D01*
X95503282Y-72614728D01*
X96135591Y-73247037D01*
X96072007Y-73264075D01*
X95957993Y-73329901D01*
X95864901Y-73422993D01*
X95799075Y-73537007D01*
X95782037Y-73600591D01*
X95149728Y-72968282D01*
X95149727Y-72968282D01*
X95110380Y-73022440D01*
X95110376Y-73022446D01*
X95105760Y-73031505D01*
X95057781Y-73082297D01*
X94989959Y-73099087D01*
X94923826Y-73076543D01*
X94884794Y-73031493D01*
X94880051Y-73022184D01*
X94880049Y-73022181D01*
X94880048Y-73022179D01*
X94755109Y-72850213D01*
X94604786Y-72699890D01*
X94432820Y-72574951D01*
X94424600Y-72570763D01*
X94424054Y-72570485D01*
X94373259Y-72522512D01*
X94356463Y-72454692D01*
X94378999Y-72388556D01*
X94424054Y-72349515D01*
X94432816Y-72345051D01*
X94538234Y-72268461D01*
X94604786Y-72220109D01*
X94604788Y-72220106D01*
X94604792Y-72220104D01*
X94755104Y-72069792D01*
X94755106Y-72069788D01*
X94755109Y-72069786D01*
X94880048Y-71897820D01*
X94880047Y-71897820D01*
X94880051Y-71897816D01*
X94884514Y-71889054D01*
X94932488Y-71838259D01*
X95000308Y-71821463D01*
X95066444Y-71843999D01*
G37*
%TD.AperFunction*%
%TA.AperFunction,Conductor*%
G36*
X95799075Y-56142993D02*
G01*
X95864901Y-56257007D01*
X95957993Y-56350099D01*
X96072007Y-56415925D01*
X96135590Y-56432962D01*
X95503282Y-57065269D01*
X95503282Y-57065270D01*
X95557452Y-57104626D01*
X95557451Y-57104626D01*
X95566495Y-57109234D01*
X95617292Y-57157208D01*
X95634087Y-57225029D01*
X95611550Y-57291164D01*
X95566499Y-57330202D01*
X95557182Y-57334949D01*
X95385213Y-57459890D01*
X95234890Y-57610213D01*
X95109949Y-57782182D01*
X95105484Y-57790946D01*
X95057509Y-57841742D01*
X94989688Y-57858536D01*
X94923553Y-57835998D01*
X94884516Y-57790946D01*
X94880050Y-57782182D01*
X94755109Y-57610213D01*
X94604786Y-57459890D01*
X94432820Y-57334951D01*
X94432115Y-57334591D01*
X94424054Y-57330485D01*
X94373259Y-57282512D01*
X94356463Y-57214692D01*
X94378999Y-57148556D01*
X94424054Y-57109515D01*
X94432816Y-57105051D01*
X94487572Y-57065269D01*
X94604786Y-56980109D01*
X94604788Y-56980106D01*
X94604792Y-56980104D01*
X94755104Y-56829792D01*
X94755106Y-56829788D01*
X94755109Y-56829786D01*
X94840890Y-56711717D01*
X94880051Y-56657816D01*
X94884793Y-56648508D01*
X94932763Y-56597711D01*
X95000583Y-56580911D01*
X95066719Y-56603445D01*
X95105763Y-56648500D01*
X95110373Y-56657547D01*
X95149728Y-56711716D01*
X95782037Y-56079408D01*
X95799075Y-56142993D01*
G37*
%TD.AperFunction*%
%TD*%
M02*
