%TF.GenerationSoftware,KiCad,Pcbnew,9.0.7*%
%TF.CreationDate,2026-03-16T17:27:03+01:00*%
%TF.ProjectId,BLDC-Control-Board,424c4443-2d43-46f6-9e74-726f6c2d426f,rev?*%
%TF.SameCoordinates,Original*%
%TF.FileFunction,Legend,Bot*%
%TF.FilePolarity,Positive*%
%FSLAX46Y46*%
G04 Gerber Fmt 4.6, Leading zero omitted, Abs format (unit mm)*
G04 Created by KiCad (PCBNEW 9.0.7) date 2026-03-16 17:27:03*
%MOMM*%
%LPD*%
G01*
G04 APERTURE LIST*
%ADD10C,0.100000*%
%ADD11C,0.120000*%
G04 APERTURE END LIST*
D10*
X96991353Y-53072419D02*
X96372306Y-53072419D01*
X96372306Y-53072419D02*
X96705639Y-53453371D01*
X96705639Y-53453371D02*
X96562782Y-53453371D01*
X96562782Y-53453371D02*
X96467544Y-53500990D01*
X96467544Y-53500990D02*
X96419925Y-53548609D01*
X96419925Y-53548609D02*
X96372306Y-53643847D01*
X96372306Y-53643847D02*
X96372306Y-53881942D01*
X96372306Y-53881942D02*
X96419925Y-53977180D01*
X96419925Y-53977180D02*
X96467544Y-54024800D01*
X96467544Y-54024800D02*
X96562782Y-54072419D01*
X96562782Y-54072419D02*
X96848496Y-54072419D01*
X96848496Y-54072419D02*
X96943734Y-54024800D01*
X96943734Y-54024800D02*
X96991353Y-53977180D01*
X95991353Y-53167657D02*
X95943734Y-53120038D01*
X95943734Y-53120038D02*
X95848496Y-53072419D01*
X95848496Y-53072419D02*
X95610401Y-53072419D01*
X95610401Y-53072419D02*
X95515163Y-53120038D01*
X95515163Y-53120038D02*
X95467544Y-53167657D01*
X95467544Y-53167657D02*
X95419925Y-53262895D01*
X95419925Y-53262895D02*
X95419925Y-53358133D01*
X95419925Y-53358133D02*
X95467544Y-53500990D01*
X95467544Y-53500990D02*
X96038972Y-54072419D01*
X96038972Y-54072419D02*
X95419925Y-54072419D01*
X94324686Y-53072419D02*
X93705639Y-53072419D01*
X93705639Y-53072419D02*
X94038972Y-53453371D01*
X94038972Y-53453371D02*
X93896115Y-53453371D01*
X93896115Y-53453371D02*
X93800877Y-53500990D01*
X93800877Y-53500990D02*
X93753258Y-53548609D01*
X93753258Y-53548609D02*
X93705639Y-53643847D01*
X93705639Y-53643847D02*
X93705639Y-53881942D01*
X93705639Y-53881942D02*
X93753258Y-53977180D01*
X93753258Y-53977180D02*
X93800877Y-54024800D01*
X93800877Y-54024800D02*
X93896115Y-54072419D01*
X93896115Y-54072419D02*
X94181829Y-54072419D01*
X94181829Y-54072419D02*
X94277067Y-54024800D01*
X94277067Y-54024800D02*
X94324686Y-53977180D01*
X92753258Y-54072419D02*
X93324686Y-54072419D01*
X93038972Y-54072419D02*
X93038972Y-53072419D01*
X93038972Y-53072419D02*
X93134210Y-53215276D01*
X93134210Y-53215276D02*
X93229448Y-53310514D01*
X93229448Y-53310514D02*
X93324686Y-53358133D01*
X97043734Y-95767657D02*
X96996115Y-95720038D01*
X96996115Y-95720038D02*
X96900877Y-95672419D01*
X96900877Y-95672419D02*
X96662782Y-95672419D01*
X96662782Y-95672419D02*
X96567544Y-95720038D01*
X96567544Y-95720038D02*
X96519925Y-95767657D01*
X96519925Y-95767657D02*
X96472306Y-95862895D01*
X96472306Y-95862895D02*
X96472306Y-95958133D01*
X96472306Y-95958133D02*
X96519925Y-96100990D01*
X96519925Y-96100990D02*
X97091353Y-96672419D01*
X97091353Y-96672419D02*
X96472306Y-96672419D01*
X92710402Y-96672419D02*
X93281830Y-96672419D01*
X92996116Y-96672419D02*
X92996116Y-95672419D01*
X92996116Y-95672419D02*
X93091354Y-95815276D01*
X93091354Y-95815276D02*
X93186592Y-95910514D01*
X93186592Y-95910514D02*
X93281830Y-95958133D01*
X95261666Y-95994895D02*
X95261666Y-96566323D01*
X95261666Y-96566323D02*
X95299761Y-96680609D01*
X95299761Y-96680609D02*
X95375952Y-96756800D01*
X95375952Y-96756800D02*
X95490237Y-96794895D01*
X95490237Y-96794895D02*
X95566428Y-96794895D01*
X94956904Y-95994895D02*
X94461666Y-95994895D01*
X94461666Y-95994895D02*
X94728332Y-96299657D01*
X94728332Y-96299657D02*
X94614047Y-96299657D01*
X94614047Y-96299657D02*
X94537856Y-96337752D01*
X94537856Y-96337752D02*
X94499761Y-96375847D01*
X94499761Y-96375847D02*
X94461666Y-96452038D01*
X94461666Y-96452038D02*
X94461666Y-96642514D01*
X94461666Y-96642514D02*
X94499761Y-96718704D01*
X94499761Y-96718704D02*
X94537856Y-96756800D01*
X94537856Y-96756800D02*
X94614047Y-96794895D01*
X94614047Y-96794895D02*
X94842618Y-96794895D01*
X94842618Y-96794895D02*
X94918809Y-96756800D01*
X94918809Y-96756800D02*
X94956904Y-96718704D01*
D11*
%TO.C,J3*%
X92345000Y-54570000D02*
X97645000Y-54570000D01*
X92345000Y-92780000D02*
X92345000Y-54570000D01*
X92345000Y-92780000D02*
X94995000Y-92780000D01*
X92345000Y-94050000D02*
X92345000Y-95430000D01*
X92345000Y-95430000D02*
X93725000Y-95430000D01*
X94995000Y-92780000D02*
X94995000Y-95430000D01*
X94995000Y-95430000D02*
X97645000Y-95430000D01*
X97645000Y-95430000D02*
X97645000Y-54570000D01*
%TD*%
M02*
